<svg width="140" height="29" viewBox="0 0 140 29" fill="none" xmlns="http://www.w3.org/2000/svg">
<rect width="140" height="29" rx="14.5" fill="url(#paint0_linear)"/>
<path d="M57.3699 16.7734H53.7957L52.993 19H51.8328L55.0906 10.4688H56.075L59.3387 19H58.1844L57.3699 16.7734ZM54.1356 15.8477H57.036L55.5828 11.8574L54.1356 15.8477ZM61.6121 15.6602V19H60.4871V10.4688H63.6336C64.5672 10.4688 65.2977 10.707 65.825 11.1836C66.3563 11.6602 66.6219 12.291 66.6219 13.0762C66.6219 13.9043 66.3621 14.543 65.8426 14.9922C65.327 15.4375 64.5867 15.6602 63.6219 15.6602H61.6121ZM61.6121 14.7402H63.6336C64.2352 14.7402 64.6961 14.5996 65.0164 14.3184C65.3367 14.0332 65.4969 13.623 65.4969 13.0879C65.4969 12.5801 65.3367 12.1738 65.0164 11.8691C64.6961 11.5645 64.2567 11.4062 63.6981 11.3945H61.6121V14.7402ZM69.1824 15.6602V19H68.0574V10.4688H71.2039C72.1375 10.4688 72.868 10.707 73.3953 11.1836C73.9266 11.6602 74.1922 12.291 74.1922 13.0762C74.1922 13.9043 73.9324 14.543 73.4129 14.9922C72.8973 15.4375 72.1571 15.6602 71.1922 15.6602H69.1824ZM69.1824 14.7402H71.2039C71.8055 14.7402 72.2664 14.5996 72.5867 14.3184C72.9071 14.0332 73.0672 13.623 73.0672 13.0879C73.0672 12.5801 72.9071 12.1738 72.5867 11.8691C72.2664 11.5645 71.827 11.4062 71.2684 11.3945H69.1824V14.7402ZM76.7586 18.0801H80.8016V19H75.6278V10.4688H76.7586V18.0801ZM83.2801 14.752L85.5067 10.4688H86.784L83.8426 15.8184V19H82.7176V15.8184L79.7762 10.4688H81.0653L83.2801 14.752Z" fill="white"/>
<defs>
<linearGradient id="paint0_linear" x1="-22.6154" y1="14" x2="155.436" y2="14" gradientUnits="userSpaceOnUse">
<stop stop-color="#1B998B"/>
<stop offset="1" stop-color="#FFC15E"/>
</linearGradient>
</defs>
</svg>
