<svg width="140" height="29" viewBox="0 0 140 29" fill="none" xmlns="http://www.w3.org/2000/svg">
<rect width="140" height="29" rx="14.5" fill="url(#paint0_linear)"/>
<path d="M34.2196 19V10.4688H37.0086C37.9344 10.4688 38.6297 10.6602 39.0946 11.043C39.5633 11.4258 39.7977 11.9922 39.7977 12.7422C39.7977 13.1406 39.6844 13.4941 39.4578 13.8027C39.2313 14.1074 38.9227 14.3438 38.5321 14.5117C38.993 14.6406 39.3563 14.8867 39.6219 15.25C39.8914 15.6094 40.0262 16.0391 40.0262 16.5391C40.0262 17.3047 39.7781 17.9062 39.2821 18.3438C38.786 18.7812 38.0848 19 37.1785 19H34.2196ZM35.3446 15.0098V18.0801H37.202C37.7254 18.0801 38.1375 17.9453 38.4383 17.6758C38.743 17.4023 38.8953 17.0273 38.8953 16.5508C38.8953 15.5234 38.3367 15.0098 37.2196 15.0098H35.3446ZM35.3446 14.1074H37.0438C37.536 14.1074 37.9285 13.9844 38.2215 13.7383C38.5184 13.4922 38.6668 13.1582 38.6668 12.7363C38.6668 12.2676 38.5301 11.9277 38.2567 11.7168C37.9832 11.502 37.5672 11.3945 37.0086 11.3945H35.3446V14.1074ZM47.702 10.4688V16.2695C47.6981 17.0742 47.4442 17.7324 46.9403 18.2441C46.4403 18.7559 45.7606 19.043 44.9012 19.1055L44.6024 19.1172C43.6688 19.1172 42.9246 18.8652 42.3699 18.3613C41.8153 17.8574 41.534 17.1641 41.5262 16.2812V10.4688H42.6395V16.2461C42.6395 16.8633 42.8094 17.3438 43.1492 17.6875C43.4891 18.0273 43.9735 18.1973 44.6024 18.1973C45.2391 18.1973 45.7254 18.0273 46.0614 17.6875C46.4012 17.3477 46.5711 16.8691 46.5711 16.252V10.4688H47.702ZM52.0789 14.752L54.3055 10.4688H55.5828L52.6414 15.8184V19H51.5164V15.8184L48.575 10.4688H49.8641L52.0789 14.752ZM65.3211 11.3945H62.5789V19H61.4598V11.3945H58.7235V10.4688H65.3211V11.3945ZM67.7938 19H66.6688V10.4688H67.7938V19ZM76.1317 16.293C76.0262 17.1953 75.6922 17.8926 75.1297 18.3848C74.5711 18.873 73.827 19.1172 72.8973 19.1172C71.8895 19.1172 71.0809 18.7559 70.4715 18.0332C69.866 17.3105 69.5633 16.3438 69.5633 15.1328V14.3125C69.5633 13.5195 69.7039 12.8223 69.9852 12.2207C70.2703 11.6191 70.6727 11.1582 71.1922 10.8379C71.7117 10.5137 72.3133 10.3516 72.9969 10.3516C73.9031 10.3516 74.6297 10.6055 75.1766 11.1133C75.7235 11.6172 76.0418 12.3164 76.1317 13.2109H75.0008C74.9031 12.5312 74.6903 12.0391 74.3621 11.7344C74.0379 11.4297 73.5828 11.2773 72.9969 11.2773C72.2781 11.2773 71.7137 11.543 71.3035 12.0742C70.8973 12.6055 70.6942 13.3613 70.6942 14.3418V15.168C70.6942 16.0938 70.8875 16.8301 71.2742 17.377C71.661 17.9238 72.202 18.1973 72.8973 18.1973C73.5223 18.1973 74.0008 18.0566 74.3328 17.7754C74.6688 17.4902 74.8914 16.9961 75.0008 16.293H76.1317ZM79.8407 15.0332L78.7977 16.1172V19H77.6727V10.4688H78.7977V14.6875L82.5887 10.4688H83.9481L80.5907 14.2363L84.2117 19H82.8641L79.8407 15.0332ZM90.0184 15.0566H86.3211V18.0801H90.616V19H85.1961V10.4688H90.5574V11.3945H86.3211V14.1367H90.0184V15.0566ZM98.0282 11.3945H95.286V19H94.1668V11.3945H91.4305V10.4688H98.0282V11.3945ZM101.714 15.1973C100.749 14.9199 100.046 14.5801 99.6043 14.1777C99.1668 13.7715 98.9481 13.2715 98.9481 12.6777C98.9481 12.0059 99.2157 11.4512 99.7508 11.0137C100.29 10.5723 100.989 10.3516 101.848 10.3516C102.434 10.3516 102.956 10.4648 103.413 10.6914C103.874 10.918 104.229 11.2305 104.479 11.6289C104.733 12.0273 104.86 12.4629 104.86 12.9355H103.729C103.729 12.4199 103.565 12.0156 103.237 11.7227C102.909 11.4258 102.446 11.2773 101.848 11.2773C101.294 11.2773 100.86 11.4004 100.548 11.6465C100.239 11.8887 100.085 12.2266 100.085 12.6602C100.085 13.0078 100.231 13.3027 100.524 13.5449C100.821 13.7832 101.323 14.002 102.03 14.2012C102.741 14.4004 103.296 14.6211 103.694 14.8633C104.097 15.1016 104.393 15.3809 104.585 15.7012C104.78 16.0215 104.878 16.3984 104.878 16.832C104.878 17.5234 104.608 18.0781 104.069 18.4961C103.53 18.9102 102.809 19.1172 101.907 19.1172C101.321 19.1172 100.774 19.0059 100.266 18.7832C99.7586 18.5566 99.366 18.248 99.0887 17.8574C98.8153 17.4668 98.6785 17.0234 98.6785 16.5273H99.8094C99.8094 17.043 99.9989 17.4512 100.378 17.752C100.761 18.0488 101.27 18.1973 101.907 18.1973C102.501 18.1973 102.956 18.0762 103.272 17.834C103.589 17.5918 103.747 17.2617 103.747 16.8438C103.747 16.4258 103.6 16.1035 103.307 15.877C103.014 15.6465 102.483 15.4199 101.714 15.1973Z" fill="white"/>
<defs>
<linearGradient id="paint0_linear" x1="-38.7692" y1="14" x2="211.077" y2="14" gradientUnits="userSpaceOnUse">
<stop stop-color="#E13F30"/>
<stop offset="1" stop-color="#FFC15E" stop-opacity="0.84"/>
</linearGradient>
</defs>
</svg>
