<svg width="1000" height="400" viewBox="0 0 1000 400" fill="none" xmlns="http://www.w3.org/2000/svg">
<g clip-path="url(#clip0)">
<rect width="1000" height="400" fill="white"/>
<path d="M135.199 29.2887L178 4.57735L220.801 29.2887V78.7113L178 103.423L135.199 78.7113V29.2887Z" stroke="black"/>
<path d="M143.859 34.2887L178 14.5774L212.141 34.2887V73.7113L178 93.4226L143.859 73.7113V34.2887Z" stroke="black" stroke-opacity="0.8"/>
<path d="M156.849 41.7887L178 29.5774L199.151 41.7887V66.2113L178 78.4226L156.849 66.2113V41.7887Z" stroke="black" stroke-opacity="0.5"/>
<path d="M165.51 46.7887L178 39.5774L190.49 46.7887V61.2113L178 68.4227L165.51 61.2113V46.7887Z" stroke="black" stroke-opacity="0.3"/>
<path d="M169.84 49.2887L178 44.5774L186.16 49.2887V58.7113L178 63.4227L169.84 58.7113V49.2887Z" stroke="black" stroke-opacity="0.2"/>
<path d="M174.17 51.7887L178 49.5774L181.83 51.7887V56.2113L178 58.4226L174.17 56.2113V51.7887Z" stroke="black" stroke-opacity="0.1"/>
<path d="M49.5289 256.789L88 234.577L126.471 256.789V301.211L88 323.423L49.5289 301.211V256.789Z" stroke="black" stroke-opacity="0.9"/>
<path d="M71.1795 269.289L88 259.577L104.821 269.289V288.711L88 298.423L71.1795 288.711V269.289Z" stroke="black" stroke-opacity="0.4"/>
<path d="M79.8397 274.289L88 269.577L96.1603 274.289V283.711L88 288.423L79.8397 283.711V274.289Z" stroke="black" stroke-opacity="0.2"/>
<path d="M84.1699 276.789L88 274.577L91.8301 276.789V281.211L88 283.423L84.1699 281.211V276.789Z" stroke="black" stroke-opacity="0.1"/>
<path d="M390.199 42.2887L433 17.5774L475.801 42.2887V91.7113L433 116.423L390.199 91.7113V42.2887Z" stroke="black"/>
<path d="M398.859 47.2887L433 27.5774L467.141 47.2887V86.7113L433 106.423L398.859 86.7113V47.2887Z" stroke="black" stroke-opacity="0.8"/>
<path d="M403.189 49.7887L433 32.5774L462.811 49.7887V84.2113L433 101.423L403.189 84.2113V49.7887Z" stroke="black" stroke-opacity="0.7"/>
<path d="M407.519 52.2887L433 37.5774L458.481 52.2887V81.7113L433 96.4226L407.519 81.7113V52.2887Z" stroke="black" stroke-opacity="0.6"/>
<path d="M416.179 57.2887L433 47.5774L449.821 57.2887V76.7113L433 86.4226L416.179 76.7113V57.2887Z" stroke="black" stroke-opacity="0.4"/>
<path d="M420.51 59.7887L433 52.5774L445.49 59.7887V74.2113L433 81.4227L420.51 74.2113V59.7887Z" stroke="black" stroke-opacity="0.3"/>
<path d="M424.84 62.2887L433 57.5774L441.16 62.2887V71.7113L433 76.4227L424.84 71.7113V62.2887Z" stroke="black" stroke-opacity="0.2"/>
<path d="M429.17 64.7887L433 62.5774L436.83 64.7887V69.2113L433 71.4226L429.17 69.2113V64.7887Z" stroke="black" stroke-opacity="0.1"/>
<path d="M553.179 37.2887L570 27.5774L586.821 37.2887V56.7113L570 66.4226L553.179 56.7113V37.2887Z" stroke="black" stroke-opacity="0.4"/>
<path d="M557.51 39.7887L570 32.5774L582.49 39.7887V54.2113L570 61.4227L557.51 54.2113V39.7887Z" stroke="black" stroke-opacity="0.3"/>
<path d="M561.84 42.2887L570 37.5774L578.16 42.2887V51.7113L570 56.4227L561.84 51.7113V42.2887Z" stroke="black" stroke-opacity="0.2"/>
<path d="M566.17 44.7887L570 42.5774L573.83 44.7887V49.2113L570 51.4226L566.17 49.2113V44.7887Z" stroke="black" stroke-opacity="0.1"/>
<path d="M827.179 9.28868L844 -0.42265L860.821 9.28868V28.7113L844 38.4226L827.179 28.7113V9.28868Z" stroke="black" stroke-opacity="0.4"/>
<path d="M831.51 11.7887L844 4.57735L856.49 11.7887V26.2113L844 33.4227L831.51 26.2113V11.7887Z" stroke="black" stroke-opacity="0.3"/>
<path d="M835.84 14.2887L844 9.57735L852.16 14.2887V23.7113L844 28.4227L835.84 23.7113V14.2887Z" stroke="black" stroke-opacity="0.2"/>
<path d="M840.17 16.7887L844 14.5774L847.83 16.7887V21.2113L844 23.4226L840.17 21.2113V16.7887Z" stroke="black" stroke-opacity="0.1"/>
<path d="M344.199 122.289L387 97.5774L429.801 122.289V171.711L387 196.423L344.199 171.711V122.289Z" stroke="black"/>
<path d="M352.859 127.289L387 107.577L421.141 127.289V166.711L387 186.423L352.859 166.711V127.289Z" stroke="black" stroke-opacity="0.8"/>
<path d="M361.519 132.289L387 117.577L412.481 132.289V161.711L387 176.423L361.519 161.711V132.289Z" stroke="black" stroke-opacity="0.6"/>
<path d="M370.179 137.289L387 127.577L403.821 137.289V156.711L387 166.423L370.179 156.711V137.289Z" stroke="black" stroke-opacity="0.4"/>
<path d="M374.51 139.789L387 132.577L399.49 139.789V154.211L387 161.423L374.51 154.211V139.789Z" stroke="black" stroke-opacity="0.3"/>
<path d="M378.84 142.289L387 137.577L395.16 142.289V151.711L387 156.423L378.84 151.711V142.289Z" stroke="black" stroke-opacity="0.2"/>
<path d="M383.17 144.789L387 142.577L390.83 144.789V149.211L387 151.423L383.17 149.211V144.789Z" stroke="black" stroke-opacity="0.1"/>
<path d="M618.199 72.2887L661 47.5774L703.801 72.2887V121.711L661 146.423L618.199 121.711V72.2887Z" stroke="black"/>
<path d="M631.189 79.7887L661 62.5774L690.811 79.7887V114.211L661 131.423L631.189 114.211V79.7887Z" stroke="black" stroke-opacity="0.7"/>
<path d="M644.179 87.2887L661 77.5774L677.821 87.2887V106.711L661 116.423L644.179 106.711V87.2887Z" stroke="black" stroke-opacity="0.4"/>
<path d="M648.51 89.7887L661 82.5774L673.49 89.7887V104.211L661 111.423L648.51 104.211V89.7887Z" stroke="black" stroke-opacity="0.3"/>
<path d="M652.84 92.2887L661 87.5774L669.16 92.2887V101.711L661 106.423L652.84 101.711V92.2887Z" stroke="black" stroke-opacity="0.2"/>
<path d="M657.17 94.7887L661 92.5774L664.83 94.7887V99.2113L661 101.423L657.17 99.2113V94.7887Z" stroke="black" stroke-opacity="0.1"/>
<path d="M527.199 122.289L570 97.5774L612.801 122.289V171.711L570 196.423L527.199 171.711V122.289Z" stroke="black"/>
<path d="M531.529 124.789L570 102.577L608.471 124.789V169.211L570 191.423L531.529 169.211V124.789Z" stroke="black" stroke-opacity="0.9"/>
<path d="M535.859 127.289L570 107.577L604.141 127.289V166.711L570 186.423L535.859 166.711V127.289Z" stroke="black" stroke-opacity="0.8"/>
<path d="M544.519 132.289L570 117.577L595.481 132.289V161.711L570 176.423L544.519 161.711V132.289Z" stroke="black" stroke-opacity="0.6"/>
<path d="M553.179 137.289L570 127.577L586.821 137.289V156.711L570 166.423L553.179 156.711V137.289Z" stroke="black" stroke-opacity="0.4"/>
<path d="M557.51 139.789L570 132.577L582.49 139.789V154.211L570 161.423L557.51 154.211V139.789Z" stroke="black" stroke-opacity="0.3"/>
<path d="M566.17 144.789L570 142.577L573.83 144.789V149.211L570 151.423L566.17 149.211V144.789Z" stroke="black" stroke-opacity="0.1"/>
<path d="M456.519 184.289L482 169.577L507.481 184.289V213.711L482 228.423L456.519 213.711V184.289Z" stroke="black" stroke-opacity="0.6"/>
<path d="M465.179 189.289L482 179.577L498.821 189.289V208.711L482 218.423L465.179 208.711V189.289Z" stroke="black" stroke-opacity="0.4"/>
<path d="M473.84 194.289L482 189.577L490.16 194.289V203.711L482 208.423L473.84 203.711V194.289Z" stroke="black" stroke-opacity="0.2"/>
<path d="M478.17 196.789L482 194.577L485.83 196.789V201.211L482 203.423L478.17 201.211V196.789Z" stroke="black" stroke-opacity="0.1"/>
<path d="M755.199 42.2887L798 17.5774L840.801 42.2887V91.7113L798 116.423L755.199 91.7113V42.2887Z" stroke="black"/>
<path d="M776.849 54.7887L798 42.5774L819.151 54.7887V79.2113L798 91.4226L776.849 79.2113V54.7887Z" stroke="black" stroke-opacity="0.5"/>
<path d="M781.179 57.2887L798 47.5774L814.821 57.2887V76.7113L798 86.4226L781.179 76.7113V57.2887Z" stroke="black" stroke-opacity="0.4"/>
<path d="M785.51 59.7887L798 52.5774L810.49 59.7887V74.2113L798 81.4227L785.51 74.2113V59.7887Z" stroke="black" stroke-opacity="0.3"/>
<path d="M789.84 62.2887L798 57.5774L806.16 62.2887V71.7113L798 76.4227L789.84 71.7113V62.2887Z" stroke="black" stroke-opacity="0.2"/>
<path d="M794.17 64.7887L798 62.5774L801.83 64.7887V69.2113L798 71.4226L794.17 69.2113V64.7887Z" stroke="black" stroke-opacity="0.1"/>
<path d="M846.199 42.2887L889 17.5774L931.801 42.2887V91.7113L889 116.423L846.199 91.7113V42.2887Z" stroke="black"/>
<path d="M709.199 122.289L752 97.5774L794.801 122.289V171.711L752 196.423L709.199 171.711V122.289Z" stroke="black"/>
<path d="M722.189 129.789L752 112.577L781.811 129.789V164.211L752 181.423L722.189 164.211V129.789Z" stroke="black" stroke-opacity="0.7"/>
<path d="M739.51 139.789L752 132.577L764.49 139.789V154.211L752 161.423L739.51 154.211V139.789Z" stroke="black" stroke-opacity="0.3"/>
<path d="M748.17 144.789L752 142.577L755.83 144.789V149.211L752 151.423L748.17 149.211V144.789Z" stroke="black" stroke-opacity="0.1"/>
<path d="M851.529 201.789L890 179.577L928.471 201.789V246.211L890 268.423L851.529 246.211V201.789Z" stroke="black" stroke-opacity="0.9"/>
<path d="M855.859 204.289L890 184.577L924.141 204.289V243.711L890 263.423L855.859 243.711V204.289Z" stroke="black" stroke-opacity="0.8"/>
<path d="M868.849 211.789L890 199.577L911.151 211.789V236.211L890 248.423L868.849 236.211V211.789Z" stroke="black" stroke-opacity="0.5"/>
<path d="M877.51 216.789L890 209.577L902.49 216.789V231.211L890 238.423L877.51 231.211V216.789Z" stroke="black" stroke-opacity="0.3"/>
<path d="M951.189 206.789L981 189.577L1010.81 206.789V241.211L981 258.423L951.189 241.211V206.789Z" stroke="black" stroke-opacity="0.7"/>
<path d="M959.849 211.789L981 199.577L1002.15 211.789V236.211L981 248.423L959.849 236.211V211.789Z" stroke="black" stroke-opacity="0.5"/>
<path d="M964.179 214.289L981 204.577L997.821 214.289V233.711L981 243.423L964.179 233.711V214.289Z" stroke="black" stroke-opacity="0.4"/>
<path d="M968.51 216.789L981 209.577L993.49 216.789V231.211L981 238.423L968.51 231.211V216.789Z" stroke="black" stroke-opacity="0.3"/>
<path d="M972.84 219.289L981 214.577L989.16 219.289V228.711L981 233.423L972.84 228.711V219.289Z" stroke="black" stroke-opacity="0.2"/>
<path d="M977.17 221.789L981 219.577L984.83 221.789V226.211L981 228.423L977.17 226.211V221.789Z" stroke="black" stroke-opacity="0.1"/>
<path d="M407.189 261.789L437 244.577L466.811 261.789V296.211L437 313.423L407.189 296.211V261.789Z" stroke="black" stroke-opacity="0.7"/>
<path d="M415.849 266.789L437 254.577L458.151 266.789V291.211L437 303.423L415.849 291.211V266.789Z" stroke="black" stroke-opacity="0.5"/>
<path d="M420.179 269.289L437 259.577L453.821 269.289V288.711L437 298.423L420.179 288.711V269.289Z" stroke="black" stroke-opacity="0.4"/>
<path d="M424.51 271.789L437 264.577L449.49 271.789V286.211L437 293.423L424.51 286.211V271.789Z" stroke="black" stroke-opacity="0.3"/>
<path d="M893.199 120.289L936 95.5774L978.801 120.289V169.711L936 194.423L893.199 169.711V120.289Z" stroke="black"/>
<path d="M897.529 122.789L936 100.577L974.471 122.789V167.211L936 189.423L897.529 167.211V122.789Z" stroke="black" stroke-opacity="0.9"/>
<path d="M906.189 127.789L936 110.577L965.811 127.789V162.211L936 179.423L906.189 162.211V127.789Z" stroke="black" stroke-opacity="0.7"/>
<path d="M910.519 130.289L936 115.577L961.481 130.289V159.711L936 174.423L910.519 159.711V130.289Z" stroke="black" stroke-opacity="0.6"/>
<path d="M919.179 135.289L936 125.577L952.821 135.289V154.711L936 164.423L919.179 154.711V135.289Z" stroke="black" stroke-opacity="0.4"/>
<path d="M923.51 137.789L936 130.577L948.49 137.789V152.211L936 159.423L923.51 152.211V137.789Z" stroke="black" stroke-opacity="0.3"/>
<path d="M932.17 142.789L936 140.577L939.83 142.789V147.211L936 149.423L932.17 147.211V142.789Z" stroke="black" stroke-opacity="0.1"/>
<path d="M233.68 103.163L280.565 118.796L290.468 167.217L253.487 200.003L206.602 184.37L196.698 135.95L233.68 103.163Z" stroke="black"/>
<path d="M234.682 108.062L276.823 122.113L285.725 165.635L252.485 195.105L210.343 181.053L201.442 137.531L234.682 108.062Z" stroke="black" stroke-opacity="0.9"/>
<path d="M236.686 117.859L269.341 128.747L276.238 162.472L250.481 185.308L217.826 174.419L210.928 140.695L236.686 117.859Z" stroke="black" stroke-opacity="0.7"/>
<path d="M237.687 122.757L265.599 132.064L271.495 160.89L249.479 180.409L221.567 171.102L215.671 142.276L237.687 122.757Z" stroke="black" stroke-opacity="0.6"/>
<path d="M239.691 132.555L258.117 138.698L262.009 157.727L247.475 170.612L229.05 164.468L225.158 145.439L239.691 132.555Z" stroke="black" stroke-opacity="0.4"/>
<path d="M242.697 147.25L246.893 148.649L247.779 152.982L244.469 155.916L240.274 154.517L239.388 150.184L242.697 147.25Z" stroke="black" stroke-opacity="0.1"/>
<path d="M158.682 176.062L200.823 190.113L209.725 233.635L176.485 263.105L134.343 249.053L125.442 205.531L158.682 176.062Z" stroke="black" stroke-opacity="0.9"/>
<path d="M161.688 190.757L189.599 200.064L195.495 228.89L173.479 248.409L145.567 239.102L139.671 210.276L161.688 190.757Z" stroke="black" stroke-opacity="0.6"/>
<path d="M163.691 200.555L182.117 206.698L186.009 225.727L171.475 238.612L153.05 232.468L149.158 213.439L163.691 200.555Z" stroke="black" stroke-opacity="0.4"/>
<path d="M165.695 210.352L174.634 213.332L176.522 222.564L169.471 228.815L160.533 225.834L158.644 216.603L165.695 210.352Z" stroke="black" stroke-opacity="0.2"/>
<path d="M166.697 215.25L170.893 216.649L171.779 220.982L168.47 223.916L164.274 222.517L163.388 218.184L166.697 215.25Z" stroke="black" stroke-opacity="0.1"/>
<rect x="-25" y="-17" width="1038" height="440" fill="url(#paint0_linear)"/>
</g>
<defs>
<linearGradient id="paint0_linear" x1="533" y1="-7" x2="527" y2="407" gradientUnits="userSpaceOnUse">
<stop stop-color="#E9E9E9" stop-opacity="0.97"/>
<stop offset="1" stop-color="white" stop-opacity="0.94"/>
</linearGradient>
<clipPath id="clip0">
<rect width="1000" height="400" fill="white"/>
</clipPath>
</defs>
</svg>
