<svg width="140" height="29" viewBox="0 0 140 29" fill="none" xmlns="http://www.w3.org/2000/svg">
<rect width="140" height="29" rx="14.5" fill="url(#paint0_linear)"/>
<path d="M42.492 14.9736H40.1541V19H38.8348V9.04688H42.1297C43.2508 9.04688 44.1121 9.30208 44.7137 9.8125C45.3198 10.3229 45.6228 11.0658 45.6228 12.041C45.6228 12.6608 45.4542 13.2008 45.117 13.6611C44.7843 14.1214 44.3195 14.4655 43.7225 14.6934L46.0603 18.918V19H44.6521L42.492 14.9736ZM40.1541 13.9004H42.1707C42.8224 13.9004 43.3396 13.7318 43.7225 13.3945C44.1098 13.0573 44.3035 12.6061 44.3035 12.041C44.3035 11.4258 44.1189 10.9541 43.7498 10.626C43.3852 10.2979 42.8566 10.1315 42.1639 10.127H40.1541V13.9004ZM53.0945 14.3994H48.781V17.9268H53.7918V19H47.4685V9.04688H53.7234V10.127H48.781V13.3262H53.0945V14.3994ZM62.7742 17.6943C62.437 18.1774 61.9653 18.5397 61.3592 18.7812C60.7576 19.0182 60.0558 19.1367 59.2537 19.1367C58.4425 19.1367 57.7225 18.9476 57.0935 18.5693C56.4646 18.1865 55.977 17.6442 55.6307 16.9424C55.2889 16.2406 55.1134 15.4271 55.1043 14.502V13.6338C55.1043 12.1344 55.4529 10.9723 56.1502 10.1475C56.852 9.32259 57.8364 8.91016 59.1033 8.91016C60.1424 8.91016 60.9786 9.17676 61.6121 9.70996C62.2456 10.2386 62.6329 10.9906 62.7742 11.9658H61.4617C61.2156 10.6488 60.4318 9.99023 59.1101 9.99023C58.2306 9.99023 57.5629 10.3001 57.1072 10.9199C56.656 11.5352 56.4282 12.4284 56.4236 13.5996V14.4131C56.4236 15.5296 56.6788 16.4183 57.1893 17.0791C57.6997 17.7354 58.3901 18.0635 59.2605 18.0635C59.7527 18.0635 60.1834 18.0088 60.5525 17.8994C60.9217 17.79 61.227 17.6055 61.4685 17.3457V15.1104H59.1648V14.0439H62.7742V17.6943ZM66.3768 19H65.0643V9.04688H66.3768V19ZM71.7156 14.5635C70.59 14.2399 69.7697 13.8434 69.2547 13.374C68.7443 12.9001 68.4891 12.3167 68.4891 11.624C68.4891 10.8402 68.8012 10.193 69.4256 9.68262C70.0545 9.16764 70.8702 8.91016 71.8728 8.91016C72.5564 8.91016 73.1648 9.04232 73.698 9.30664C74.2358 9.57096 74.6505 9.93555 74.9422 10.4004C75.2384 10.8652 75.3865 11.3734 75.3865 11.9248H74.0672C74.0672 11.3232 73.8758 10.8516 73.493 10.5098C73.1101 10.1634 72.5701 9.99023 71.8728 9.99023C71.2257 9.99023 70.7198 10.1338 70.3553 10.4209C69.9952 10.7035 69.8152 11.0977 69.8152 11.6035C69.8152 12.0091 69.9861 12.3532 70.3279 12.6357C70.6743 12.9137 71.2599 13.1689 72.0848 13.4014C72.9142 13.6338 73.5613 13.8913 74.0262 14.1738C74.4956 14.4518 74.8419 14.7777 75.0652 15.1514C75.2931 15.5251 75.407 15.9648 75.407 16.4707C75.407 17.2773 75.0926 17.9245 74.4637 18.4121C73.8348 18.8952 72.9939 19.1367 71.9412 19.1367C71.2576 19.1367 70.6196 19.0068 70.0271 18.7471C69.4347 18.4827 68.9767 18.1227 68.6531 17.667C68.3341 17.2113 68.1746 16.694 68.1746 16.1152H69.4939C69.4939 16.7168 69.715 17.193 70.157 17.5439C70.6036 17.8903 71.1984 18.0635 71.9412 18.0635C72.6339 18.0635 73.1648 17.9222 73.534 17.6396C73.9031 17.3571 74.0877 16.972 74.0877 16.4844C74.0877 15.9967 73.9168 15.6208 73.575 15.3564C73.2332 15.0876 72.6134 14.8232 71.7156 14.5635ZM83.9725 10.127H80.7732V19H79.4676V10.127H76.2752V9.04688H83.9725V10.127ZM91.075 14.3994H86.7615V17.9268H91.7723V19H85.449V9.04688H91.7039V10.127H86.7615V13.3262H91.075V14.3994ZM97.0564 14.9736H94.7186V19H93.3992V9.04688H96.6941C97.8152 9.04688 98.6766 9.30208 99.2781 9.8125C99.8842 10.3229 100.187 11.0658 100.187 12.041C100.187 12.6608 100.019 13.2008 99.6814 13.6611C99.3488 14.1214 98.8839 14.4655 98.2869 14.6934L100.625 18.918V19H99.2166L97.0564 14.9736ZM94.7186 13.9004H96.7352C97.3868 13.9004 97.9041 13.7318 98.2869 13.3945C98.6743 13.0573 98.868 12.6061 98.868 12.041C98.868 11.4258 98.6834 10.9541 98.3143 10.626C97.9497 10.2979 97.421 10.1315 96.7283 10.127H94.7186V13.9004Z" fill="white"/>
<defs>
<linearGradient id="paint0_linear" x1="-22.6154" y1="14" x2="135.335" y2="14.5155" gradientUnits="userSpaceOnUse">
<stop stop-color="#5F93CA"/>
<stop offset="1" stop-color="#2EAC9E"/>
</linearGradient>
</defs>
</svg>
