<svg width="140" height="29" viewBox="0 0 140 29" fill="none" xmlns="http://www.w3.org/2000/svg">
<rect width="140" height="29" rx="14.5" fill="url(#paint0_linear)"/>
<path d="M46.3191 15.5488H44.3152V19H43.1844V10.4688H46.0086C46.9695 10.4688 47.7078 10.6875 48.2234 11.125C48.743 11.5625 49.0027 12.1992 49.0027 13.0352C49.0027 13.5664 48.8582 14.0293 48.5691 14.4238C48.284 14.8184 47.8855 15.1133 47.3738 15.3086L49.3777 18.9297V19H48.1707L46.3191 15.5488ZM44.3152 14.6289H46.0437C46.6023 14.6289 47.0457 14.4844 47.3738 14.1953C47.7059 13.9062 47.8719 13.5195 47.8719 13.0352C47.8719 12.5078 47.7137 12.1035 47.3973 11.8223C47.0848 11.541 46.6316 11.3984 46.0379 11.3945H44.3152V14.6289ZM55.407 15.0566H51.7098V18.0801H56.0047V19H50.5848V10.4688H55.9461V11.3945H51.7098V14.1367H55.407V15.0566ZM63.7039 17.8809C63.4148 18.2949 63.0105 18.6055 62.491 18.8125C61.9754 19.0156 61.3738 19.1172 60.6863 19.1172C59.991 19.1172 59.3738 18.9551 58.8348 18.6309C58.2957 18.3027 57.8777 17.8379 57.5809 17.2363C57.2879 16.6348 57.1375 15.9375 57.1297 15.1445V14.4004C57.1297 13.1152 57.4285 12.1191 58.0262 11.4121C58.6277 10.7051 59.4715 10.3516 60.5574 10.3516C61.448 10.3516 62.1648 10.5801 62.7078 11.0371C63.2508 11.4902 63.5828 12.1348 63.7039 12.9707H62.5789C62.368 11.8418 61.6961 11.2773 60.5633 11.2773C59.8094 11.2773 59.2371 11.543 58.8465 12.0742C58.4598 12.6016 58.2644 13.3672 58.2605 14.3711V15.0684C58.2605 16.0254 58.4793 16.7871 58.9168 17.3535C59.3543 17.916 59.9461 18.1973 60.6922 18.1973C61.1141 18.1973 61.4832 18.1504 61.7996 18.0566C62.116 17.9629 62.3777 17.8047 62.5848 17.582V15.666H60.6101V14.752H63.7039V17.8809ZM66.7918 19H65.6668V10.4688H66.7918V19ZM71.368 15.1973C70.4031 14.9199 69.7 14.5801 69.2586 14.1777C68.8211 13.7715 68.6023 13.2715 68.6023 12.6777C68.6023 12.0059 68.8699 11.4512 69.4051 11.0137C69.9441 10.5723 70.6434 10.3516 71.5027 10.3516C72.0887 10.3516 72.6101 10.4648 73.0672 10.6914C73.5281 10.918 73.8836 11.2305 74.1336 11.6289C74.3875 12.0273 74.5144 12.4629 74.5144 12.9355H73.3836C73.3836 12.4199 73.2195 12.0156 72.8914 11.7227C72.5633 11.4258 72.1004 11.2773 71.5027 11.2773C70.948 11.2773 70.5144 11.4004 70.2019 11.6465C69.8934 11.8887 69.7391 12.2266 69.7391 12.6602C69.7391 13.0078 69.8855 13.3027 70.1785 13.5449C70.4754 13.7832 70.9773 14.002 71.6844 14.2012C72.3953 14.4004 72.95 14.6211 73.3484 14.8633C73.7508 15.1016 74.0476 15.3809 74.2391 15.7012C74.4344 16.0215 74.532 16.3984 74.532 16.832C74.532 17.5234 74.2625 18.0781 73.7234 18.4961C73.1844 18.9102 72.4637 19.1172 71.5613 19.1172C70.9754 19.1172 70.4285 19.0059 69.9207 18.7832C69.4129 18.5566 69.0203 18.248 68.743 17.8574C68.4695 17.4668 68.3328 17.0234 68.3328 16.5273H69.4637C69.4637 17.043 69.6531 17.4512 70.032 17.752C70.4148 18.0488 70.9246 18.1973 71.5613 18.1973C72.1551 18.1973 72.6101 18.0762 72.9266 17.834C73.243 17.5918 73.4012 17.2617 73.4012 16.8438C73.4012 16.4258 73.2547 16.1035 72.9617 15.877C72.6687 15.6465 72.1375 15.4199 71.368 15.1973ZM81.8738 11.3945H79.1316V19H78.0125V11.3945H75.2762V10.4688H81.8738V11.3945ZM87.9617 15.0566H84.2645V18.0801H88.5594V19H83.1395V10.4688H88.5008V11.3945H84.2645V14.1367H87.9617V15.0566ZM93.0887 15.5488H91.0848V19H89.9539V10.4688H92.7781C93.7391 10.4688 94.4773 10.6875 94.993 11.125C95.5125 11.5625 95.7723 12.1992 95.7723 13.0352C95.7723 13.5664 95.6277 14.0293 95.3387 14.4238C95.0535 14.8184 94.6551 15.1133 94.1434 15.3086L96.1473 18.9297V19H94.9402L93.0887 15.5488ZM91.0848 14.6289H92.8133C93.3719 14.6289 93.8152 14.4844 94.1434 14.1953C94.4754 13.9062 94.6414 13.5195 94.6414 13.0352C94.6414 12.5078 94.4832 12.1035 94.1668 11.8223C93.8543 11.541 93.4012 11.3984 92.8074 11.3945H91.0848V14.6289Z" fill="white"/>
<defs>
<linearGradient id="paint0_linear" x1="-22.6154" y1="14" x2="135.335" y2="14.5155" gradientUnits="userSpaceOnUse">
<stop stop-color="#5F93CA"/>
<stop offset="1" stop-color="#2EAC9E"/>
</linearGradient>
</defs>
</svg>
