<?xml version="1.0" encoding="utf-8"?>
<!-- Generator: Adobe Illustrator 16.0.0, SVG Export Plug-In . SVG Version: 6.00 Build 0)  -->
<!DOCTYPE svg PUBLIC "-//W3C//DTD SVG 1.1//EN" "http://www.w3.org/Graphics/SVG/1.1/DTD/svg11.dtd">
<svg version="1.1" xmlns="http://www.w3.org/2000/svg" xmlns:xlink="http://www.w3.org/1999/xlink" x="0px" y="0px" width="585.5px"
	 height="208px" viewBox="0 0 585.5 208" enable-background="new 0 0 585.5 208" xml:space="preserve">
<g id="Layer_2" display="none">
	<rect x="-14" display="inline" fill-rule="evenodd" clip-rule="evenodd" width="617.5" height="221.5"/>
</g>
<g id="Layer_1">
	<path fill-rule="evenodd" clip-rule="evenodd" fill="#FFFFFF" d="M583.018,152.337c-5.279,0.01-10.559-0.01-15.837,0.056
		c-1.059,0.014-0.901-0.566-0.9-1.197c0.002-12.84,0.002-25.68,0.001-38.519c0-2.24,0.015-4.48-0.016-6.72
		c-0.16-11.698-4.257-21.988-11.273-31.201c-2.763-3.627-6.519-5.867-10.863-7.052c-6.132-1.673-12.326-1.753-18.492-0.179
		c-6.939,1.772-12.312,5.825-16.177,11.779c-4.995,7.696-7.848,16.088-7.027,25.375c0.849,9.6,4.509,17.979,11.62,24.667
		c1.877,1.765,4.069,3.085,6.459,4.056c2.957,1.203,5.998,2.156,9.041,3.12c4.804,1.521,9.572,0.923,14.327-0.099
		c4.291-0.923,8.272-2.636,11.906-5.125c0.157-0.107,0.323-0.201,0.653-0.406c0,0.79,0,1.408,0,2.027c0,5-0.025,10,0.023,14.999
		c0.01,0.91-0.296,1.303-1.111,1.655c-8.211,3.551-16.79,4.791-25.656,4.022c-17.758-1.539-30.651-10.563-39.133-25.996
		c-4.621-8.406-6.004-17.626-5.666-27.119c0.723-20.314,9.809-35.716,27.423-45.897c7.873-4.55,16.542-5.899,25.55-5.32
		c7.391,0.475,14.45,2.17,20.866,5.978c10.06,5.971,16.522,14.859,20.467,25.711c2.395,6.587,3.453,13.438,3.842,20.41
		c0.021,0.358-0.217,0.804,0.237,1.077c0,0.08,0,0.16,0,0.239c-0.261,0.556-0.063,1.144-0.124,1.714
		c0.001,15.514,0.002,31.026-0.007,46.539C583.15,151.399,583.293,151.892,583.018,152.337z"/>
	<path fill-rule="evenodd" clip-rule="evenodd" fill="#E9EBEC" d="M2.442,108.203l-0.101,0.003L2.24,108.2c0-1.04,0-2.08,0-3.12
		c0.067-0.007,0.135-0.008,0.203-0.003C3.063,106.119,3.063,107.161,2.442,108.203z"/>
	<path fill-rule="evenodd" clip-rule="evenodd" fill="#FFFFFF" d="M309.493,131.215c0,5.98-0.016,11.815,0.02,17.649
		c0.005,0.798-0.516,0.886-1.015,1.091c-5.208,2.137-10.627,3.45-16.22,3.996c-8.077,0.789-16.109,0.482-23.795-2.308
		c-17.273-6.27-28.066-18.411-31.484-36.521c-3.083-16.336,0.378-31.518,9.609-45.334c4.259-6.375,9.923-11.089,17.116-13.924
		c6.477-2.552,12.998-4.969,19.997-5.536c12.294-0.997,23.306,2.256,32.515,10.616c9.834,8.927,15.544,20.109,17.472,33.244
		c0.542,3.689,0.743,7.393,0.736,11.117c-0.024,13.839,0.139,27.681-0.089,41.517c-0.195,11.858-3.314,22.904-10.779,32.381
		c-8.168,10.368-18.876,16.568-31.865,18.756c-11.064,1.864-21.967,1.146-32.67-2.355c-1.289-0.422-1.671-0.981-1.647-2.331
		c0.095-5.274,0.039-10.551,0.039-15.79c0.306-0.227,0.505-0.017,0.704,0.08c7.936,3.885,16.374,4.941,25.08,4.408
		c7.211-0.441,13.884-2.504,19.755-6.826c7.644-5.627,11.902-13.283,13.422-22.558c0.539-3.285,0.663-6.599,0.661-9.922
		c-0.008-12.439,0.007-24.878-0.007-37.317c-0.008-7.083-1.142-13.944-4.536-20.249c-4.04-7.504-9.613-13.417-18.101-15.754
		c-11.991-3.303-26.08-0.527-34.458,12.827c-6.583,10.492-8.2,21.949-4.787,33.724c3.48,12.008,12.28,18.813,24.275,21.273
		c10.531,2.159,20.491,0.25,29.564-5.703C309.099,131.403,309.206,131.361,309.493,131.215z"/>
	<path fill-rule="evenodd" clip-rule="evenodd" fill="#FFFFFF" d="M411.092,63.563c1.85-1.857,3.564-3.872,5.615-5.543
		c7.223-5.886,15.573-7.983,24.68-6.926c9.808,1.139,17.902,5.598,23.931,13.507c3.338,4.38,4.816,9.584,6.112,14.831
		c0.829,3.353,1.125,6.77,1.123,10.222c-0.011,20.479-0.014,40.958,0.021,61.436c0.002,1.056-0.244,1.321-1.305,1.307
		c-4.719-0.064-9.439-0.074-14.158,0.006c-1.132,0.019-1.264-0.355-1.263-1.339c0.021-21.238,0.015-42.478-0.006-63.716
		c-0.003-2.892-0.446-5.726-1.375-8.478c-1.695-5.022-5.049-8.292-10.161-9.782c-4.181-1.219-8.389-1.815-12.608-0.376
		c-6.117,2.086-9.346,6.793-11.11,12.712c-0.736,2.472-0.869,5.031-0.869,7.597c0.001,20.639-0.013,41.278,0.035,61.917
		c0.003,1.258-0.357,1.468-1.508,1.452c-4.759-0.067-9.52-0.06-14.278-0.003c-1.019,0.012-1.314-0.193-1.313-1.278
		c0.039-20.719,0.023-41.438,0.032-62.157c0.002-4.166-0.555-8.207-2.535-11.943c-3.775-7.125-9.899-9.691-17.298-9.021
		c-10.361,0.938-15.341,9.042-16.297,16.858c-0.199,1.632-0.24,3.267-0.24,4.908c0.005,20.439-0.004,40.878,0.025,61.317
		c0.001,0.989-0.143,1.341-1.26,1.323c-4.798-0.077-9.599-0.037-14.398-0.027c-0.593,0.001-1.017,0.054-1.015-0.827
		c0.047-21.799-0.168-43.601,0.149-65.395c0.26-17.852,13.695-32.662,31.377-34.971c11.797-1.541,21.767,2.079,29.215,11.699
		C410.6,63.117,410.721,63.44,411.092,63.563z"/>
	<path fill-rule="evenodd" clip-rule="evenodd" fill="#FFFFFF" d="M2.442,110.271c0-1.042,0-2.084,0.001-3.126
		c0.313-9.237,2.449-18.007,6.819-26.18C16.35,67.71,27.598,60.1,42.18,57.522c14.007-2.476,26.821,0.634,38.042,9.574
		c6.719,5.354,11.376,12.236,14.667,20.112c0.318,0.762-0.109,0.99-0.523,1.337c-9.153,7.688-18.307,15.373-27.461,23.061
		c-7.317,6.145-14.639,12.283-21.94,18.445c-0.653,0.552-1.001,0.709-1.637-0.103c-2.785-3.556-5.637-7.06-8.518-10.537
		c-0.576-0.695-0.491-0.986,0.171-1.551c12.608-10.723,25.184-21.485,37.797-32.201c0.795-0.676,0.703-1.055,0.144-1.787
		c-6.933-9.073-18.417-12.598-29.781-8.536c-12.892,4.608-21.425,13.411-24.227,27.156c-3.34,16.389,6.576,34.131,22.044,39.286
		c7.245,2.414,14.556,2.141,21.791-0.172c2.598-0.829,4.744-2.454,6.661-4.356c3.552-3.523,6.854-7.259,9.549-11.59
		c4.313,2.874,8.651,5.774,13.005,8.653c0.663,0.438,0.209,0.825,0.014,1.196c-2.987,5.662-6.92,10.55-12.037,14.426
		c-9.892,7.494-21.078,10.51-33.403,9.623c-8.625-0.619-16.66-2.974-23.669-8.153c-9.706-7.173-15.614-16.91-18.702-28.458
		C3.06,118.801,2.601,114.555,2.442,110.271z"/>
	<path fill-rule="evenodd" clip-rule="evenodd" fill="#FFFFFF" d="M193.743,124.977c0,10.038-0.011,20.076,0.02,30.114
		c0.002,0.86-0.154,1.145-1.089,1.134c-4.878-0.054-9.758-0.056-14.637,0c-0.973,0.012-1.15-0.287-1.149-1.188
		c0.026-18.036,0.018-36.072,0.021-54.109c0.001-6.167-0.966-12.112-4.276-17.446c-5.759-9.282-14.363-12.9-24.977-12.125
		c-9.949,0.726-17.332,5.545-21.894,14.47c-2.167,4.239-3.011,8.834-3.02,13.558c-0.037,18.516-0.028,37.033,0.002,55.548
		c0.002,1.024-0.196,1.322-1.277,1.307c-4.798-0.071-9.598-0.037-14.396-0.022c-0.616,0.001-1.003,0.015-1.001-0.845
		c0.053-19.596-0.104-39.193,0.173-58.786c0.138-9.743,2.975-18.818,9.183-26.58c6.433-8.042,14.876-12.685,24.961-14.326
		c9.007-1.465,17.973-1.167,26.603,2.015c13.758,5.072,22.014,15.063,25.332,29.245c1.07,4.576,1.421,9.233,1.422,13.922
		C193.743,108.899,193.743,116.938,193.743,124.977z"/>
	<path fill-rule="evenodd" clip-rule="evenodd" fill="#FFFFFF" d="M227.332,106.419c0,16.152-0.012,32.305,0.028,48.457
		c0.002,1.108-0.292,1.363-1.367,1.35c-4.717-0.061-9.436-0.047-14.153-0.008c-0.884,0.008-1.212-0.146-1.211-1.145
		c0.03-32.465,0.029-64.93,0.002-97.395c0-0.92,0.25-1.116,1.132-1.107c4.757,0.046,9.516,0.068,14.272-0.012
		c1.173-0.02,1.318,0.387,1.316,1.402C227.324,74.114,227.332,90.267,227.332,106.419z"/>
	<path fill-rule="evenodd" clip-rule="evenodd" fill="#FFFFFF" d="M206.602,19.035c0.063-6.185,3.776-11.483,8.997-13.053
		C223.115,3.721,231,9.223,231.68,17.175c0.44,5.149-1.067,9.5-5.312,12.616c-3.75,2.754-7.937,3.152-12.133,1.288
		c-4.361-1.938-6.834-5.483-7.507-10.232C206.633,20.177,206.632,19.493,206.602,19.035z"/>
</g>
</svg>
