<?xml version="1.0" encoding="utf-8"?>
<!-- Generator: Adobe Illustrator 18.1.1, SVG Export Plug-In . SVG Version: 6.00 Build 0)  -->
<svg version="1.1" id="Layer_1" xmlns="http://www.w3.org/2000/svg" xmlns:xlink="http://www.w3.org/1999/xlink" x="0px" y="0px"
	 viewBox="0 0 998 216" enable-background="new 0 0 998 216" xml:space="preserve">
<g>
	<path fill="#D71A27" d="M252.658,67.197c1.513-0.329,3.02-0.57,4.534-0.734c1.51-0.159,3.179-0.239,5.017-0.239
		c1.831,0,3.451,0.079,4.853,0.239c1.402,0.164,2.859,0.405,4.371,0.734c0.326,0.539,0.619,1.317,0.891,2.342
		c0.267,1.026,0.51,2.107,0.726,3.239c0.216,1.133,0.406,2.24,0.57,3.315c0.158,1.082,0.292,2.002,0.401,2.757
		c1.076-1.623,2.374-3.241,3.885-4.86c1.511-1.616,3.262-3.076,5.26-4.369c1.994-1.294,4.231-2.348,6.716-3.159
		c2.482-0.809,5.231-1.211,8.254-1.211c9.494,0,16.645,2.591,21.446,7.765c4.799,5.183,7.204,13.331,7.204,24.441v53.413
		c-3.887,0.647-7.717,0.971-11.492,0.971c-3.778,0-7.607-0.324-11.492-0.971v-47.261c0-5.829-0.892-10.3-2.672-13.436
		c-1.78-3.126-4.882-4.692-9.304-4.692c-1.836,0-3.723,0.27-5.667,0.813c-1.94,0.539-3.696,1.59-5.258,3.151
		c-1.567,1.57-2.832,3.753-3.801,6.558c-0.973,2.805-1.457,6.47-1.457,11.005v43.861c-3.884,0.647-7.717,0.971-11.494,0.971
		c-3.778,0-7.607-0.324-11.492-0.971V67.197z"/>
</g>
<g>
	<path fill="#EA1D2B" d="M346.206,67.197c3.884-0.649,7.712-0.973,11.494-0.973c3.775,0,7.605,0.324,11.492,0.973v44.343
		c0,4.425,0.344,8.069,1.05,10.929c0.701,2.856,1.781,5.122,3.235,6.794c1.459,1.673,3.265,2.858,5.425,3.56
		c2.158,0.708,4.693,1.055,7.608,1.055c3.99,0,7.334-0.379,10.032-1.134V67.197c3.887-0.649,7.662-0.973,11.331-0.973
		c3.774,0,7.604,0.324,11.491,0.973v80.439c-3.456,1.188-8.015,2.344-13.677,3.478c-5.663,1.13-11.573,1.698-17.721,1.698
		c-5.503,0-10.791-0.432-15.86-1.294c-5.074-0.865-9.525-2.694-13.356-5.503c-3.831-2.805-6.876-6.903-9.143-12.299
		c-2.267-5.397-3.399-12.569-3.399-21.527V67.197z"/>
</g>
<g>
	<path fill="#F15B2D" d="M497.207,84.676h-10.84c-0.325-1.401-0.568-2.887-0.728-4.455c-0.163-1.562-0.244-3.046-0.244-4.448
		c0-2.916,0.324-5.772,0.972-8.577h33.339v83.674c-3.886,0.647-7.661,0.971-11.33,0.971c-3.559,0-7.284-0.324-11.169-0.971V84.676z
		 M493.808,53.113c-0.648-3.668-0.971-7.283-0.971-10.844c0-3.45,0.323-7.066,0.971-10.844c1.836-0.327,3.806-0.566,5.908-0.73
		c2.109-0.162,4.018-0.24,5.745-0.24c1.834,0,3.833,0.079,5.99,0.24c2.158,0.164,4.153,0.403,5.989,0.73
		c0.324,1.838,0.538,3.641,0.646,5.42c0.106,1.784,0.162,3.59,0.162,5.424c0,1.726-0.056,3.506-0.162,5.343
		c-0.107,1.833-0.322,3.669-0.646,5.5c-1.836,0.32-3.805,0.541-5.908,0.646c-2.106,0.107-4.073,0.16-5.906,0.16
		c-1.727,0-3.673-0.053-5.827-0.16C497.64,53.654,495.644,53.433,493.808,53.113"/>
</g>
<g>
	<path fill="#F47A2D" d="M558.55,114.453c-6.044-1.722-10.764-4.288-14.163-7.686c-3.396-3.402-5.099-8.497-5.099-15.298
		c0-8.195,2.941-14.619,8.822-19.256c5.879-4.644,13.891-6.962,24.035-6.962c4.21,0,8.361,0.381,12.462,1.132
		c4.097,0.755,8.256,1.891,12.464,3.397c-0.222,2.811-0.757,5.725-1.621,8.742c-0.865,3.023-1.888,5.665-3.072,7.932
		c-2.591-1.078-5.453-2.028-8.58-2.831c-3.13-0.81-6.422-1.218-9.874-1.218c-3.668,0-6.533,0.568-8.575,1.701
		c-2.052,1.13-3.08,2.939-3.08,5.421c0,2.375,0.732,4.046,2.189,5.019c1.458,0.973,3.533,1.887,6.232,2.747l9.222,2.755
		c3.021,0.863,5.751,1.917,8.176,3.155c2.428,1.241,4.504,2.78,6.231,4.614c1.73,1.835,3.076,4.102,4.048,6.796
		c0.967,2.698,1.454,5.987,1.454,9.875c0,3.987-0.838,7.713-2.505,11.163c-1.676,3.459-4.108,6.449-7.287,8.987
		c-3.183,2.535-7.042,4.529-11.572,5.986c-4.533,1.457-9.659,2.187-15.375,2.187c-2.59,0-4.967-0.084-7.12-0.244
		c-2.162-0.163-4.24-0.431-6.232-0.81c-1.999-0.378-3.967-0.836-5.91-1.374c-1.939-0.539-4.042-1.239-6.309-2.104
		c0.215-2.914,0.725-5.856,1.536-8.821c0.811-2.968,1.863-5.855,3.158-8.66c3.559,1.403,6.931,2.455,10.116,3.154
		c3.183,0.705,6.499,1.054,9.95,1.054c1.513,0,3.158-0.136,4.939-0.404c1.781-0.269,3.425-0.755,4.937-1.46
		c1.509-0.698,2.779-1.616,3.801-2.75c1.026-1.13,1.538-2.613,1.538-4.451c0-2.587-0.784-4.448-2.342-5.581
		c-1.568-1.136-3.752-2.13-6.557-2.995L558.55,114.453z"/>
</g>
<g>
	<path fill="#F99E2E" d="M619.078,84.676h-10.514l-0.815-3.24l30.269-38.678h3.719v24.439h19.587
		c0.321,1.618,0.533,3.068,0.649,4.367c0.104,1.294,0.157,2.648,0.157,4.044c0,1.514-0.053,2.971-0.157,4.375
		c-0.115,1.401-0.328,2.969-0.649,4.693h-19.587v32.852c0,3.348,0.272,6.045,0.81,8.095c0.54,2.049,1.32,3.669,2.345,4.851
		c1.025,1.191,2.295,1.998,3.805,2.432c1.51,0.431,3.292,0.647,5.342,0.647c1.619,0,3.211-0.135,4.774-0.409
		c1.568-0.265,2.941-0.512,4.128-0.725c0.75,2.051,1.293,4.183,1.618,6.391c0.323,2.214,0.487,4.182,0.487,5.91
		c0,1.185-0.032,2.185-0.088,2.994c-0.049,0.807-0.132,1.59-0.238,2.342c-4.964,1.191-10.091,1.783-15.376,1.783
		c-9.824,0-17.317-2.292-22.496-6.879c-5.183-4.585-7.773-12.057-7.773-22.415V84.676z"/>
</g>
<g>
	<path fill="#FDBB2C" d="M683.333,84.676h-10.848c-0.316-1.401-0.561-2.887-0.725-4.455c-0.164-1.562-0.24-3.046-0.24-4.448
		c0-2.916,0.321-5.772,0.965-8.577h33.348v83.674c-3.888,0.647-7.665,0.971-11.333,0.971c-3.555,0-7.284-0.324-11.167-0.971V84.676z
		 M679.934,53.113c-0.647-3.668-0.972-7.283-0.972-10.844c0-3.45,0.325-7.066,0.972-10.844c1.833-0.327,3.805-0.566,5.912-0.73
		c2.099-0.162,4.015-0.24,5.742-0.24c1.835,0,3.83,0.079,5.988,0.24c2.157,0.164,4.151,0.403,5.992,0.73
		c0.318,1.838,0.537,3.641,0.646,5.42c0.104,1.784,0.159,3.59,0.159,5.424c0,1.726-0.056,3.506-0.159,5.343
		c-0.109,1.833-0.328,3.669-0.646,5.5c-1.841,0.32-3.81,0.541-5.913,0.646c-2.103,0.107-4.073,0.16-5.906,0.16
		c-1.729,0-3.669-0.053-5.827-0.16C683.764,53.654,681.767,53.433,679.934,53.113"/>
</g>
<g>
	<path fill="#E2BF35" d="M784.649,131.125c1.297,2.158,2.371,4.667,3.237,7.528c0.859,2.857,1.297,6.233,1.297,10.116
		c-4.315,1.725-8.367,2.829-12.146,3.315c-3.775,0.483-7.713,0.728-11.814,0.728c-7.011,0-13.109-1.107-18.287-3.317
		c-5.179-2.212-9.468-5.26-12.866-9.145c-3.396-3.883-5.963-8.501-7.688-13.837c-1.725-5.342-2.588-11.142-2.588-17.403
		c0-6.149,0.833-11.868,2.512-17.151c1.665-5.288,4.205-9.931,7.607-13.919c3.396-3.994,7.628-7.126,12.702-9.388
		c5.069-2.267,10.948-3.4,17.643-3.4c2.371,0,4.553,0.058,6.554,0.159c1.99,0.111,3.909,0.327,5.744,0.65
		c1.833,0.323,3.666,0.757,5.497,1.297c1.838,0.539,3.892,1.241,6.159,2.101c0,2.484-0.328,5.264-0.974,8.337
		c-0.651,3.076-1.678,6.015-3.075,8.82c-3.234-1.077-6.069-1.806-8.498-2.187c-2.429-0.373-5.208-0.565-8.334-0.565
		c-6.693,0-11.735,2.184-15.133,6.557c-3.396,4.37-5.097,10.598-5.097,18.69c0,8.743,1.833,15.11,5.502,19.099
		c3.664,4,8.63,5.992,14.889,5.992c1.62,0,3.103-0.027,4.451-0.082c1.351-0.052,2.674-0.189,3.971-0.405
		c1.292-0.215,2.613-0.539,3.959-0.97C781.22,132.313,782.811,131.774,784.649,131.125"/>
</g>
<g>
	<path fill="#B1B042" d="M821.227,116.073c0.43,6.473,2.697,11.166,6.797,14.084c4.1,2.91,9.493,4.363,16.188,4.363
		c3.661,0,7.413-0.346,11.245-1.052c3.828-0.698,7.466-1.695,10.922-2.994c1.191,2.162,2.207,4.751,3.077,7.772
		c0.864,3.021,1.348,6.26,1.457,9.709c-8.418,3.237-17.915,4.857-28.486,4.857c-7.769,0-14.429-1.081-19.991-3.239
		c-5.555-2.153-10.087-5.151-13.594-8.978c-3.505-3.831-6.1-8.387-7.768-13.677c-1.672-5.285-2.508-11.058-2.508-17.32
		c0-6.149,0.861-11.921,2.59-17.318c1.723-5.392,4.29-10.088,7.686-14.078c3.398-3.988,7.607-7.147,12.624-9.47
		c5.019-2.319,10.872-3.478,17.56-3.478c5.83,0,11.013,1.027,15.538,3.075c4.536,2.051,8.392,4.854,11.575,8.413
		c3.179,3.563,5.587,7.802,7.203,12.711c1.616,4.912,2.424,10.17,2.424,15.78c0,2.051-0.077,4.072-0.24,6.069
		c-0.164,1.998-0.351,3.589-0.568,4.774H821.227z M854.084,100.05c-0.222-5.179-1.651-9.359-4.292-12.546
		c-2.644-3.182-6.34-4.774-11.089-4.774c-5.395,0-9.495,1.514-12.298,4.533c-2.803,3.021-4.481,7.285-5.017,12.788H854.084z"/>
</g>
<g>
	<path d="M251.75,176.714l7.939,11.122v-11.122h0.675v11.942h-1.039l-7.753-10.862v10.862h-0.676v-11.942H251.75z"/>
	<path d="M270.009,188.656h-0.676v-1.495c-0.129,0.174-0.27,0.341-0.422,0.499c-0.799,0.804-1.768,1.207-2.905,1.207
		c-1.126,0-2.091-0.402-2.893-1.204c-0.802-0.802-1.203-1.766-1.203-2.893c0-1.137,0.401-2.105,1.203-2.904
		c0.802-0.8,1.767-1.2,2.893-1.2c1.137,0,2.105,0.4,2.905,1.2c0.152,0.157,0.293,0.324,0.422,0.497v-1.039h0.676V188.656z
		 M269.334,185.429v-1.326c-0.124-0.658-0.433-1.235-0.929-1.73c-0.664-0.665-1.464-0.998-2.398-0.998
		c-0.935,0-1.733,0.333-2.395,0.998c-0.662,0.664-0.992,1.464-0.992,2.397c0,0.935,0.331,1.732,0.992,2.391
		c0.661,0.659,1.46,0.988,2.395,0.988c0.934,0,1.734-0.332,2.398-0.996C268.9,186.657,269.21,186.082,269.334,185.429z"/>
	<path d="M272.526,181.324v-3.116h0.667v3.116h1.495V182h-1.495v6.655h-0.667V182h-1.495v-0.676H272.526z"/>
	<path d="M276.77,178.926c0.132,0.129,0.199,0.284,0.199,0.464c0,0.191-0.067,0.352-0.199,0.481
		c-0.133,0.129-0.289,0.194-0.469,0.194c-0.186,0-0.345-0.065-0.477-0.194c-0.132-0.129-0.199-0.29-0.199-0.481
		c0-0.18,0.067-0.335,0.199-0.464c0.132-0.131,0.291-0.195,0.477-0.195C276.482,178.732,276.638,178.796,276.77,178.926z
		 M276.631,181.324v7.332h-0.667v-7.332H276.631z"/>
	<path d="M282.34,180.666c1.138,0,2.104,0.4,2.901,1.2c0.797,0.799,1.195,1.767,1.195,2.904c0,1.127-0.398,2.091-1.195,2.893
		c-0.797,0.802-1.764,1.204-2.901,1.204c-1.126,0-2.09-0.402-2.892-1.204c-0.802-0.802-1.203-1.766-1.203-2.893
		c0-1.137,0.401-2.105,1.203-2.904C280.25,181.065,281.214,180.666,282.34,180.666z M279.945,182.372
		c-0.661,0.664-0.992,1.464-0.992,2.397c0,0.935,0.331,1.732,0.992,2.391c0.661,0.659,1.46,0.988,2.394,0.988
		c0.935,0,1.733-0.329,2.395-0.988c0.661-0.659,0.992-1.456,0.992-2.391c0-0.934-0.331-1.733-0.992-2.397
		c-0.662-0.665-1.46-0.998-2.395-0.998C281.405,181.375,280.607,181.708,279.945,182.372z"/>
	<path d="M288.556,182.963v5.693h-0.675v-7.332h0.675v0.474c0.608-0.609,1.318-0.912,2.128-0.912c0.867,0,1.572,0.271,2.116,0.815
		c0.544,0.544,0.821,1.226,0.832,2.047v4.908h-0.667v-4.839c0-0.626-0.226-1.158-0.676-1.597c-0.451-0.44-0.985-0.659-1.605-0.659
		c-0.614,0-1.146,0.217-1.596,0.651C288.846,182.453,288.668,182.703,288.556,182.963z"/>
	<path d="M303.192,188.656h-0.676v-1.495c-0.129,0.174-0.27,0.341-0.423,0.499c-0.799,0.804-1.768,1.207-2.905,1.207
		c-1.126,0-2.091-0.402-2.893-1.204c-0.802-0.802-1.203-1.766-1.203-2.893c0-1.137,0.401-2.105,1.203-2.904
		c0.802-0.8,1.767-1.2,2.893-1.2c1.137,0,2.105,0.4,2.905,1.2c0.152,0.157,0.293,0.324,0.423,0.497v-1.039h0.676V188.656z
		 M302.516,185.429v-1.326c-0.124-0.658-0.434-1.235-0.929-1.73c-0.664-0.665-1.464-0.998-2.398-0.998
		c-0.935,0-1.733,0.333-2.395,0.998c-0.661,0.664-0.992,1.464-0.992,2.397c0,0.935,0.331,1.732,0.992,2.391
		c0.661,0.659,1.46,0.988,2.395,0.988c0.934,0,1.734-0.332,2.398-0.996C302.083,186.657,302.392,186.082,302.516,185.429z"/>
	<path d="M305.548,176.714v11.942h-0.675v-11.942H305.548z"/>
	<path d="M318.833,176.714h0.676v8.58c-0.124,0.912-0.504,1.687-1.141,2.322c-0.76,0.761-1.678,1.141-2.753,1.141
		c-1.081,0-2.002-0.38-2.762-1.141c-0.76-0.76-1.14-1.677-1.14-2.753v-8.15h0.675v8.15c0,0.884,0.316,1.641,0.946,2.271
		c0.631,0.631,1.391,0.946,2.28,0.946c0.89,0,1.648-0.315,2.276-0.946c0.627-0.63,0.941-1.387,0.941-2.271V176.714z"/>
	<path d="M321.966,182.963v5.693h-0.675v-7.332h0.675v0.474c0.608-0.609,1.318-0.912,2.129-0.912c0.867,0,1.572,0.271,2.115,0.815
		c0.544,0.544,0.821,1.226,0.832,2.047v4.908h-0.667v-4.839c0-0.626-0.226-1.158-0.676-1.597c-0.451-0.44-0.985-0.659-1.604-0.659
		c-0.614,0-1.146,0.217-1.596,0.651C322.257,182.453,322.079,182.703,321.966,182.963z"/>
	<path d="M329.69,178.926c0.132,0.129,0.199,0.284,0.199,0.464c0,0.191-0.066,0.352-0.199,0.481
		c-0.133,0.129-0.289,0.194-0.469,0.194c-0.186,0-0.345-0.065-0.477-0.194c-0.132-0.129-0.198-0.29-0.198-0.481
		c0-0.18,0.066-0.335,0.198-0.464c0.132-0.131,0.291-0.195,0.477-0.195C329.401,178.732,329.557,178.796,329.69,178.926z
		 M329.55,181.324v7.332h-0.667v-7.332H329.55z"/>
	<path d="M337.43,181.324l-3.277,7.332h-0.355l-3.243-7.332h0.785l2.635,6.106l2.669-6.106H337.43z"/>
	<path d="M338.604,184.39c-0.017,0.119-0.025,0.244-0.025,0.38c0,0.935,0.331,1.732,0.992,2.391c0.662,0.659,1.46,0.988,2.395,0.988
		c0.934,0,1.734-0.332,2.399-0.996c0.113-0.113,0.219-0.231,0.321-0.355l0.718,0.254c-0.084,0.141-0.261,0.343-0.532,0.608
		c-0.799,0.804-1.768,1.207-2.905,1.207c-1.126,0-2.09-0.402-2.893-1.204c-0.802-0.802-1.203-1.766-1.203-2.893
		c0-1.137,0.401-2.105,1.203-2.904c0.802-0.8,1.767-1.2,2.893-1.2c1.137,0,2.106,0.4,2.905,1.2c0.704,0.709,1.056,1.55,1.056,2.525
		H338.604z M338.731,183.707h6.436c-0.158-0.512-0.425-0.958-0.802-1.334c-0.665-0.665-1.464-0.998-2.399-0.998
		c-0.935,0-1.734,0.333-2.399,0.998C339.173,182.772,338.894,183.216,338.731,183.707z"/>
	<path d="M349.659,181.916c-0.478,0.073-0.949,0.377-1.41,0.912c-0.462,0.535-0.693,1.075-0.693,1.621v4.207h-0.675v-7.332h0.675
		v1.588c0.282-0.738,0.859-1.287,1.732-1.647L349.659,181.916z"/>
	<path d="M352.396,184.72c-0.568-0.311-0.963-0.574-1.183-0.794c-0.343-0.344-0.515-0.757-0.515-1.242
		c0-0.484,0.171-0.9,0.515-1.246c0.343-0.346,0.757-0.52,1.241-0.52c0.484,0,0.887,0.161,1.208,0.481
		c0.31,0.311,0.465,0.665,0.465,1.064v0.033l-0.583,0.237c-0.051-0.378-0.169-0.662-0.355-0.853
		c-0.185-0.192-0.431-0.286-0.735-0.286c-0.298,0-0.555,0.106-0.768,0.321c-0.214,0.214-0.321,0.47-0.321,0.768
		c0,0.299,0.107,0.555,0.321,0.769c0.124,0.13,0.386,0.321,0.785,0.575c0.636,0.343,1.089,0.65,1.36,0.92
		c0.422,0.428,0.633,0.937,0.633,1.528c0,0.608-0.211,1.125-0.633,1.55c-0.422,0.425-0.935,0.637-1.538,0.637
		c-0.602,0-1.115-0.212-1.537-0.637c-0.422-0.425-0.633-0.891-0.633-1.398l0.667-0.169c0,0.433,0.148,0.798,0.443,1.093
		c0.295,0.295,0.649,0.443,1.06,0.443c0.411,0,0.766-0.148,1.064-0.443c0.298-0.296,0.448-0.655,0.448-1.077
		c0-0.411-0.149-0.763-0.448-1.055C353.201,185.263,352.88,185.029,352.396,184.72z"/>
	<path d="M356.91,178.926c0.132,0.129,0.198,0.284,0.198,0.464c0,0.191-0.066,0.352-0.198,0.481
		c-0.133,0.129-0.289,0.194-0.469,0.194c-0.186,0-0.345-0.065-0.477-0.194c-0.132-0.129-0.198-0.29-0.198-0.481
		c0-0.18,0.066-0.335,0.198-0.464c0.132-0.131,0.291-0.195,0.477-0.195C356.622,178.732,356.778,178.796,356.91,178.926z
		 M356.771,181.324v7.332h-0.667v-7.332H356.771z"/>
	<path d="M359.541,181.324v-3.116h0.667v3.116h1.495V182h-1.495v6.655h-0.667V182h-1.495v-0.676H359.541z"/>
	<path d="M363.705,191.442h-0.752l1.934-4.146l-2.787-5.971h0.752l2.407,5.119l2.416-5.119h0.751L363.705,191.442z"/>
	<path d="M377.547,180.666c1.138,0,2.104,0.4,2.901,1.2c0.797,0.799,1.195,1.767,1.195,2.904c0,1.127-0.398,2.091-1.195,2.893
		c-0.797,0.802-1.764,1.204-2.901,1.204c-1.126,0-2.09-0.402-2.892-1.204c-0.802-0.802-1.204-1.766-1.204-2.893
		c0-1.137,0.401-2.105,1.204-2.904C375.457,181.065,376.42,180.666,377.547,180.666z M375.152,182.372
		c-0.661,0.664-0.992,1.464-0.992,2.397c0,0.935,0.331,1.732,0.992,2.391c0.662,0.659,1.46,0.988,2.394,0.988
		c0.935,0,1.733-0.329,2.395-0.988c0.661-0.659,0.992-1.456,0.992-2.391c0-0.934-0.331-1.733-0.992-2.397
		c-0.662-0.665-1.46-0.998-2.395-0.998C376.612,181.375,375.814,181.708,375.152,182.372z"/>
	<path d="M383.855,182v6.655h-0.675V182h-0.744v-0.676h0.744v-1.984c0.033-0.552,0.245-1.028,0.633-1.427
		c0.411-0.378,0.882-0.567,1.411-0.567c0.281,0,0.577,0.054,0.887,0.161l-0.211,0.6c-0.208-0.09-0.411-0.135-0.608-0.135
		c-0.349,0-0.682,0.141-0.997,0.422c-0.276,0.276-0.422,0.607-0.439,0.996v1.933h1.495V182H383.855z"/>
	<path d="M390.722,188.656v-11.942h0.675v11.266h4.553v0.676H390.722z"/>
	<path d="M397.044,184.39c-0.017,0.119-0.026,0.244-0.026,0.38c0,0.935,0.331,1.732,0.992,2.391c0.662,0.659,1.46,0.988,2.395,0.988
		c0.934,0,1.734-0.332,2.399-0.996c0.112-0.113,0.219-0.231,0.321-0.355l0.717,0.254c-0.084,0.141-0.262,0.343-0.532,0.608
		c-0.8,0.804-1.768,1.207-2.905,1.207c-1.126,0-2.091-0.402-2.893-1.204c-0.802-0.802-1.203-1.766-1.203-2.893
		c0-1.137,0.401-2.105,1.203-2.904c0.802-0.8,1.767-1.2,2.893-1.2c1.137,0,2.105,0.4,2.905,1.2c0.704,0.709,1.056,1.55,1.056,2.525
		H397.044z M397.17,183.707h6.436c-0.158-0.512-0.425-0.958-0.802-1.334c-0.665-0.665-1.464-0.998-2.399-0.998
		c-0.935,0-1.735,0.333-2.399,0.998C397.612,182.772,397.333,183.216,397.17,183.707z"/>
	<path d="M407.407,184.72c-0.568-0.311-0.962-0.574-1.183-0.794c-0.343-0.344-0.515-0.757-0.515-1.242
		c0-0.484,0.171-0.9,0.515-1.246c0.343-0.346,0.757-0.52,1.242-0.52c0.484,0,0.887,0.161,1.208,0.481
		c0.309,0.311,0.465,0.665,0.465,1.064v0.033l-0.583,0.237c-0.051-0.378-0.169-0.662-0.355-0.853
		c-0.185-0.192-0.431-0.286-0.735-0.286c-0.299,0-0.555,0.106-0.768,0.321c-0.214,0.214-0.321,0.47-0.321,0.768
		c0,0.299,0.107,0.555,0.321,0.769c0.124,0.13,0.386,0.321,0.785,0.575c0.636,0.343,1.089,0.65,1.36,0.92
		c0.422,0.428,0.633,0.937,0.633,1.528c0,0.608-0.211,1.125-0.633,1.55c-0.422,0.425-0.935,0.637-1.537,0.637
		c-0.603,0-1.115-0.212-1.537-0.637c-0.422-0.425-0.633-0.891-0.633-1.398l0.667-0.169c0,0.433,0.148,0.798,0.443,1.093
		c0.296,0.295,0.649,0.443,1.06,0.443c0.411,0,0.766-0.148,1.064-0.443c0.298-0.296,0.448-0.655,0.448-1.077
		c0-0.411-0.15-0.763-0.448-1.055C408.212,185.263,407.891,185.029,407.407,184.72z"/>
	<path d="M414.813,180.666c1.137,0,2.104,0.4,2.901,1.2c0.797,0.799,1.195,1.767,1.195,2.904c0,1.127-0.398,2.091-1.195,2.893
		c-0.797,0.802-1.764,1.204-2.901,1.204c-1.126,0-2.09-0.402-2.892-1.204c-0.802-0.802-1.204-1.766-1.204-2.893
		c0-1.137,0.401-2.105,1.204-2.904C412.723,181.065,413.687,180.666,414.813,180.666z M412.419,182.372
		c-0.661,0.664-0.992,1.464-0.992,2.397c0,0.935,0.331,1.732,0.992,2.391c0.661,0.659,1.46,0.988,2.394,0.988
		c0.935,0,1.733-0.329,2.395-0.988c0.661-0.659,0.992-1.456,0.992-2.391c0-0.934-0.331-1.733-0.992-2.397
		c-0.662-0.665-1.46-0.998-2.395-0.998C413.879,181.375,413.08,181.708,412.419,182.372z"/>
	<path d="M421.283,181.324v-3.116h0.667v3.116h1.495V182h-1.495v6.655h-0.667V182h-1.495v-0.676H421.283z"/>
	<path d="M424.508,176.714h0.676v4.991c0.563-0.546,1.244-0.82,2.044-0.82c0.861,0,1.564,0.271,2.107,0.815
		c0.543,0.544,0.824,1.226,0.841,2.047v4.908H429.5v-4.839c0-0.626-0.225-1.158-0.676-1.597c-0.451-0.44-0.983-0.659-1.596-0.659
		c-0.619,0-1.152,0.217-1.596,0.651c-0.203,0.196-0.352,0.402-0.448,0.616v5.828h-0.676V176.714z"/>
	<path d="M435.673,180.666c1.138,0,2.105,0.4,2.902,1.2c0.797,0.799,1.195,1.767,1.195,2.904c0,1.127-0.398,2.091-1.195,2.893
		c-0.797,0.802-1.764,1.204-2.902,1.204c-1.126,0-2.09-0.402-2.892-1.204c-0.802-0.802-1.203-1.766-1.203-2.893
		c0-1.137,0.401-2.105,1.203-2.904C433.584,181.065,434.548,180.666,435.673,180.666z M433.28,182.372
		c-0.662,0.664-0.992,1.464-0.992,2.397c0,0.935,0.331,1.732,0.992,2.391c0.661,0.659,1.46,0.988,2.394,0.988
		c0.935,0,1.733-0.329,2.395-0.988c0.662-0.659,0.992-1.456,0.992-2.391c0-0.934-0.33-1.733-0.992-2.397
		c-0.662-0.665-1.46-0.998-2.395-0.998C434.739,181.375,433.941,181.708,433.28,182.372z"/>
	<path d="M446.374,176.714v11.942h-0.676v-11.942H446.374z"/>
	<path d="M448.916,182.963v5.693h-0.675v-7.332h0.675v0.474c0.609-0.609,1.318-0.912,2.129-0.912c0.867,0,1.572,0.271,2.115,0.815
		c0.544,0.544,0.821,1.226,0.832,2.047v4.908h-0.667v-4.839c0-0.626-0.226-1.158-0.676-1.597c-0.451-0.44-0.985-0.659-1.604-0.659
		c-0.614,0-1.146,0.217-1.597,0.651C449.206,182.453,449.028,182.703,448.916,182.963z"/>
	<path d="M456.593,181.324v-3.116h0.667v3.116h1.495V182h-1.495v6.655h-0.667V182h-1.495v-0.676H456.593z"/>
	<path d="M460.2,184.39c-0.017,0.119-0.025,0.244-0.025,0.38c0,0.935,0.331,1.732,0.992,2.391c0.662,0.659,1.46,0.988,2.394,0.988
		c0.934,0,1.734-0.332,2.399-0.996c0.113-0.113,0.219-0.231,0.321-0.355l0.717,0.254c-0.084,0.141-0.261,0.343-0.532,0.608
		c-0.799,0.804-1.768,1.207-2.905,1.207c-1.126,0-2.09-0.402-2.893-1.204c-0.802-0.802-1.203-1.766-1.203-2.893
		c0-1.137,0.401-2.105,1.203-2.904c0.802-0.8,1.767-1.2,2.893-1.2c1.137,0,2.106,0.4,2.905,1.2c0.704,0.709,1.056,1.55,1.056,2.525
		H460.2z M460.326,183.707h6.436c-0.158-0.512-0.426-0.958-0.802-1.334c-0.665-0.665-1.464-0.998-2.399-0.998
		c-0.935,0-1.735,0.333-2.399,0.998C460.768,182.772,460.49,183.216,460.326,183.707z"/>
	<path d="M471.255,181.916c-0.478,0.073-0.949,0.377-1.41,0.912c-0.462,0.535-0.693,1.075-0.693,1.621v4.207h-0.675v-7.332h0.675
		v1.588c0.281-0.738,0.859-1.287,1.732-1.647L471.255,181.916z"/>
	<path d="M472.767,182.963v5.693h-0.675v-7.332h0.675v0.474c0.608-0.609,1.318-0.912,2.128-0.912c0.867,0,1.572,0.271,2.116,0.815
		c0.544,0.544,0.821,1.226,0.832,2.047v4.908h-0.667v-4.839c0-0.626-0.226-1.158-0.676-1.597c-0.451-0.44-0.985-0.659-1.605-0.659
		c-0.614,0-1.146,0.217-1.596,0.651C473.057,182.453,472.879,182.703,472.767,182.963z"/>
	<path d="M487.403,188.656h-0.675v-1.495c-0.13,0.174-0.271,0.341-0.423,0.499c-0.799,0.804-1.768,1.207-2.905,1.207
		c-1.126,0-2.09-0.402-2.892-1.204c-0.802-0.802-1.204-1.766-1.204-2.893c0-1.137,0.401-2.105,1.204-2.904
		c0.802-0.8,1.767-1.2,2.892-1.2c1.137,0,2.106,0.4,2.905,1.2c0.152,0.157,0.293,0.324,0.423,0.497v-1.039h0.675V188.656z
		 M486.727,185.429v-1.326c-0.125-0.658-0.434-1.235-0.93-1.73c-0.664-0.665-1.464-0.998-2.398-0.998
		c-0.935,0-1.733,0.333-2.395,0.998c-0.662,0.664-0.992,1.464-0.992,2.397c0,0.935,0.33,1.732,0.992,2.391
		c0.661,0.659,1.46,0.988,2.395,0.988c0.935,0,1.734-0.332,2.398-0.996C486.293,186.657,486.603,186.082,486.727,185.429z"/>
	<path d="M489.919,181.324v-3.116h0.667v3.116h1.494V182h-1.494v6.655h-0.667V182h-1.495v-0.676H489.919z"/>
	<path d="M494.164,178.926c0.132,0.129,0.198,0.284,0.198,0.464c0,0.191-0.066,0.352-0.198,0.481
		c-0.133,0.129-0.289,0.194-0.469,0.194c-0.186,0-0.345-0.065-0.478-0.194c-0.132-0.129-0.198-0.29-0.198-0.481
		c0-0.18,0.066-0.335,0.198-0.464c0.132-0.131,0.291-0.195,0.478-0.195C493.875,178.732,494.031,178.796,494.164,178.926z
		 M494.024,181.324v7.332h-0.667v-7.332H494.024z"/>
	<path d="M499.733,180.666c1.137,0,2.104,0.4,2.902,1.2c0.797,0.799,1.194,1.767,1.194,2.904c0,1.127-0.398,2.091-1.194,2.893
		c-0.797,0.802-1.764,1.204-2.902,1.204c-1.126,0-2.09-0.402-2.892-1.204c-0.802-0.802-1.203-1.766-1.203-2.893
		c0-1.137,0.401-2.105,1.203-2.904C497.643,181.065,498.607,180.666,499.733,180.666z M497.339,182.372
		c-0.661,0.664-0.992,1.464-0.992,2.397c0,0.935,0.331,1.732,0.992,2.391c0.662,0.659,1.46,0.988,2.394,0.988
		c0.935,0,1.733-0.329,2.394-0.988c0.662-0.659,0.992-1.456,0.992-2.391c0-0.934-0.331-1.733-0.992-2.397
		c-0.662-0.665-1.459-0.998-2.394-0.998C498.799,181.375,498,181.708,497.339,182.372z"/>
	<path d="M505.949,182.963v5.693h-0.675v-7.332h0.675v0.474c0.608-0.609,1.318-0.912,2.129-0.912c0.867,0,1.572,0.271,2.116,0.815
		c0.543,0.544,0.821,1.226,0.832,2.047v4.908h-0.667v-4.839c0-0.626-0.226-1.158-0.676-1.597c-0.451-0.44-0.985-0.659-1.605-0.659
		c-0.614,0-1.146,0.217-1.597,0.651C506.239,182.453,506.061,182.703,505.949,182.963z"/>
	<path d="M520.585,188.656h-0.676v-1.495c-0.129,0.174-0.27,0.341-0.422,0.499c-0.799,0.804-1.768,1.207-2.905,1.207
		c-1.126,0-2.09-0.402-2.893-1.204c-0.802-0.802-1.203-1.766-1.203-2.893c0-1.137,0.401-2.105,1.203-2.904
		c0.802-0.8,1.767-1.2,2.893-1.2c1.137,0,2.106,0.4,2.905,1.2c0.152,0.157,0.293,0.324,0.422,0.497v-1.039h0.676V188.656z
		 M519.909,185.429v-1.326c-0.124-0.658-0.433-1.235-0.929-1.73c-0.664-0.665-1.464-0.998-2.398-0.998
		c-0.935,0-1.733,0.333-2.395,0.998c-0.661,0.664-0.992,1.464-0.992,2.397c0,0.935,0.331,1.732,0.992,2.391
		c0.661,0.659,1.459,0.988,2.395,0.988c0.935,0,1.734-0.332,2.398-0.996C519.476,186.657,519.785,186.082,519.909,185.429z"/>
	<path d="M522.942,176.714v11.942h-0.675v-11.942H522.942z"/>
	<path d="M532.341,182.042c-0.85-0.282-1.522-0.668-2.015-1.162c-0.492-0.492-0.738-1.09-0.738-1.794
		c0-0.687,0.247-1.279,0.738-1.774c0.493-0.495,1.091-0.743,1.795-0.743c0.692,0,1.29,0.248,1.79,0.743
		c0.27,0.264,0.459,0.56,0.566,0.887l-0.608,0.237c-0.09-0.241-0.236-0.464-0.439-0.667c-0.361-0.36-0.797-0.54-1.309-0.54
		c-0.513,0-0.95,0.18-1.314,0.54c-0.363,0.36-0.544,0.8-0.544,1.318c0,0.511,0.18,0.951,0.54,1.317
		c0.338,0.333,0.805,0.636,1.402,0.912c0.957,0.309,1.762,0.791,2.415,1.444c0.687,0.687,1.031,1.518,1.031,2.491
		c0,0.98-0.345,1.817-1.034,2.508c-0.69,0.693-1.522,1.039-2.496,1.039c-0.98,0-1.813-0.348-2.5-1.047
		c-0.557-0.552-0.889-1.193-0.996-1.926l0.633-0.228c0.068,0.647,0.343,1.211,0.828,1.69c0.563,0.563,1.242,0.844,2.036,0.844
		c0.793,0,1.472-0.281,2.035-0.844c0.563-0.563,0.845-1.242,0.845-2.036c0-0.787-0.281-1.464-0.845-2.026
		C533.662,182.729,533.056,182.335,532.341,182.042z"/>
	<path d="M543.288,186.89l0.708,0.262c-0.129,0.174-0.276,0.343-0.438,0.507c-0.8,0.804-1.769,1.207-2.906,1.207
		c-1.126,0-2.091-0.402-2.893-1.204c-0.802-0.802-1.203-1.768-1.203-2.901c0-1.131,0.401-2.097,1.203-2.896
		c0.802-0.8,1.767-1.2,2.893-1.2c1.137,0,2.106,0.4,2.906,1.2c0.163,0.163,0.309,0.331,0.438,0.507l-0.708,0.261
		c-0.074-0.091-0.152-0.181-0.237-0.271c-0.665-0.658-1.464-0.988-2.399-0.988c-0.929,0-1.725,0.331-2.386,0.993
		c-0.662,0.661-0.992,1.46-0.992,2.394c0,0.935,0.331,1.733,0.992,2.394c0.661,0.663,1.457,0.993,2.386,0.993
		c0.935,0,1.734-0.332,2.399-0.996C543.135,187.068,543.214,186.98,543.288,186.89z"/>
	<path d="M546.246,178.926c0.133,0.129,0.199,0.284,0.199,0.464c0,0.191-0.066,0.352-0.199,0.481
		c-0.132,0.129-0.288,0.194-0.469,0.194c-0.186,0-0.345-0.065-0.477-0.194c-0.133-0.129-0.198-0.29-0.198-0.481
		c0-0.18,0.065-0.335,0.198-0.464c0.132-0.131,0.291-0.195,0.477-0.195C545.958,178.732,546.115,178.796,546.246,178.926z
		 M546.108,181.324v7.332h-0.667v-7.332H546.108z"/>
	<path d="M548.287,184.39c-0.018,0.119-0.026,0.244-0.026,0.38c0,0.935,0.331,1.732,0.993,2.391
		c0.662,0.659,1.459,0.988,2.394,0.988c0.935,0,1.734-0.332,2.399-0.996c0.112-0.113,0.219-0.231,0.321-0.355l0.718,0.254
		c-0.084,0.141-0.262,0.343-0.532,0.608c-0.8,0.804-1.769,1.207-2.906,1.207c-1.127,0-2.09-0.402-2.893-1.204
		c-0.802-0.802-1.204-1.766-1.204-2.893c0-1.137,0.402-2.105,1.204-2.904c0.803-0.8,1.766-1.2,2.893-1.2
		c1.137,0,2.106,0.4,2.906,1.2c0.703,0.709,1.055,1.55,1.055,2.525H548.287z M548.414,183.707h6.436
		c-0.158-0.512-0.426-0.958-0.803-1.334c-0.665-0.665-1.464-0.998-2.399-0.998c-0.935,0-1.733,0.333-2.398,0.998
		C548.856,182.772,548.577,183.216,548.414,183.707z"/>
	<path d="M557.425,182.963v5.693h-0.676v-7.332h0.676v0.474c0.608-0.609,1.317-0.912,2.128-0.912c0.867,0,1.572,0.271,2.116,0.815
		c0.544,0.544,0.82,1.226,0.832,2.047v4.908h-0.667v-4.839c0-0.626-0.225-1.158-0.676-1.597c-0.45-0.44-0.985-0.659-1.604-0.659
		c-0.613,0-1.146,0.217-1.595,0.651C557.714,182.453,557.537,182.703,557.425,182.963z"/>
	<path d="M570.507,186.89l0.709,0.262c-0.129,0.174-0.276,0.343-0.439,0.507c-0.8,0.804-1.768,1.207-2.906,1.207
		c-1.126,0-2.09-0.402-2.893-1.204c-0.802-0.802-1.204-1.768-1.204-2.901c0-1.131,0.402-2.097,1.204-2.896
		c0.803-0.8,1.767-1.2,2.893-1.2c1.138,0,2.106,0.4,2.906,1.2c0.163,0.163,0.309,0.331,0.439,0.507l-0.709,0.261
		c-0.074-0.091-0.152-0.181-0.236-0.271c-0.665-0.658-1.464-0.988-2.399-0.988c-0.929,0-1.724,0.331-2.386,0.993
		c-0.662,0.661-0.993,1.46-0.993,2.394c0,0.935,0.331,1.733,0.993,2.394c0.661,0.663,1.457,0.993,2.386,0.993
		c0.935,0,1.734-0.332,2.399-0.996C570.355,187.068,570.433,186.98,570.507,186.89z"/>
	<path d="M572.829,184.39c-0.017,0.119-0.025,0.244-0.025,0.38c0,0.935,0.331,1.732,0.992,2.391
		c0.661,0.659,1.459,0.988,2.394,0.988c0.935,0,1.734-0.332,2.399-0.996c0.112-0.113,0.219-0.231,0.321-0.355l0.718,0.254
		c-0.084,0.141-0.262,0.343-0.532,0.608c-0.8,0.804-1.768,1.207-2.906,1.207c-1.127,0-2.09-0.402-2.893-1.204
		c-0.802-0.802-1.204-1.766-1.204-2.893c0-1.137,0.402-2.105,1.204-2.904c0.803-0.8,1.766-1.2,2.893-1.2
		c1.137,0,2.106,0.4,2.906,1.2c0.703,0.709,1.055,1.55,1.055,2.525H572.829z M572.956,183.707h6.436
		c-0.158-0.512-0.426-0.958-0.802-1.334c-0.664-0.665-1.464-0.998-2.399-0.998c-0.935,0-1.734,0.333-2.399,0.998
		C573.399,182.772,573.12,183.216,572.956,183.707z"/>
	<path d="M591.629,186.189c-0.063-0.029-0.124-0.06-0.186-0.093c-0.237-0.135-0.536-0.388-0.896-0.76
		c-0.237-0.221-0.405-0.358-0.507-0.414c-0.106-0.057-0.216-0.084-0.329-0.084c-0.063,0-0.124,0.006-0.186,0.017
		c-0.18,0.051-0.315,0.155-0.405,0.312c-0.063,0.113-0.094,0.223-0.094,0.33c0,0.061,0.01,0.123,0.026,0.186
		c0.051,0.18,0.15,0.309,0.295,0.388c0.096,0.051,0.225,0.076,0.389,0.076c0.09,0,0.192-0.008,0.304-0.025l-0.067,0.617
		c-0.125,0.033-0.248,0.051-0.372,0.051c-0.197,0-0.391-0.051-0.583-0.153c-0.298-0.169-0.495-0.427-0.591-0.777
		c-0.034-0.124-0.051-0.245-0.051-0.362c0-0.22,0.059-0.434,0.178-0.642c0.186-0.315,0.452-0.52,0.802-0.616
		c0.124-0.034,0.244-0.051,0.362-0.051c0.22,0,0.431,0.059,0.634,0.177c0.197,0.108,0.456,0.33,0.777,0.667
		c0.288,0.26,0.499,0.428,0.634,0.507c0.152,0.084,0.307,0.127,0.464,0.127c0.09,0,0.18-0.014,0.27-0.042
		c0.26-0.068,0.458-0.219,0.593-0.456c0.084-0.151,0.125-0.306,0.125-0.464c0-0.084-0.014-0.172-0.042-0.262
		c-0.068-0.253-0.217-0.448-0.448-0.583c-0.141-0.079-0.299-0.118-0.473-0.118c-0.124,0-0.257,0.02-0.397,0.059l-0.008-0.667
		c0.141-0.039,0.279-0.059,0.414-0.059c0.264,0,0.523,0.073,0.777,0.219c0.388,0.219,0.642,0.544,0.759,0.971
		c0.04,0.152,0.059,0.299,0.059,0.44c0,0.27-0.071,0.529-0.211,0.777c-0.219,0.389-0.548,0.645-0.988,0.769
		c-0.129,0.033-0.253,0.053-0.371,0.059c-0.163,0.534-0.459,1.017-0.887,1.444c-0.693,0.698-1.526,1.047-2.499,1.047
		c-0.974,0-1.808-0.346-2.501-1.039c-0.692-0.691-1.039-1.528-1.039-2.508c0-0.973,0.341-1.824,1.021-2.55
		c0.468-0.501,1.076-0.878,1.825-1.131c-0.36-0.152-0.728-0.428-1.102-0.828c-0.375-0.4-0.562-0.952-0.562-1.655
		c0-0.687,0.247-1.279,0.74-1.774c0.492-0.495,1.088-0.743,1.786-0.743c0.699,0,1.295,0.248,1.791,0.743
		c0.276,0.264,0.464,0.56,0.565,0.887l-0.599,0.237c-0.09-0.241-0.237-0.464-0.44-0.667c-0.366-0.36-0.805-0.54-1.318-0.54
		c-0.512,0-0.95,0.18-1.313,0.54c-0.362,0.36-0.545,0.8-0.545,1.318c0,0.511,0.177,0.956,0.529,1.33
		c0.351,0.374,0.677,0.618,0.976,0.73c0.298,0.112,0.669,0.172,1.114,0.177v0.634l-0.531,0.008
		c-1.093,0.209-1.911,0.611-2.459,1.209c-0.546,0.597-0.818,1.289-0.818,2.076c0,0.794,0.279,1.473,0.84,2.036
		c0.56,0.563,1.24,0.844,2.04,0.844c0.787,0,1.463-0.281,2.027-0.844C591.254,186.961,591.488,186.595,591.629,186.189z"/>
	<path d="M602.852,177.389v11.267h-0.667v-11.267h-3.022v-0.675h6.714v0.675H602.852z"/>
	<path d="M606.629,184.39c-0.016,0.119-0.025,0.244-0.025,0.38c0,0.935,0.332,1.732,0.992,2.391
		c0.662,0.659,1.459,0.988,2.394,0.988c0.935,0,1.734-0.332,2.399-0.996c0.113-0.113,0.219-0.231,0.321-0.355l0.718,0.254
		c-0.083,0.141-0.261,0.343-0.531,0.608c-0.801,0.804-1.769,1.207-2.907,1.207c-1.126,0-2.089-0.402-2.893-1.204
		c-0.801-0.802-1.203-1.766-1.203-2.893c0-1.137,0.402-2.105,1.203-2.904c0.804-0.8,1.767-1.2,2.893-1.2
		c1.138,0,2.106,0.4,2.907,1.2c0.702,0.709,1.055,1.55,1.055,2.525H606.629z M606.756,183.707h6.437
		c-0.159-0.512-0.427-0.958-0.803-1.334c-0.665-0.665-1.464-0.998-2.399-0.998c-0.935,0-1.734,0.333-2.399,0.998
		C607.199,182.772,606.92,183.216,606.756,183.707z"/>
	<path d="M621.425,186.89l0.709,0.262c-0.129,0.174-0.274,0.343-0.439,0.507c-0.799,0.804-1.768,1.207-2.905,1.207
		c-1.127,0-2.091-0.402-2.893-1.204c-0.804-0.802-1.205-1.768-1.205-2.901c0-1.131,0.402-2.097,1.205-2.896
		c0.801-0.8,1.766-1.2,2.893-1.2c1.136,0,2.106,0.4,2.905,1.2c0.164,0.163,0.309,0.331,0.439,0.507l-0.709,0.261
		c-0.074-0.091-0.152-0.181-0.235-0.271c-0.665-0.658-1.464-0.988-2.399-0.988c-0.93,0-1.724,0.331-2.387,0.993
		c-0.66,0.661-0.993,1.46-0.993,2.394c0,0.935,0.333,1.733,0.993,2.394c0.662,0.663,1.457,0.993,2.387,0.993
		c0.935,0,1.734-0.332,2.399-0.996C621.273,187.068,621.352,186.98,621.425,186.89z"/>
	<path d="M623.37,176.714h0.674v4.991c0.563-0.546,1.244-0.82,2.046-0.82c0.861,0,1.563,0.271,2.105,0.815
		c0.545,0.544,0.824,1.226,0.84,2.047v4.908h-0.674v-4.839c0-0.626-0.226-1.158-0.677-1.597c-0.45-0.44-0.983-0.659-1.595-0.659
		c-0.621,0-1.152,0.217-1.598,0.651c-0.203,0.196-0.351,0.402-0.448,0.616v5.828h-0.674V176.714z"/>
	<path d="M631.341,182.963v5.693h-0.676v-7.332h0.676v0.474c0.607-0.609,1.318-0.912,2.129-0.912c0.866,0,1.572,0.271,2.115,0.815
		c0.545,0.544,0.822,1.226,0.833,2.047v4.908h-0.667v-4.839c0-0.626-0.226-1.158-0.676-1.597c-0.45-0.44-0.986-0.659-1.604-0.659
		c-0.614,0-1.146,0.217-1.595,0.651C631.632,182.453,631.454,182.703,631.341,182.963z"/>
	<path d="M641.957,180.666c1.138,0,2.105,0.4,2.902,1.2c0.796,0.799,1.196,1.767,1.196,2.904c0,1.127-0.399,2.091-1.196,2.893
		c-0.797,0.802-1.764,1.204-2.902,1.204c-1.125,0-2.089-0.402-2.893-1.204c-0.801-0.802-1.203-1.766-1.203-2.893
		c0-1.137,0.402-2.105,1.203-2.904C639.867,181.065,640.832,180.666,641.957,180.666z M639.562,182.372
		c-0.66,0.664-0.993,1.464-0.993,2.397c0,0.935,0.332,1.732,0.993,2.391c0.663,0.659,1.462,0.988,2.394,0.988
		c0.935,0,1.734-0.329,2.394-0.988c0.662-0.659,0.992-1.456,0.992-2.391c0-0.934-0.33-1.733-0.992-2.397
		c-0.66-0.665-1.459-0.998-2.394-0.998C641.024,181.375,640.225,181.708,639.562,182.372z"/>
	<path d="M648.266,176.714v11.942h-0.676v-11.942H648.266z"/>
	<path d="M653.899,180.666c1.136,0,2.103,0.4,2.9,1.2c0.799,0.799,1.196,1.767,1.196,2.904c0,1.127-0.397,2.091-1.196,2.893
		c-0.797,0.802-1.764,1.204-2.9,1.204c-1.127,0-2.092-0.402-2.893-1.204c-0.804-0.802-1.203-1.766-1.203-2.893
		c0-1.137,0.4-2.105,1.203-2.904C651.807,181.065,652.773,180.666,653.899,180.666z M651.505,182.372
		c-0.662,0.664-0.992,1.464-0.992,2.397c0,0.935,0.33,1.732,0.992,2.391c0.661,0.659,1.46,0.988,2.395,0.988
		c0.935,0,1.732-0.329,2.394-0.988c0.66-0.659,0.992-1.456,0.992-2.391c0-0.934-0.332-1.733-0.992-2.397
		c-0.662-0.665-1.459-0.998-2.394-0.998C652.964,181.375,652.165,181.708,651.505,182.372z"/>
	<path d="M666.449,187.203c-0.13,0.157-0.263,0.309-0.405,0.456c-0.801,0.804-1.768,1.207-2.906,1.207
		c-1.126,0-2.089-0.402-2.893-1.204c-0.801-0.802-1.203-1.766-1.203-2.893c0-1.137,0.402-2.103,1.203-2.901
		c0.804-0.797,1.767-1.194,2.893-1.194c1.138,0,2.105,0.397,2.906,1.191c0.15,0.157,0.291,0.324,0.423,0.497v-1.039h0.674v5.693
		c0,1.104-0.39,2.044-1.173,2.82c-0.801,0.806-1.766,1.209-2.898,1.209s-2.1-0.403-2.904-1.209
		c-0.164-0.163-0.311-0.332-0.441-0.506l0.711-0.261c0.071,0.089,0.155,0.177,0.244,0.261c0.658,0.665,1.455,0.997,2.389,0.997
		c0.928,0,1.725-0.332,2.39-0.997C666.064,188.728,666.394,188.019,666.449,187.203z M666.458,184.069
		c-0.129-0.642-0.436-1.207-0.921-1.697c-0.665-0.665-1.464-0.998-2.399-0.998c-0.935,0-1.731,0.333-2.394,0.998
		c-0.66,0.664-0.993,1.464-0.993,2.397c0,0.935,0.332,1.734,0.993,2.395c0.663,0.662,1.459,0.992,2.394,0.992
		c0.935,0,1.734-0.331,2.399-0.996c0.478-0.479,0.785-1.039,0.921-1.681V184.069z"/>
	<path d="M669.481,191.442h-0.751l1.932-4.146l-2.786-5.971h0.752l2.406,5.119l2.417-5.119h0.751L669.481,191.442z"/>
	<path d="M680.324,176.714v11.942h-0.674v-11.942H680.324z"/>
	<path d="M682.869,182.963v5.693h-0.677v-7.332h0.677v0.474c0.607-0.609,1.316-0.912,2.126-0.912c0.868,0,1.572,0.271,2.117,0.815
		c0.542,0.544,0.82,1.226,0.831,2.047v4.908h-0.667v-4.839c0-0.626-0.224-1.158-0.676-1.597c-0.45-0.44-0.984-0.659-1.605-0.659
		c-0.611,0-1.145,0.217-1.595,0.651C683.157,182.453,682.979,182.703,682.869,182.963z"/>
	<path d="M690.291,182.963v5.693h-0.676v-7.332h0.676v0.474c0.607-0.609,1.319-0.912,2.129-0.912c0.866,0,1.572,0.271,2.114,0.815
		c0.545,0.544,0.822,1.226,0.834,2.047v4.908H694.7v-4.839c0-0.626-0.226-1.158-0.676-1.597c-0.45-0.44-0.986-0.659-1.604-0.659
		c-0.614,0-1.145,0.217-1.595,0.651C690.582,182.453,690.404,182.703,690.291,182.963z"/>
	<path d="M700.906,180.666c1.139,0,2.105,0.4,2.902,1.2c0.797,0.799,1.196,1.767,1.196,2.904c0,1.127-0.4,2.091-1.196,2.893
		c-0.797,0.802-1.763,1.204-2.902,1.204c-1.124,0-2.089-0.402-2.893-1.204c-0.801-0.802-1.203-1.766-1.203-2.893
		c0-1.137,0.402-2.105,1.203-2.904C698.817,181.065,699.782,180.666,700.906,180.666z M698.512,182.372
		c-0.66,0.664-0.993,1.464-0.993,2.397c0,0.935,0.333,1.732,0.993,2.391c0.663,0.659,1.462,0.988,2.394,0.988
		c0.935,0,1.734-0.329,2.394-0.988c0.662-0.659,0.993-1.456,0.993-2.391c0-0.934-0.33-1.733-0.993-2.397
		c-0.66-0.665-1.459-0.998-2.394-0.998C699.973,181.375,699.175,181.708,698.512,182.372z"/>
	<path d="M712.487,181.324l-3.276,7.332h-0.355l-3.244-7.332h0.785l2.636,6.106l2.669-6.106H712.487z"/>
	<path d="M721.211,188.656h-0.676v-1.495c-0.13,0.174-0.27,0.341-0.423,0.499c-0.798,0.804-1.768,1.207-2.904,1.207
		c-1.127,0-2.092-0.402-2.893-1.204c-0.803-0.802-1.205-1.766-1.205-2.893c0-1.137,0.402-2.105,1.205-2.904
		c0.801-0.8,1.766-1.2,2.893-1.2c1.136,0,2.106,0.4,2.904,1.2c0.153,0.157,0.293,0.324,0.423,0.497v-1.039h0.676V188.656z
		 M720.535,185.429v-1.326c-0.125-0.658-0.434-1.235-0.928-1.73c-0.665-0.665-1.466-0.998-2.399-0.998
		c-0.935,0-1.733,0.333-2.394,0.998c-0.663,0.664-0.993,1.464-0.993,2.397c0,0.935,0.33,1.732,0.993,2.391
		c0.66,0.659,1.459,0.988,2.394,0.988c0.933,0,1.734-0.332,2.399-0.996C720.1,186.657,720.41,186.082,720.535,185.429z"/>
	<path d="M723.727,181.324v-3.116h0.667v3.116h1.494V182h-1.494v6.655h-0.667V182h-1.496v-0.676H723.727z"/>
	<path d="M727.971,178.926c0.132,0.129,0.198,0.284,0.198,0.464c0,0.191-0.067,0.352-0.198,0.481
		c-0.132,0.129-0.289,0.194-0.469,0.194c-0.187,0-0.346-0.065-0.478-0.194c-0.132-0.129-0.198-0.29-0.198-0.481
		c0-0.18,0.067-0.335,0.198-0.464c0.132-0.131,0.291-0.195,0.478-0.195C727.682,178.732,727.839,178.796,727.971,178.926z
		 M727.832,181.324v7.332h-0.667v-7.332H727.832z"/>
	<path d="M733.542,180.666c1.135,0,2.103,0.4,2.9,1.2c0.798,0.799,1.196,1.767,1.196,2.904c0,1.127-0.397,2.091-1.196,2.893
		c-0.797,0.802-1.764,1.204-2.9,1.204c-1.127,0-2.092-0.402-2.893-1.204c-0.804-0.802-1.203-1.766-1.203-2.893
		c0-1.137,0.4-2.105,1.203-2.904C731.45,181.065,732.415,180.666,733.542,180.666z M731.147,182.372
		c-0.662,0.664-0.992,1.464-0.992,2.397c0,0.935,0.33,1.732,0.992,2.391c0.66,0.659,1.459,0.988,2.395,0.988
		c0.935,0,1.731-0.329,2.394-0.988c0.66-0.659,0.993-1.456,0.993-2.391c0-0.934-0.332-1.733-0.993-2.397
		c-0.663-0.665-1.459-0.998-2.394-0.998C732.607,181.375,731.808,181.708,731.147,182.372z"/>
	<path d="M739.756,182.963v5.693h-0.676v-7.332h0.676v0.474c0.607-0.609,1.318-0.912,2.129-0.912c0.866,0,1.572,0.271,2.115,0.815
		c0.545,0.544,0.822,1.226,0.833,2.047v4.908h-0.667v-4.839c0-0.626-0.226-1.158-0.676-1.597c-0.451-0.44-0.986-0.659-1.604-0.659
		c-0.614,0-1.145,0.217-1.595,0.651C740.047,182.453,739.87,182.703,739.756,182.963z"/>
	<path d="M760.297,186.755l0.515,0.456c-1.166,1.059-2.537,1.587-4.114,1.587c-1.695,0-3.138-0.595-4.327-1.786
		c-1.191-1.191-1.787-2.633-1.787-4.329c0-1.683,0.595-3.122,1.787-4.32c1.189-1.196,2.632-1.795,4.327-1.795
		c1.577,0,2.948,0.532,4.114,1.596l-0.515,0.456c-1.025-0.906-2.223-1.36-3.599-1.36c-1.496,0-2.775,0.53-3.837,1.589
		c-1.062,1.058-1.593,2.336-1.593,3.833c0,1.504,0.531,2.784,1.593,3.842c1.062,1.059,2.341,1.588,3.837,1.588
		C758.074,188.115,759.271,187.661,760.297,186.755z"/>
	<path d="M766.039,180.666c1.138,0,2.105,0.4,2.902,1.2c0.797,0.799,1.196,1.767,1.196,2.904c0,1.127-0.4,2.091-1.196,2.893
		c-0.797,0.802-1.764,1.204-2.902,1.204c-1.125,0-2.09-0.402-2.893-1.204c-0.801-0.802-1.203-1.766-1.203-2.893
		c0-1.137,0.402-2.105,1.203-2.904C763.949,181.065,764.914,180.666,766.039,180.666z M763.644,182.372
		c-0.66,0.664-0.993,1.464-0.993,2.397c0,0.935,0.333,1.732,0.993,2.391c0.663,0.659,1.462,0.988,2.394,0.988
		c0.935,0,1.734-0.329,2.394-0.988c0.663-0.659,0.993-1.456,0.993-2.391c0-0.934-0.33-1.733-0.993-2.397
		c-0.66-0.665-1.459-0.998-2.394-0.998C765.106,181.375,764.307,181.708,763.644,182.372z"/>
	<path d="M772.256,182.963v5.693h-0.677v-7.332h0.677v0.474c0.607-0.609,1.316-0.912,2.126-0.912c0.868,0,1.572,0.271,2.117,0.815
		c0.542,0.544,0.82,1.226,0.831,2.047v4.908h-0.667v-4.839c0-0.626-0.224-1.158-0.676-1.597c-0.451-0.44-0.984-0.659-1.605-0.659
		c-0.611,0-1.145,0.217-1.595,0.651C772.544,182.453,772.366,182.703,772.256,182.963z"/>
	<path d="M779.773,182v6.655h-0.676V182h-0.744v-0.676h0.744v-1.984c0.035-0.552,0.245-1.028,0.635-1.427
		c0.411-0.378,0.88-0.567,1.408-0.567c0.281,0,0.577,0.054,0.889,0.161l-0.213,0.6c-0.208-0.09-0.411-0.135-0.607-0.135
		c-0.351,0-0.681,0.141-0.997,0.422c-0.275,0.276-0.423,0.607-0.439,0.996v1.933h1.494V182H779.773z"/>
	<path d="M782.576,184.39c-0.016,0.119-0.026,0.244-0.026,0.38c0,0.935,0.333,1.732,0.993,2.391
		c0.663,0.659,1.459,0.988,2.394,0.988c0.935,0,1.734-0.332,2.399-0.996c0.113-0.113,0.219-0.231,0.321-0.355l0.718,0.254
		c-0.083,0.141-0.261,0.343-0.531,0.608c-0.801,0.804-1.768,1.207-2.906,1.207c-1.127,0-2.09-0.402-2.893-1.204
		c-0.802-0.802-1.203-1.766-1.203-2.893c0-1.137,0.402-2.105,1.203-2.904c0.803-0.8,1.766-1.2,2.893-1.2
		c1.138,0,2.105,0.4,2.906,1.2c0.702,0.709,1.055,1.55,1.055,2.525H782.576z M782.702,183.707h6.436
		c-0.159-0.512-0.427-0.958-0.803-1.334c-0.665-0.665-1.464-0.998-2.399-0.998c-0.935,0-1.734,0.333-2.399,0.998
		C783.146,182.772,782.866,183.216,782.702,183.707z"/>
	<path d="M793.63,181.916c-0.478,0.073-0.946,0.377-1.408,0.912c-0.462,0.535-0.692,1.075-0.692,1.621v4.207h-0.677v-7.332h0.677
		v1.588c0.281-0.738,0.856-1.287,1.731-1.647L793.63,181.916z"/>
	<path d="M794.804,184.39c-0.016,0.119-0.026,0.244-0.026,0.38c0,0.935,0.333,1.732,0.993,2.391
		c0.663,0.659,1.459,0.988,2.394,0.988c0.935,0,1.734-0.332,2.399-0.996c0.113-0.113,0.219-0.231,0.321-0.355l0.718,0.254
		c-0.083,0.141-0.26,0.343-0.53,0.608c-0.802,0.804-1.769,1.207-2.907,1.207c-1.127,0-2.089-0.402-2.892-1.204
		c-0.801-0.802-1.203-1.766-1.203-2.893c0-1.137,0.402-2.105,1.203-2.904c0.803-0.8,1.766-1.2,2.892-1.2
		c1.138,0,2.106,0.4,2.907,1.2c0.701,0.709,1.055,1.55,1.055,2.525H794.804z M794.932,183.707h6.436
		c-0.159-0.512-0.427-0.958-0.803-1.334c-0.665-0.665-1.464-0.998-2.399-0.998c-0.935,0-1.734,0.333-2.398,0.998
		C795.375,182.772,795.095,183.216,794.932,183.707z"/>
	<path d="M803.942,182.963v5.693h-0.676v-7.332h0.676v0.474c0.607-0.609,1.318-0.912,2.129-0.912c0.866,0,1.572,0.271,2.115,0.815
		c0.544,0.544,0.822,1.226,0.833,2.047v4.908h-0.667v-4.839c0-0.626-0.226-1.158-0.676-1.597c-0.45-0.44-0.986-0.659-1.604-0.659
		c-0.614,0-1.146,0.217-1.596,0.651C804.233,182.453,804.055,182.703,803.942,182.963z"/>
	<path d="M817.026,186.89l0.709,0.262c-0.13,0.174-0.275,0.343-0.439,0.507c-0.799,0.804-1.768,1.207-2.904,1.207
		c-1.127,0-2.091-0.402-2.893-1.204c-0.803-0.802-1.205-1.768-1.205-2.901c0-1.131,0.402-2.097,1.205-2.896
		c0.802-0.8,1.766-1.2,2.893-1.2c1.136,0,2.106,0.4,2.904,1.2c0.164,0.163,0.309,0.331,0.439,0.507l-0.709,0.261
		c-0.074-0.091-0.152-0.181-0.235-0.271c-0.665-0.658-1.464-0.988-2.399-0.988c-0.93,0-1.724,0.331-2.387,0.993
		c-0.66,0.661-0.993,1.46-0.993,2.394c0,0.935,0.333,1.733,0.993,2.394c0.663,0.663,1.457,0.993,2.387,0.993
		c0.935,0,1.734-0.332,2.399-0.996C816.873,187.068,816.952,186.98,817.026,186.89z"/>
	<path d="M819.348,184.39c-0.018,0.119-0.025,0.244-0.025,0.38c0,0.935,0.33,1.732,0.992,2.391c0.66,0.659,1.459,0.988,2.394,0.988
		c0.935,0,1.734-0.332,2.398-0.996c0.111-0.113,0.219-0.231,0.322-0.355l0.718,0.254c-0.085,0.141-0.263,0.343-0.533,0.608
		c-0.799,0.804-1.769,1.207-2.904,1.207c-1.127,0-2.092-0.402-2.893-1.204c-0.803-0.802-1.205-1.766-1.205-2.893
		c0-1.137,0.402-2.105,1.205-2.904c0.801-0.8,1.766-1.2,2.893-1.2c1.136,0,2.106,0.4,2.904,1.2c0.704,0.709,1.055,1.55,1.055,2.525
		H819.348z M819.475,183.707h6.434c-0.157-0.512-0.424-0.958-0.801-1.334c-0.664-0.665-1.463-0.998-2.398-0.998
		c-0.935,0-1.734,0.333-2.399,0.998C819.916,182.772,819.637,183.216,819.475,183.707z"/>
	<path d="M838.148,186.189c-0.063-0.029-0.123-0.06-0.185-0.093c-0.238-0.135-0.536-0.388-0.896-0.76
		c-0.238-0.221-0.406-0.358-0.508-0.414c-0.106-0.057-0.215-0.084-0.328-0.084c-0.063,0-0.125,0.006-0.187,0.017
		c-0.18,0.051-0.314,0.155-0.404,0.312c-0.062,0.113-0.095,0.223-0.095,0.33c0,0.061,0.009,0.123,0.026,0.186
		c0.051,0.18,0.15,0.309,0.295,0.388c0.097,0.051,0.226,0.076,0.39,0.076c0.09,0,0.192-0.008,0.302-0.025l-0.067,0.617
		c-0.125,0.033-0.247,0.051-0.372,0.051c-0.196,0-0.39-0.051-0.582-0.153c-0.297-0.169-0.496-0.427-0.591-0.777
		c-0.035-0.124-0.051-0.245-0.051-0.362c0-0.22,0.058-0.434,0.178-0.642c0.185-0.315,0.453-0.52,0.801-0.616
		c0.124-0.034,0.245-0.051,0.362-0.051c0.221,0,0.432,0.059,0.635,0.177c0.196,0.108,0.455,0.33,0.776,0.667
		c0.289,0.26,0.499,0.428,0.635,0.507c0.152,0.084,0.307,0.127,0.464,0.127c0.09,0,0.18-0.014,0.27-0.042
		c0.259-0.068,0.457-0.219,0.591-0.456c0.086-0.151,0.128-0.306,0.128-0.464c0-0.084-0.014-0.172-0.042-0.262
		c-0.069-0.253-0.217-0.448-0.448-0.583c-0.141-0.079-0.3-0.118-0.473-0.118c-0.125,0-0.257,0.02-0.397,0.059l-0.009-0.667
		c0.141-0.039,0.279-0.059,0.415-0.059c0.263,0,0.522,0.073,0.776,0.219c0.388,0.219,0.642,0.544,0.76,0.971
		c0.04,0.152,0.06,0.299,0.06,0.44c0,0.27-0.072,0.529-0.212,0.777c-0.219,0.389-0.547,0.645-0.988,0.769
		c-0.129,0.033-0.252,0.053-0.369,0.059c-0.164,0.534-0.46,1.017-0.889,1.444c-0.693,0.698-1.526,1.047-2.498,1.047
		c-0.974,0-1.808-0.346-2.5-1.039c-0.693-0.691-1.039-1.528-1.039-2.508c0-0.973,0.339-1.824,1.02-2.55
		c0.469-0.501,1.076-0.878,1.826-1.131c-0.36-0.152-0.729-0.428-1.104-0.828c-0.374-0.4-0.56-0.952-0.56-1.655
		c0-0.687,0.246-1.279,0.738-1.774c0.492-0.495,1.088-0.743,1.787-0.743c0.698,0,1.295,0.248,1.789,0.743
		c0.277,0.264,0.464,0.56,0.566,0.887l-0.598,0.237c-0.09-0.241-0.238-0.464-0.441-0.667c-0.364-0.36-0.803-0.54-1.316-0.54
		c-0.512,0-0.951,0.18-1.313,0.54c-0.362,0.36-0.545,0.8-0.545,1.318c0,0.511,0.175,0.956,0.529,1.33
		c0.351,0.374,0.676,0.618,0.974,0.73c0.298,0.112,0.67,0.172,1.115,0.177v0.634l-0.531,0.008c-1.094,0.209-1.911,0.611-2.459,1.209
		c-0.547,0.597-0.82,1.289-0.82,2.076c0,0.794,0.279,1.473,0.841,2.036c0.561,0.563,1.24,0.844,2.041,0.844
		c0.787,0,1.463-0.281,2.027-0.844C837.774,186.961,838.007,186.595,838.148,186.189z"/>
	<path d="M852.327,176.714v0.675h-5.296v4.958h5.296v0.675h-5.296v4.958h5.296v0.676h-5.973v-11.942H852.327z"/>
	<path d="M855.68,184.779l-2.154-3.455h0.788l1.757,2.829l1.757-2.829h0.785l-2.154,3.455l2.405,3.877h-0.776l-2.018-3.243
		l-2.02,3.243h-0.776L855.68,184.779z"/>
	<path d="M859.641,181.324h0.674v1.031c0.125-0.169,0.266-0.332,0.423-0.49c0.801-0.794,1.766-1.191,2.897-1.191
		c1.131,0,2.099,0.398,2.898,1.194c0.799,0.798,1.198,1.764,1.198,2.901c0,1.127-0.4,2.091-1.198,2.893
		c-0.799,0.802-1.766,1.204-2.898,1.204c-1.131,0-2.096-0.403-2.897-1.207c-0.157-0.158-0.298-0.321-0.423-0.491v4.283h-0.674
		V181.324z M860.315,184.069v1.403c0.125,0.642,0.432,1.205,0.921,1.689c0.665,0.665,1.464,0.996,2.399,0.996
		c0.935,0,1.734-0.33,2.394-0.992c0.662-0.661,0.992-1.46,0.992-2.395c0-0.934-0.33-1.733-0.992-2.397
		c-0.66-0.665-1.459-0.998-2.394-0.998c-0.935,0-1.734,0.333-2.399,0.998C860.747,182.862,860.44,183.427,860.315,184.069z"/>
	<path d="M872.944,180.666c1.135,0,2.103,0.4,2.9,1.2c0.799,0.799,1.196,1.767,1.196,2.904c0,1.127-0.397,2.091-1.196,2.893
		c-0.797,0.802-1.764,1.204-2.9,1.204c-1.127,0-2.092-0.402-2.893-1.204c-0.804-0.802-1.203-1.766-1.203-2.893
		c0-1.137,0.4-2.105,1.203-2.904C870.852,181.065,871.818,180.666,872.944,180.666z M870.55,182.372
		c-0.663,0.664-0.993,1.464-0.993,2.397c0,0.935,0.33,1.732,0.993,2.391c0.66,0.659,1.459,0.988,2.394,0.988
		c0.935,0,1.731-0.329,2.394-0.988c0.66-0.659,0.993-1.456,0.993-2.391c0-0.934-0.332-1.733-0.993-2.397
		c-0.662-0.665-1.459-0.998-2.394-0.998C872.009,181.375,871.21,181.708,870.55,182.372z"/>
</g>
<g id="shell">
	<path fill-rule="evenodd" clip-rule="evenodd" fill="#00A7E2" d="M108.41,184.712c0,6.18-0.064,12.363,0.042,18.538
		c0.032,1.784-0.388,2.372-2.264,2.288c-16.44-0.724-31.712-5.277-45.828-13.717c-5.65-3.378-10.856-7.352-15.797-11.699
		c-1.139-1.004-1.301-1.592-0.16-2.721c9.119-9.013,18.199-18.067,27.242-27.155c1.021-1.026,1.632-0.912,2.66-0.038
		c9.15,7.778,19.706,12.272,31.7,13.191c1.966,0.15,2.51,0.796,2.462,2.775C108.316,172.352,108.41,178.533,108.41,184.712"/>
	<path fill-rule="evenodd" clip-rule="evenodd" fill="#0074B8" d="M33.753,105.363c-6.256,0-12.518-0.074-18.773,0.049
		c-1.794,0.034-2.182-0.503-2.108-2.198c0.813-18.588,6.521-35.524,17.019-50.86c2.62-3.827,5.512-7.438,8.601-10.904
		c0.883-0.992,1.395-1.027,2.34-0.075c9.091,9.155,18.203,18.29,27.381,27.357c1.25,1.235,0.624,1.924-0.171,2.863
		c-6.899,8.152-11.134,17.513-12.716,28.078c-0.036,0.229-0.095,0.454-0.125,0.684c-0.211,1.601,0.135,3.76-0.77,4.66
		c-1.053,1.046-3.231,0.321-4.916,0.333C44.261,105.389,39.005,105.363,33.753,105.363"/>
	<path fill-rule="evenodd" clip-rule="evenodd" fill="#005EA7" d="M108.41,30.962c0,6.332-0.028,12.663,0.023,18.993
		c0.014,1.349-0.143,1.991-1.801,2.105c-12.153,0.827-22.891,5.264-32.162,13.144c-1.277,1.085-1.898,1.082-3.09-0.127
		c-8.837-8.959-17.73-17.863-26.693-26.693c-1.397-1.375-1.136-2.041,0.151-3.217c14.609-13.371,31.977-20.909,51.285-24.353
		c3.342-0.597,6.701-0.988,10.117-0.993c1.681-0.003,2.251,0.354,2.217,2.151C108.337,18.3,108.41,24.633,108.41,30.962"/>
	<path fill-rule="evenodd" clip-rule="evenodd" fill="#2C4076" d="M153.411,71.973c-1.484-1.377-1.165-2.388,0.263-3.789
		c8.917-8.76,17.738-17.619,26.534-26.5c1.089-1.103,1.685-1.319,2.839-0.025c15.571,17.504,24.061,37.917,25.488,61.305
		c0.118,1.895-0.242,2.469-2.25,2.453c-12.265-0.099-24.537-0.106-36.805,0.002c-2.215,0.019-3.516-0.283-3.176-2.851
		c0.066-0.495-0.207-1.032-0.323-1.552c-0.311-0.215-0.374-0.462-0.096-0.751c0.034-0.845,0.107-1.696-0.389-2.457
		c-0.814-0.647-0.776-1.647-0.981-2.514c-1.804-7.669-4.982-14.684-9.841-20.915C154.116,73.659,153.452,72.975,153.411,71.973"/>
	<path fill-rule="evenodd" clip-rule="evenodd" fill="#0B163E" d="M113.239,184.549c-0.002-6.329,0.054-12.659-0.036-18.984
		c-0.025-1.624,0.521-2.068,2.076-2.192c11.789-0.942,22.223-5.27,31.26-12.884c1.31-1.103,2.07-1.298,3.397,0.047
		c8.886,9.012,17.842,17.953,26.843,26.853c1.158,1.145,1.183,1.708-0.055,2.805c-15.823,14.074-34.125,22.581-55.241,24.898
		c-2.153,0.238-4.302,0.323-6.454,0.451c-1.414,0.085-1.843-0.323-1.823-1.778C113.285,197.359,113.239,190.955,113.239,184.549"/>
	<path fill-rule="evenodd" clip-rule="evenodd" fill="#101B44" d="M208.504,112.957c-1.376,21.461-8.629,40.474-22.19,57.022
		c-1.172,1.43-2.441,2.781-3.613,4.212c-0.714,0.874-1.268,0.833-2.053,0.045c-9.31-9.351-18.633-18.693-28-27.988
		c-1.168-1.157-0.028-1.624,0.461-2.196c5.509-6.504,9.399-13.841,11.557-22.1c0.856-3.285,1.48-6.61,1.665-9.997
		c0.069-1.166,0.374-1.57,1.588-1.565c13.044,0.039,26.087,0.058,39.127-0.005C209.6,110.373,208.121,112.153,208.504,112.957"/>
	<path fill-rule="evenodd" clip-rule="evenodd" fill="#0098D5" d="M33.964,110.431c6.333,0,12.667,0.042,18.999-0.032
		c1.389-0.017,1.885,0.402,1.992,1.783c0.931,12.164,5.466,22.849,13.405,32.085c0.882,1.028,0.671,1.625-0.195,2.487
		c-9.091,9.039-18.16,18.101-27.195,27.198c-0.983,0.987-1.541,1.096-2.549-0.015c-13.282-14.62-21.473-31.675-24.558-51.175
		c-0.542-3.425-0.896-6.875-0.989-10.358c-0.045-1.684,0.523-2.029,2.092-2.01C21.297,110.482,27.63,110.431,33.964,110.431"/>
	<path fill-rule="evenodd" clip-rule="evenodd" fill="#263E94" d="M149.642,65.42c-0.707,0.339-1.265,1.514-2.233,0.402
		c-0.538-0.005-0.825-0.305-0.946-0.806c-8.908-7.766-19.374-11.837-31.043-12.904c-1.769-0.163-2.12-0.701-2.112-2.34
		c0.065-12.589,0.087-25.179-0.018-37.768c-0.016-1.997,0.698-2.227,2.377-2.12c20.841,1.329,39.561,8.216,55.95,21.241
		c1.75,1.391,3.402,2.91,5.164,4.285c1.189,0.925,1.21,1.561,0.083,2.665c-6.122,6.005-12.153,12.097-18.21,18.163
		c-0.27,0.269-0.489,0.584-0.734,0.878c-0.092,0.793-0.542,1.239-1.332,1.35c-0.928,0.645-1.716,1.433-2.361,2.363
		c-0.108,0.788-0.558,1.238-1.343,1.345c-0.932,0.645-1.719,1.433-2.366,2.363C150.45,65.056,150.15,65.343,149.642,65.42"/>
</g>
<g id="atom">
	<path fill-rule="evenodd" clip-rule="evenodd" fill="#005527" d="M164.555,109.219c-0.918,4.75-4.236,7.582-8.046,9.991
		c-4.768,3.02-10.023,4.897-15.566,6.39c0.181,0.844,0.961,1.539,0.744,2.479c-0.755,0.577-1.542,1.106-2.411,1.504
		c-0.227-0.071-0.481-0.199-0.522-0.41c-0.327-1.738-1.27-2.5-3.064-2.061c-0.289,0.071-0.596-0.109-0.859-0.286
		c-0.503-2.194,1.814-2.021,2.615-3.125c0.93-0.433,1.813-0.969,2.776-1.338c4.211-1.455,8.504-2.687,12.477-4.777
		c1.918-1.012,3.685-2.233,5.325-3.628c2.407-2.045,3.707-4.645,3.616-7.867c0.691-0.844,1.495-1.33,2.609-0.802
		c0.325,0.232,0.332,0.563,0.287,0.91C164.852,107.203,164.81,108.21,164.555,109.219"/>
	<path fill-rule="evenodd" clip-rule="evenodd" fill="#005325" d="M113.04,145.723c-2.8-2.08-2.806-2.085-5.507,0.234
		c-3.744,3.217-7.463,6.535-12.105,8.383c-4.246,1.689-8.636,2.96-12.97,0.071c-0.49-1.626,0.749-1.769,1.785-2.084
		c5.034,1.39,9.36-0.527,13.494-3.028c3.899-2.358,7.266-5.41,10.548-8.551c0.992-0.552,1.928-1.22,3-1.604
		c0.768-0.277,1.591-0.644,2.302,0.162c-0.565,1.46-0.486,2.734,0.939,3.72c0.363,0.251,0.56,0.717,0.506,1.217
		C114.529,144.952,113.896,145.49,113.04,145.723"/>
	<path fill-rule="evenodd" clip-rule="evenodd" fill="#54A142" d="M56.377,105.343c0.541-2.62,2.188-4.544,4.099-6.235
		c4.406-3.897,9.708-6.134,15.201-7.976c3.634-1.217,3.646-1.183,3.123-4.782c0.485-0.975,1.223-1.415,2.319-1.106
		c0.708,0.424,0.926,1.157,1.07,1.879c0.235,1.163,1.216,1.398,2.066,1.817c0.753,1.141-0.223,1.5-0.925,1.859
		c-1.11,0.567-2.008,1.344-2.765,2.314c-4.744,1.304-9.334,2.973-13.65,5.383c-2.796,1.561-4.922,3.873-7.194,6.033
		C58.601,104.759,57.631,105.647,56.377,105.343"/>
	<path fill-rule="evenodd" clip-rule="evenodd" fill="#70BE45" d="M77.427,76.158c-0.288-3.515,0.13-6.95,1.404-10.231
		c1.876-4.829,5.912-7.192,11.024-6.386c3.774,0.596,7.264,1.993,10.27,4.439c0.332,1.117-0.217,1.887-1.006,2.563
		c-2.054-0.233-3.537-1.741-5.399-2.43c-1.518-0.56-3.009-1.133-4.639-1.231c-3.999-0.241-6.325,1.394-7.544,5.237
		c-0.676,2.139-0.632,4.387-1.086,6.559C79.655,75.603,78.943,76.704,77.427,76.158"/>
	<path fill-rule="evenodd" clip-rule="evenodd" fill="#004017" d="M143.159,142.918c-0.124,2.516-0.849,4.927-1.534,7.304
		c-0.993,3.445-5.219,6.168-9.023,5.977c-2.637-0.132-5.246-0.589-7.565-2.015c-0.211-1.398,0.881-1.76,1.797-2.261
		c1.532,0.131,2.989,0.659,4.547,0.743c3.942,0.211,5.569-0.734,7.294-4.322c0.68-1.412,0.811-2.979,1.442-4.393
		c0.128-0.192,0.294-0.343,0.488-0.463C141.437,143.211,142.186,142.558,143.159,142.918"/>
	<path fill-rule="evenodd" clip-rule="evenodd" fill="#59A643" d="M111.643,71.055c4.363-4.394,9.204-8.113,15.025-10.393
		c2.819-1.105,5.704-1.783,8.719-0.766c-1.507,0.857-3.354,1.112-4.514,2.575c-4.461,1.623-8.575,3.913-12.526,6.522
		c-1.356,0.04-2.446,0.716-3.564,1.395C113.842,70.958,112.882,71.761,111.643,71.055"/>
	<path fill-rule="evenodd" clip-rule="evenodd" fill="#1E783A" d="M79.136,125.438c-2.799-0.872-5.642-1.613-8.268-2.963
		c-0.541-1.608,0.743-1.799,1.721-2.228c1.946-0.198,3.525,0.98,5.297,1.457c1.391,0.376,2.104,0.03,2.693-1.295
		c0.798-1.791,0.946-3.946,2.724-5.231c0.792-0.256,1.576-0.616,2.417-0.175c0.326,3.23-1.493,5.852-2.473,8.711
		C81.963,124.49,80.403,124.616,79.136,125.438"/>
	<path fill-rule="evenodd" clip-rule="evenodd" fill="#097037" d="M79.136,125.438c0.797-1.69,2.222-1.834,3.821-1.55
		c2.754-0.814,5.304,0.12,7.87,0.914c0.433,1.152,0.017,2.116-0.672,3.021c-1.867,0.297-3.648-0.309-5.439-0.63
		c-1.684-0.304-2.388,0.299-2.709,1.878c-0.237,1.171-0.226,2.482-1.262,3.374c-0.778,0.388-1.549,0.867-2.435,0.269
		C78.249,130.251,79.51,127.937,79.136,125.438"/>
	<path fill-rule="evenodd" clip-rule="evenodd" fill="#55A242" d="M111.643,71.055c1.547-0.198,2.762-1.083,4.042-1.877
		c0.708-0.439,1.484-1.079,2.458-0.551c-1.55,2.235-3.708,3.917-5.449,5.98c-2.023,0.598-3.695,2.103-5.878,2.29
		c-0.429-0.225-0.528-0.663-0.245-0.946c1.148-1.161,0.643-2.361,0.189-3.579c0.357-1.281,1.313-1.429,2.425-1.279
		C110.026,72.539,110.83,71.615,111.643,71.055"/>
	<path fill-rule="evenodd" clip-rule="evenodd" fill="#036230" d="M164.249,105.289c-0.922,0.081-1.671,0.582-2.452,1.004
		c-1.412-2.132-3.526-3.752-4.542-6.18c0.249-0.956,0.471-1.94,1.817-1.76c0.721,0.055,0.724,1.223,1.602,1.037
		C161.888,101.342,163.985,102.761,164.249,105.289"/>
	<path fill-rule="evenodd" clip-rule="evenodd" fill="#006934" d="M78.31,132.715c0.773-0.155,1.546-0.31,2.32-0.465
		c1.129,2.561-0.051,5.09-0.101,7.635c-0.746,1.143-1.686,1.791-3.099,1.171C77.19,138.221,77.553,135.446,78.31,132.715"/>
	<path fill-rule="evenodd" clip-rule="evenodd" fill="#00471E" d="M143.159,142.918c-0.767,0.306-1.532,0.614-2.298,0.922
		c-0.955-1.138-0.564-2.505-0.634-3.788c-0.063-1.152,0.084-2.319-0.257-3.451c-0.129-0.688-0.141-1.366,0.219-2.004
		c0.746-0.683,1.556-1.069,2.556-0.512l-0.006-0.019c0.445,0.734-0.02,1.604,0.349,2.349
		C143.36,138.581,143.432,140.746,143.159,142.918"/>
	<path fill-rule="evenodd" clip-rule="evenodd" fill="#00451C" d="M126.946,152.186c-0.556,0.742-1.541,1.076-1.91,1.998
		c-2.338-0.947-4.501-2.195-6.439-3.817c-0.521-1.626,0.762-1.745,1.755-2.105c2.197,0.686,4.106,1.951,6.108,3.026
		C126.802,151.47,127.092,151.721,126.946,152.186"/>
	<path fill-rule="evenodd" clip-rule="evenodd" fill="#006230" d="M77.429,141.057c0.876-0.309,1.754-0.617,2.632-0.926
		c1.271,2.283,0.647,4.909,1.326,7.297c-0.429,1.301-1.902,0.845-2.669,1.579C77.542,146.477,77.194,143.815,77.429,141.057"/>
	<path fill-rule="evenodd" clip-rule="evenodd" fill="#2D813D" d="M72.799,120.626c-0.794,0.457-1.888,0.608-1.931,1.85
		c-2.332-0.724-4.484-1.814-6.507-3.17c-0.476-1.552,0.538-1.928,1.715-2.185c1.844,0.565,3.558,1.455,5.358,2.142
		C72.06,119.502,72.78,119.737,72.799,120.626"/>
	<path fill-rule="evenodd" clip-rule="evenodd" fill="#004E22" d="M120.326,148.482c-0.552,0.648-1.654,0.794-1.728,1.884
		c-1.938-1.449-3.902-2.863-5.558-4.644c0.42-0.861,1.068-1.412,2.05-1.512C116.964,144.555,119.756,146.831,120.326,148.482"/>
	<path fill-rule="evenodd" clip-rule="evenodd" fill="#2F833D" d="M142.713,83.575c-0.139,0.185-0.281,0.371-0.421,0.556
		c-0.86-0.467-2.06,0.731-2.754-0.568c-0.278-1.727,0.305-3.377,0.429-5.071c0.483-1.577,0.954-3.174,3.201-2.332
		C143.516,78.662,142.71,81.094,142.713,83.575"/>
	<path fill-rule="evenodd" clip-rule="evenodd" fill="#005A2B" d="M78.717,149.006c0.334-1.302,1.089-1.643,2.275-0.994
		c1.422,1.319,2.646,2.783,3.366,4.615c-0.775,0.446-1.833,0.586-1.899,1.784C80.427,153.153,79.266,151.291,78.717,149.006"/>
	<path fill-rule="evenodd" clip-rule="evenodd" fill="#62AD45" d="M81.043,85.433c-0.747,0.305-1.495,0.612-2.242,0.918
		c-0.586-2.104-1.053-4.227-1.013-6.43c0.343-1.5,1.361-1.398,2.483-1.04C81.328,80.97,81.955,83.11,81.043,85.433"/>
	<path fill-rule="evenodd" clip-rule="evenodd" fill="#39893F" d="M66.091,117.423c-0.874,0.354-1.519,0.921-1.73,1.884
		c-1.866-1.199-3.659-2.489-5.078-4.223c-0.093-1.318,0.889-1.475,1.821-1.689C63.196,114.202,65.167,115.165,66.091,117.423"/>
	<path fill-rule="evenodd" clip-rule="evenodd" fill="#005125" d="M142.746,134.085c-0.796,0.165-1.593,0.328-2.389,0.491
		c-1.439-1.493-1.653-3.204-0.896-5.085c0.104-1.474,1.172-1.435,2.227-1.413C142.242,130.045,142.751,132.02,142.746,134.085"/>
	<path fill-rule="evenodd" clip-rule="evenodd" fill="#398B3E" d="M143.168,76.161c-1.466,0.109-2.343,0.89-2.663,2.317
		c-0.356-0.213-0.616-0.573-0.56-0.94c0.329-2.21-0.141-4.423,0.071-6.629c0.457-0.868,1.182-1.464,2.149-1.268
		c0.92,0.186,0.669,1.216,0.93,1.871C143.298,73.06,143.37,74.608,143.168,76.161"/>
	<path fill-rule="evenodd" clip-rule="evenodd" fill="#459341" d="M61.301,113.638c-0.74,0.389-1.624,0.573-2.017,1.446
		c-1.237-1.341-2.471-2.681-2.809-4.574c-0.452-0.914-0.166-1.607,0.645-2.134c0.786-0.516,1.425-0.352,1.926,0.43
		C59.542,110.535,61.355,111.652,61.301,113.638"/>
	<path fill-rule="evenodd" clip-rule="evenodd" fill="#55A143" d="M130.663,62.212c0.966-2.012,2.735-2.392,4.725-2.315
		c1.092,0.011,1.977,0.494,2.76,1.216c0.452,1.396-0.351,1.966-1.513,2.302C134.688,62.804,132.504,63.355,130.663,62.212"/>
	<path fill-rule="evenodd" clip-rule="evenodd" fill="#5EA944" d="M109.186,71.093c-0.701,0.546-1.903,0.339-2.212,1.474
		c-1.887-0.53-3.347-1.554-4.032-3.479c0.007-0.967,0.498-1.592,1.378-1.94C105.813,68.62,107.9,69.363,109.186,71.093"/>
	<path fill-rule="evenodd" clip-rule="evenodd" fill="#69B446" d="M104.321,67.148c-0.245,0.764-1.078,1.241-1.04,2.142
		c-1.949-0.218-3.293-1.269-4.136-3.006c0.328-0.767,0.653-1.536,0.981-2.302C101.66,64.857,103.05,65.923,104.321,67.148"/>
	<path fill-rule="evenodd" clip-rule="evenodd" fill="#4D9942" d="M136.693,63.103c0.64-0.549,1.513-0.928,1.455-1.99
		c1.731,1.222,3.087,2.724,3.618,4.846c-0.787,0.31-1.558,0.675-2.428,0.696C137.991,65.817,137.231,64.543,136.693,63.103"/>
	<path fill-rule="evenodd" clip-rule="evenodd" fill="#459241" d="M139.263,66.493c0.815-0.269,1.449-1.39,2.503-0.534
		c0.85,1.753,1.336,3.596,1.331,5.553c-0.426-1.599-1.385-1.672-2.634-0.912C139.168,69.492,138.913,68.081,139.263,66.493"/>
	<path fill-rule="evenodd" clip-rule="evenodd" fill="#4F9A42" d="M58.714,109.075c-1.902-1.327-1.951,0.241-2.239,1.435
		c-0.793-1.708-0.748-3.432-0.098-5.167c0.875-0.636,1.772-1.188,2.929-0.817C59.527,106.096,59.86,107.683,58.714,109.075"/>
	<path fill-rule="evenodd" clip-rule="evenodd" fill="#6BB745" d="M80.085,78.941c-0.807,0.233-1.686,0.289-2.297,0.981
		c-0.516-1.217-0.432-2.49-0.361-3.764c0.878-0.463,1.755-0.926,2.634-1.391C81.138,76.152,81.116,77.544,80.085,78.941"/>
	<path fill-rule="evenodd" clip-rule="evenodd" fill="#FFFFFF" d="M152.885,62.177"/>
	<path fill-rule="evenodd" clip-rule="evenodd" fill="#FFFFFF" d="M154.229,60.832"/>
	<path fill-rule="evenodd" clip-rule="evenodd" fill="#FFFFFF" d="M152.885,62.177"/>
	<path fill-rule="evenodd" clip-rule="evenodd" fill="#FFFFFF" d="M146.463,65.016"/>
	<path fill-rule="evenodd" clip-rule="evenodd" fill="#FFFFFF" d="M146.463,65.016c0.316,0.268,0.631,0.537,0.946,0.806"/>
	<path fill-rule="evenodd" clip-rule="evenodd" fill="#0F5F2F" d="M164.555,109.219c-0.006-1.008-0.016-2.014-0.02-3.02
		C165.096,107.201,165.05,108.209,164.555,109.219"/>
	<path fill-rule="evenodd" clip-rule="evenodd" fill="#005125" d="M143.089,136.415c-0.638-0.705-0.32-1.553-0.349-2.349
		C143.196,134.798,143.168,135.602,143.089,136.415"/>
	<path fill-rule="evenodd" clip-rule="evenodd" fill="#227A3B" d="M139.924,84.04c0.79,0.041,1.655-1.927,2.368,0.091
		c-0.356,1.975-0.713,3.947-1.068,5.922c-1.489,0.317-2.747,1.151-4.066,1.852c-2.36,0.118-4.639-0.211-6.823-1.135
		c-0.602-1.385,0.563-1.973,1.252-2.776c1.236-0.574,2.428-0.014,3.625,0.181c2.588,0.423,2.691,0.379,3.453-2.058
		C138.913,85.325,138.971,84.408,139.924,84.04"/>
	<path fill-rule="evenodd" clip-rule="evenodd" fill="#0D6F37" d="M145.502,91.454c2.808,0.673,5.471,1.703,7.929,3.229
		c-0.756,0.71-1.435,1.507-2.268,2.142c-2.932-0.636-5.55-2.125-8.371-3.056c-0.446-0.146-0.748-0.522-0.762-1.048
		C142.689,90.929,144.026,91.003,145.502,91.454"/>
	<path fill-rule="evenodd" clip-rule="evenodd" fill="#056833" d="M151.503,96.619c-0.564-1.847,1.05-1.528,1.928-1.936
		c1.849,1.27,4.198,1.775,5.641,3.671c-0.936,0.324-1.15,1.217-1.543,1.965C155.231,99.556,153.037,98.625,151.503,96.619"/>
	<path fill-rule="evenodd" clip-rule="evenodd" fill="#1C763A" d="M145.502,91.454c-1.345-0.016-2.614,0.132-3.303,1.535
		c-1.083,0.118-1.869,0.726-2.521,1.551c-0.921,0.346-1.848,0.726-2.765-0.017c-0.307-1.074-0.038-2.025,0.622-2.891
		c0.836-1.445,1.952-2.238,3.689-1.579C142.594,90.692,144.244,90.471,145.502,91.454"/>
	<path fill-rule="evenodd" clip-rule="evenodd" fill="#00592A" d="M134.836,126.689c-2.317,0.873-4.797,1.086-7.195,1.261
		c-3.559,0.261-6.541,1.066-8.204,4.56c-0.22,0.459-0.705,0.794-1.068,1.186c-0.977,0.729-1.955,1.466-3.3,1.083
		c-0.851-0.735-0.304-1.414,0.183-1.964c1.211-1.37,2.182-2.954,3.611-4.131c2.264-1.193,4.633-2.168,6.883-3.396
		c3.749-0.8,7.5-1.59,11.346-1.764c0.249,0.081,0.445,0.234,0.587,0.455C137.144,125.316,135.177,125.15,134.836,126.689"/>
	<path fill-rule="evenodd" clip-rule="evenodd" fill="#00592A" d="M137.205,115.539c1.78,2.162,1.988,5.025,3.287,7.403
		c-1.06,0.021-1.703,1.162-2.813,1.039l-0.063-0.078c-1.198-2.147-2.019-4.429-2.513-6.834
		C135.507,116.151,135.978,115.32,137.205,115.539"/>
	<path fill-rule="evenodd" clip-rule="evenodd" fill="#005829" d="M108.283,141.102c-1.391-1.663-3.062-3.103-4.079-5.069
		c-0.142-1.217,0.659-1.346,1.561-1.357c1.355,0.596,2.499,1.499,3.404,2.65c0.874,1.115,1.573,0.914,2.405-0.023
		c0.937-1.054,1.478-2.577,3.16-2.801c1.211-0.269,2.425-0.538,3.636-0.806c-1.51,2.054-2.956,4.163-4.874,5.882
		c-1.136-0.746-2.033,0.072-2.92,0.532C109.827,140.496,109.152,141.011,108.283,141.102"/>
	<path fill-rule="evenodd" clip-rule="evenodd" fill="#4D9A41" d="M81.549,95.624c-0.566-0.835-0.853-1.767-0.959-2.762
		c0.156-1.059,0.845-1.576,1.72-2.142c0.684-0.444,1.925-0.371,1.997-1.606c3.505-1.053,7.187-1.065,10.745-1.81
		c1.042-0.219,2.104-0.349,3.155-0.52c-0.416,1.861-2.401,2.242-3.373,3.582c-3.134,0.634-6.292,1.16-9.462,1.569
		c-1.514,0.195-2.028,0.76-1.673,2.195C83.435,95.28,82.779,95.866,81.549,95.624"/>
	<path fill-rule="evenodd" clip-rule="evenodd" fill="#005125" d="M140.484,143.842c-0.004-2.472-0.004-4.944-0.007-7.417
		c0.881,2.432,0.18,4.946,0.385,7.414C140.736,143.84,140.61,143.844,140.484,143.842"/>
	<path fill-rule="evenodd" clip-rule="evenodd" fill="#2A803C" d="M88.823,112.828c-0.593-0.329-0.527-1.25-1.397-1.489
		c-0.56,1.252-1.125,2.511-1.689,3.769c-0.86,0.044-1.635,0.632-2.538,0.387c0.989-2.45,1.977-4.901,2.967-7.351
		c0.974-0.95,2.111-1.281,3.435-0.896c0.455,1.536,1.661,2.848,1.367,4.608C90.393,112.488,89.83,113.149,88.823,112.828"/>
	<path fill-rule="evenodd" clip-rule="evenodd" fill="#036B35" d="M90.823,125.235c1.638,0.301,3.274,0.624,5.079,0.463
		c-0.275-1.249-1.465-1.909-1.433-3.105c-0.112-1.257,0.567-1.715,1.712-1.701c1.853,1.52,2.852,3.835,4.86,5.212
		c-0.063,1.816-1.697,2.039-2.823,2.779c-2.63-0.456-5.264-0.914-7.895-1.37C89.742,126.59,90.606,125.983,90.823,125.235"/>
	<path fill-rule="evenodd" clip-rule="evenodd" fill="#4F9D42" d="M112.463,74.323c0.951,1.235,1.899,2.468,2.851,3.702
		c-0.627,0.669-1.467,0.895-2.311,1.108c-0.156-0.005-0.302-0.05-0.446-0.096c-0.962-0.303-1.133-1.989-2.283-1.632
		c-1.075,0.334-1.715,1.486-2.513,2.31c-1.687,1.744-2.752,4.086-5.04,5.26c-1.092-0.045-2.019,1.189-3.201,0.423
		c2.064-3.151,4.444-6.053,7.043-8.774C108.673,76.223,110.218,74.374,112.463,74.323"/>
	<path fill-rule="evenodd" clip-rule="evenodd" fill="#2C823C" d="M130.21,90.44c-1.798-0.263-3.597-0.526-5.596-0.818
		c0.503,1.036,0.923,1.905,1.343,2.773c-0.614,0.644-1.238,1.276-2.14,1.515c-0.224-0.071-0.479-0.148-0.592-0.332
		c-1.342-2.198-3.171-3.781-5.654-4.564c1.134-1.807,2.605-2.875,4.862-2.239c2.234,0.322,4.469,0.627,6.698,0.97
		c0.826,0.126,1.64,0.338,2.46,0.511C131.606,89.283,130.592,89.661,130.21,90.44"/>
	<path fill-rule="evenodd" clip-rule="evenodd" fill="#086F37" d="M133.832,103.02c1.055-2.788,2.112-5.577,3.168-8.366
		c0.823-0.139,1.643-0.278,2.467-0.418c-1.176,2.746-1.666,5.753-3.198,8.363C135.498,102.972,134.826,103.921,133.832,103.02"/>
	<path fill-rule="evenodd" clip-rule="evenodd" fill="#046632" d="M137.205,115.539c-0.611,0.472-1.222,0.944-1.833,1.415
		c-1.453-1.081-1.341-3.004-2.375-4.401c-1.66,1.64-1.824,4.367-4.044,5.566c-0.875,0.002-1.794,0.472-2.605-0.235
		c0.175-2.966,1.968-5.112,3.687-7.3c1.698-0.135,2.783-2.207,4.748-1.514C135.447,111.283,137.046,113.14,137.205,115.539"/>
	<path fill-rule="evenodd" clip-rule="evenodd" fill="#026A34" d="M134.784,109.072c-1.723,0.14-2.727,2.079-4.599,1.85
		c-0.405-1.808,0.655-3.564,0.183-5.375c0.415-0.911,0.928-1.693,2.112-1.571c0.505,0.272,0.646,0.172,1.353-0.957
		c0.815-0.139,1.624-0.28,2.437-0.42C135.481,104.689,134.633,106.767,134.784,109.072"/>
	<path fill-rule="evenodd" clip-rule="evenodd" fill="#005E2D" d="M128.86,118c-1.243,2.243-2.486,4.488-3.731,6.729
		c-0.309,0.552-0.701,1.12,0.427,1.119c-1.993,1.491-4.328,2.278-6.592,3.211c-2.588-0.043-5.174-0.088-7.76-0.131
		c-0.007-1.429,1.041-2.02,2.077-2.623c0.805-0.252,1.64-0.222,2.468-0.239c0.902,0.002,1.813,0.079,2.696-0.207
		c1.729-0.169,2.901-1.093,3.783-2.567c0.819-1.367,1.627-2.742,2.495-4.078c0.405-0.619,0.691-1.397,1.635-1.385
		C127.165,118.261,128.092,116.968,128.86,118"/>
	<path fill-rule="evenodd" clip-rule="evenodd" fill="#006330" d="M113.049,126.711c-0.615,0.739-1.23,1.478-1.845,2.217h-9.344
		c1.05,1.596,1.94,2.951,2.835,4.306c0.139,1.081-0.073,1.888-1.416,1.811c-1.685-2.054-3.373-4.106-5.06-6.16
		c0.417-1.407,2.13-1.425,2.778-2.586c0.16-0.163,0.284-0.417,0.522-0.433C105.4,125.617,109.27,125.552,113.049,126.711"/>
	<path fill-rule="evenodd" clip-rule="evenodd" fill="#07602F" d="M103.278,135.044c0.847-0.31,1.012-1.155,1.417-1.81
		c0.759,0.371,1.268,0.935,1.393,1.8c-0.837-0.058-1.543,0.125-1.884,1C103.896,135.704,103.587,135.373,103.278,135.044"/>
	<path fill-rule="evenodd" clip-rule="evenodd" fill="#459440" d="M99.519,85.398c1.205-0.078,2.127-1.322,3.468-0.849
		c0.444,1.211,1.47,1.15,2.476,1.148c4.36-0.007,8.717,0.021,13.071-0.034c1.615,1.343,0.178,1.542-0.72,1.67
		c-1.881,0.267-3.791,0.079-5.687,0.115c-0.76,0.015-1.52-0.026-2.265,0.171c-0.789,0.206-0.577,0.736-0.417,1.259
		c-0.472,0.93-1.372,0.832-2.182,0.882c-1.059,0.064-2.133,0.114-3.182,0.004c-2.391-0.252-4.298,0.584-5.857,2.348
		c-1.507,0.269-2.446,1.866-4.108,1.785c-0.889-1.56,0.929-2.527,0.855-3.91c0.288-1.866,2.364-1.926,3.237-3.204
		C98.644,86.323,99.083,85.86,99.519,85.398"/>
	<path fill-rule="evenodd" clip-rule="evenodd" fill="#34873E" d="M89.336,107.219c-1.059,0.307-2.113,0.617-3.171,0.926
		c-0.494-1.479-0.989-2.956-1.484-4.434c-0.109-1.252,0.667-1.639,1.716-1.759c0.937,0.922,1.679,1.066,2.31-0.376
		c0.358-0.822,0.907-1.594,1.67-2.153c1.041-0.274,2.211-1.965,3.034,0.263C92.434,102.4,91.678,105.239,89.336,107.219"/>
	<path fill-rule="evenodd" clip-rule="evenodd" fill="#418F40" d="M86.503,102.122c-0.672,0.457-1.56,0.662-1.822,1.589
		c-0.975-1.83-1.797-3.718-2.285-5.741c0.652-1.17,1.51-1.481,2.649-0.643C85.86,98.823,87.069,100.205,86.503,102.122"/>
	<path fill-rule="evenodd" clip-rule="evenodd" fill="#4D9942" d="M84.709,97.485c-0.93-0.598-1.557,0.251-2.314,0.484
		c-0.521-0.695-0.736-1.503-0.845-2.345c0.685-0.401,1.549-0.578,1.854-1.463C84.769,94.905,85.276,95.985,84.709,97.485"/>
	<path fill-rule="evenodd" clip-rule="evenodd" fill="#3C8C3F" d="M109.495,88.755c-0.528-0.057-1.056-0.117-1.701-0.188
		c0.487-1.319,1.367-1.77,2.635-1.751c2.378,0.032,4.756,0.04,7.135-0.022c0.477-0.013,1.655,0.515,1.176-0.9
		c-1.378-0.418-2.305-1.193-2.206-2.783c0.473-0.706,0.911-1.493,1.981-0.921c1.306,1.528,2.614,3.058,3.918,4.585
		c-1.91,0.09-3.319,1.214-4.745,2.298C114.91,90.175,112.162,90.492,109.495,88.755"/>
	<path fill-rule="evenodd" clip-rule="evenodd" fill="#479441" d="M118.513,82.189c-0.835-0.012-1.243,0.824-1.981,1.003
		c-1.964-0.741-2.972-2.277-3.5-4.212c0.575-0.763,1.373-0.991,2.282-0.955C116.478,79.338,117.665,80.634,118.513,82.189"/>
	<path fill-rule="evenodd" clip-rule="evenodd" fill="#147239" d="M96.301,121.128c-0.946,0.068-1.438,0.703-1.831,1.464
		c-1.267-1.753-2.411-3.577-3.233-5.587c-0.081-1.287,0.592-1.751,1.792-1.644C94.394,117.126,96.337,118.565,96.301,121.128"/>
	<path fill-rule="evenodd" clip-rule="evenodd" fill="#247A3C" d="M93.02,115.568c-0.92,0.079-1.399,0.701-1.784,1.437
		c-1.015-1.271-1.789-2.681-2.414-4.177c0.718-0.254,1.172-1.06,2.051-0.977C92.311,112.672,93.38,113.706,93.02,115.568"/>
	<path fill-rule="evenodd" clip-rule="evenodd" fill="#086F37" d="M130.535,105.412c-1.084-1.989-2.394-3.859-3.142-6.021
		c-0.016-1.236,0.436-1.895,1.783-1.438c1.015,2.055,2.695,3.747,3.303,6.024C131.831,104.455,131.184,104.933,130.535,105.412"/>
	<path fill-rule="evenodd" clip-rule="evenodd" fill="#237A3B" d="M129.177,97.953c-0.921,0.075-1.395,0.703-1.783,1.438
		c-1.251-1.741-2.364-3.563-3.276-5.505c0.227-0.97,0.971-1.306,1.84-1.492C127.029,94.248,128.103,96.099,129.177,97.953"/>
	<path fill-rule="evenodd" clip-rule="evenodd" fill="#006330" d="M115.609,126.627c0.938-0.666,1.987-0.269,2.991-0.316
		C117.665,127.01,116.611,126.583,115.609,126.627"/>
	<path fill-rule="evenodd" clip-rule="evenodd" fill="#419040" d="M97.803,91.938c-1.568,2.57-3.134,5.138-4.703,7.707
		c-0.988-1.58-1.762,0.493-2.677,0.159c1.183-2.014,2.367-4.031,3.549-6.045C95.433,93.536,96.107,91.662,97.803,91.938"/>
</g>
<path id="nucleus" fill-rule="evenodd" clip-rule="evenodd" fill="#6B7F56" d="M110.248,96.982
	c5.894-0.649,11.053,5.125,10.777,10.659c-0.31,6.265-4.535,10.71-10.842,10.704c-6.125-0.006-10.578-4.489-10.585-10.66
	C99.589,101.236,103.819,96.987,110.248,96.982"/>
<g>
	<path d="M249.975,162.233c0,0,9.818-0.102,27.003-0.285c17.183-0.134,41.733-0.323,71.191-0.551
		c29.458-0.132,63.826-0.289,100.648-0.455c36.823-0.061,76.102-0.13,115.38-0.197c39.278,0.067,78.553,0.134,115.379,0.197
		c36.821,0.163,71.19,0.321,100.646,0.455c29.461,0.224,54.009,0.417,71.19,0.547c17.186,0.187,27.005,0.289,27.005,0.289
		s-9.819,0.105-27.005,0.291c-17.181,0.132-41.729,0.321-71.19,0.548c-29.456,0.134-63.826,0.288-100.646,0.455
		c-36.826,0.064-76.101,0.13-115.379,0.198c-39.278-0.07-78.557-0.136-115.38-0.198c-36.822-0.17-71.19-0.325-100.648-0.455
		c-29.458-0.227-54.008-0.416-71.191-0.551C259.794,162.337,249.975,162.233,249.975,162.233"/>
</g>
<g>
	<g>
		<path fill="#55A242" d="M930.515,156.26l3.205,0.012c6.58,0.022,11.76,4.715,13.82,10.697c1.752-6.229,7.134-9.847,12.502-9.829
			l3.031,0.009c10.477,0.036,15.729,8.886,15.699,18.064c-0.033,9.352-4.737,17.997-15.041,17.962c0,0-1.993,0.081-3.809-0.013
			c-5.109-0.018-10.553-3.759-12.349-10.174c-1.667,5.97-6.877,10.801-13.806,10.778l-3.029-0.01
			c-10.133-0.033-15.994-8.021-15.957-18.845C914.816,164.001,920.731,156.228,930.515,156.26z M931.187,188.303l2.512,0.008
			c8.225,0.027,11.626-7.062,11.647-13.21c0.021-6.494-3.593-13.348-11.56-13.374l-2.943-0.01
			c-7.101-0.024-11.795,6.108-11.82,13.296C918.997,182.633,923.308,188.277,931.187,188.303z M960.717,187.97l3.116,0.01
			c7.36,0.024,10.676-6.633,10.697-13.041c0.021-6.062-3.856-12.482-10.955-12.506l-2.858-0.009
			c-7.879-0.026-11.282,7.236-11.301,12.864C949.396,181.263,953.616,187.946,960.717,187.97z"/>
	</g>
	<g>
		<path fill="#55A242" d="M920.182,112.927l-0.054,15.587l52.823,0.178l-2.636-14.384l3.726-0.421l3.922,17.679l-0.007,2.425
			l-57.844-0.195l-0.051,14.547l-4.07-0.014l0.12-35.416L920.182,112.927z"/>
	</g>
	<g>
		<path fill="#55A242" d="M932.646,63.87l28.835,0.097c11.516,0.038,17.634,9.411,17.597,20.062
			c-0.037,10.997-6.215,19.634-17.73,19.596l-28.75-0.097c-11.342-0.038-17.546-9.237-17.511-19.714
			C915.123,72.904,921.043,63.831,932.646,63.87z M933.05,98.075l28.489,0.096c7.014,0.024,13.18-5.15,13.21-14.241
			c0.03-9.006-6.1-14.482-13.46-14.508l-28.404-0.095c-7.36-0.024-13.351,5.323-13.383,14.503
			C919.473,92.92,925.256,98.048,933.05,98.075z"/>
	</g>
	<g>
		<path fill="#55A242" d="M919.891,19.663l18.218,16.341c7.595,6.694,14.854,11.654,25.245,11.689
			c6.582,0.022,11.529-3.858,11.557-12.172c0.026-6.927-3.682-12.049-10.177-12.071l-2.253-0.007l0.018-5.022l2.251,0.007
			c9.611,0.033,14.609,7.41,14.575,17.714c-0.039,11.518-6.813,17.123-16.078,17.092c-12.123-0.04-20.933-6.912-30.86-15.864
			l-11.395-10.603h-0.086l-0.095,27.883l-4.502-0.015l0.118-34.985L919.891,19.663z"/>
	</g>
</g>
<g>
	<rect x="899.641" y="20.191" width="1.182" height="175.848"/>
</g>
<g>
	<path fill="#EF392C" d="M437.653,31.992c3.884-0.65,7.713-0.973,11.491-0.973c3.667,0,7.445,0.323,11.331,0.973v84.971
		c0,3.347,0.185,6.044,0.568,8.096c0.375,2.048,0.971,3.64,1.778,4.771c0.81,1.133,1.86,1.92,3.154,2.351
		c1.296,0.429,2.913,0.643,4.858,0.643c0.862,0,1.804-0.052,2.834-0.16c1.02-0.109,2.017-0.271,2.993-0.484
		c1.183,4.425,1.779,8.736,1.779,12.945v2.345c0,0.702-0.109,1.483-0.325,2.348c-1.726,0.539-3.8,0.912-6.231,1.133
		c-2.428,0.212-4.667,0.326-6.714,0.326c-8.313,0-14.972-2.295-19.99-6.88c-5.019-4.588-7.527-12.057-7.527-22.419V31.992z"/>
</g>
</svg>
