<?xml version="1.0" encoding="utf-8"?>
<!-- Generator: Adobe Illustrator 16.0.0, SVG Export Plug-In . SVG Version: 6.00 Build 0)  -->
<!DOCTYPE svg PUBLIC "-//W3C//DTD SVG 1.1//EN" "http://www.w3.org/Graphics/SVG/1.1/DTD/svg11.dtd">
<svg version="1.1" id="Layer_1" xmlns="http://www.w3.org/2000/svg" xmlns:xlink="http://www.w3.org/1999/xlink" x="0px" y="0px"
	 width="627.564px" height="446.636px" viewBox="0 0 627.564 446.636" enable-background="new 0 0 627.564 446.636"
	 xml:space="preserve" onload="init(evt)">

  <script type="text/ecmascript"><![CDATA[
  	var svgNS = "http://www.w3.org/2000/svg";

	function init(evt)
	{
		if ( window.svgDocument == null )
		{
			svgDocument = evt.target.ownerDocument;
		}
		addRotateTransform('test', 12, 1);
	}

	function addRotateTransform(target_id, speed, direction)
	{
		var element_to_rotate = svgDocument.getElementById(target_id);
		var my_transform = svgDocument.createElementNS(svgNS, "animateTransform");

		var bb = element_to_rotate.getBBox();
		var cx = bb.x + bb.width/2;
		var cy = bb.y + bb.height/2;

		my_transform.setAttributeNS(null, "attributeName", "transform");
		my_transform.setAttributeNS(null, "attributeType", "XML");
		my_transform.setAttributeNS(null, "type", "rotate");
		my_transform.setAttributeNS(null, "dur", speed + "s");
		my_transform.setAttributeNS(null, "repeatCount", "indefinite");
		my_transform.setAttributeNS(null, "from", "0 "+cx+" "+cy);
		my_transform.setAttributeNS(null, "to", 360*direction+" "+cx+" "+cy);

		element_to_rotate.appendChild(my_transform);
		my_transform.beginElement();
	}
  ]]></script>
<g>
	<path fill="#D71A27" d="M6.906,337.636c1.28-0.278,2.555-0.482,3.836-0.621c1.277-0.135,2.69-0.202,4.245-0.202
		c1.549,0,2.919,0.067,4.106,0.202c1.186,0.139,2.419,0.343,3.698,0.621c0.275,0.456,0.523,1.114,0.753,1.981
		c0.226,0.868,0.431,1.782,0.614,2.74c0.183,0.959,0.343,1.896,0.482,2.805c0.134,0.915,0.247,1.693,0.339,2.332
		c0.911-1.373,2.008-2.741,3.287-4.111c1.278-1.367,2.759-2.603,4.45-3.696c1.687-1.095,3.579-1.986,5.682-2.672
		c2.1-0.685,4.426-1.024,6.983-1.024c8.032,0,14.081,2.192,18.143,6.569c4.06,4.385,6.094,11.277,6.094,20.677v45.188
		c-3.288,0.547-6.529,0.821-9.722,0.821c-3.196,0-6.435-0.274-9.722-0.821v-39.982c0-4.932-0.754-8.714-2.261-11.366
		c-1.505-2.645-4.13-3.97-7.871-3.97c-1.553,0-3.149,0.229-4.794,0.688c-1.641,0.456-3.126,1.346-4.449,2.666
		c-1.326,1.328-2.396,3.175-3.216,5.548c-0.823,2.373-1.233,5.474-1.233,9.311v37.106c-3.286,0.547-6.529,0.821-9.724,0.821
		c-3.196,0-6.435-0.274-9.722-0.821V337.636z"/>
</g>
<g>
	<path fill="#EA1D2B" d="M86.047,337.636c3.286-0.549,6.525-0.823,9.724-0.823c3.193,0,6.434,0.274,9.722,0.823v37.514
		c0,3.743,0.292,6.826,0.888,9.246c0.593,2.416,1.506,4.333,2.737,5.747c1.234,1.415,2.762,2.418,4.589,3.012
		c1.826,0.599,3.971,0.893,6.437,0.893c3.375,0,6.204-0.32,8.487-0.959v-55.452c3.288-0.549,6.482-0.823,9.586-0.823
		c3.193,0,6.433,0.274,9.722,0.823v68.051c-2.924,1.005-6.781,1.983-11.571,2.942c-4.791,0.956-9.791,1.437-14.992,1.437
		c-4.656,0-9.129-0.365-13.417-1.095c-4.293-0.731-8.058-2.279-11.299-4.655c-3.241-2.373-5.817-5.84-7.735-10.404
		c-1.918-4.566-2.875-10.634-2.875-18.212V337.636z"/>
</g>
<g>
	<path fill="#F15B2D" d="M213.793,352.423h-9.171c-0.275-1.186-0.48-2.442-0.617-3.769c-0.138-1.321-0.206-2.577-0.206-3.763
		c0-2.467,0.274-4.883,0.823-7.256h28.205v70.788c-3.288,0.547-6.481,0.821-9.585,0.821c-3.011,0-6.162-0.274-9.448-0.821V352.423z
		 M210.917,325.721c-0.548-3.103-0.821-6.161-0.821-9.174c0-2.919,0.273-5.978,0.821-9.174c1.553-0.276,3.22-0.479,4.998-0.617
		c1.785-0.137,3.399-0.203,4.861-0.203c1.551,0,3.242,0.066,5.067,0.203c1.825,0.139,3.514,0.341,5.067,0.617
		c0.274,1.555,0.456,3.08,0.546,4.585c0.09,1.51,0.137,3.037,0.137,4.589c0,1.46-0.047,2.966-0.137,4.521
		c-0.091,1.551-0.272,3.104-0.546,4.653c-1.553,0.271-3.219,0.458-4.998,0.547c-1.781,0.091-3.446,0.136-4.997,0.136
		c-1.461,0-3.107-0.045-4.93-0.136C214.159,326.179,212.471,325.992,210.917,325.721"/>
</g>
<g>
	<path fill="#F47A2D" d="M265.689,377.615c-5.113-1.457-9.106-3.628-11.982-6.502c-2.873-2.878-4.314-7.188-4.314-12.942
		c0-6.933,2.488-12.367,7.463-16.29c4.974-3.929,11.752-5.89,20.334-5.89c3.562,0,7.073,0.322,10.543,0.958
		c3.466,0.639,6.984,1.6,10.544,2.874c-0.188,2.378-0.641,4.843-1.371,7.396c-0.732,2.558-1.597,4.793-2.599,6.711
		c-2.192-0.912-4.613-1.716-7.259-2.396c-2.648-0.686-5.433-1.03-8.354-1.03c-3.104,0-5.526,0.48-7.255,1.439
		c-1.735,0.956-2.605,2.486-2.605,4.586c0,2.009,0.619,3.423,1.852,4.246c1.233,0.823,2.989,1.597,5.272,2.324l7.802,2.331
		c2.556,0.729,4.865,1.622,6.917,2.669c2.054,1.05,3.811,2.352,5.271,3.903c1.463,1.553,2.602,3.471,3.424,5.75
		c0.818,2.282,1.23,5.064,1.23,8.354c0,3.373-0.709,6.525-2.119,9.443c-1.418,2.926-3.475,5.456-6.165,7.603
		c-2.692,2.145-5.957,3.832-9.79,5.064c-3.835,1.232-8.172,1.851-13.008,1.851c-2.191,0-4.202-0.071-6.023-0.207
		c-1.829-0.138-3.587-0.364-5.272-0.685c-1.691-0.32-3.355-0.707-5-1.163c-1.64-0.456-3.419-1.048-5.337-1.779
		c0.182-2.465,0.613-4.954,1.299-7.463c0.687-2.511,1.576-4.953,2.671-7.326c3.011,1.188,5.864,2.077,8.558,2.669
		c2.692,0.597,5.498,0.892,8.417,0.892c1.28,0,2.672-0.115,4.179-0.342c1.507-0.228,2.897-0.639,4.177-1.235
		c1.276-0.591,2.351-1.367,3.216-2.326c0.868-0.956,1.301-2.211,1.301-3.766c0-2.188-0.663-3.763-1.981-4.722
		c-1.326-0.961-3.174-1.802-5.547-2.533L265.689,377.615z"/>
</g>
<g>
	<path fill="#F99E2E" d="M316.895,352.423H308l-0.689-2.741l25.607-32.722h3.146v20.676h16.57c0.271,1.368,0.451,2.596,0.549,3.694
		c0.088,1.095,0.133,2.24,0.133,3.421c0,1.281-0.045,2.514-0.133,3.701c-0.098,1.186-0.277,2.512-0.549,3.971h-16.57v27.793
		c0,2.832,0.23,5.114,0.686,6.849c0.457,1.733,1.117,3.104,1.984,4.104c0.867,1.008,1.941,1.69,3.219,2.058
		c1.277,0.365,2.785,0.548,4.52,0.548c1.369,0,2.717-0.114,4.039-0.346c1.326-0.224,2.488-0.434,3.492-0.613
		c0.635,1.735,1.094,3.539,1.369,5.407c0.273,1.873,0.412,3.538,0.412,5c0,1.003-0.027,1.849-0.074,2.533
		c-0.041,0.683-0.111,1.346-0.201,1.981c-4.199,1.008-8.537,1.509-13.008,1.509c-8.311,0-14.65-1.939-19.031-5.819
		c-4.385-3.879-6.576-10.2-6.576-18.963V352.423z"/>
</g>
<g>
	<path fill="#FDBB2C" d="M371.254,352.423h-9.178c-0.268-1.186-0.475-2.442-0.613-3.769c-0.139-1.321-0.203-2.577-0.203-3.763
		c0-2.467,0.271-4.883,0.816-7.256h28.213v70.788c-3.289,0.547-6.484,0.821-9.588,0.821c-3.008,0-6.162-0.274-9.447-0.821V352.423z
		 M368.379,325.721c-0.547-3.103-0.822-6.161-0.822-9.174c0-2.919,0.275-5.978,0.822-9.174c1.551-0.276,3.219-0.479,5.002-0.617
		c1.775-0.137,3.396-0.203,4.857-0.203c1.553,0,3.24,0.066,5.066,0.203c1.824,0.139,3.512,0.341,5.068,0.617
		c0.27,1.555,0.455,3.08,0.547,4.585c0.088,1.51,0.135,3.037,0.135,4.589c0,1.46-0.047,2.966-0.135,4.521
		c-0.092,1.551-0.277,3.104-0.547,4.653c-1.557,0.271-3.223,0.458-5.002,0.547c-1.779,0.091-3.445,0.136-4.996,0.136
		c-1.463,0-3.104-0.045-4.93-0.136C371.619,326.179,369.93,325.992,368.379,325.721"/>
</g>
<g>
	<path fill="#E2BF35" d="M456.967,391.718c1.098,1.826,2.006,3.948,2.738,6.368c0.727,2.417,1.098,5.273,1.098,8.559
		c-3.65,1.459-7.078,2.394-10.275,2.805c-3.193,0.409-6.525,0.616-9.994,0.616c-5.932,0-11.09-0.937-15.471-2.807
		c-4.381-1.871-8.01-4.449-10.885-7.736c-2.873-3.285-5.045-7.191-6.504-11.706c-1.459-4.52-2.189-9.427-2.189-14.723
		c0-5.202,0.705-10.04,2.125-14.51c1.408-4.474,3.557-8.401,6.436-11.775c2.873-3.379,6.453-6.028,10.746-7.942
		c4.289-1.918,9.262-2.876,14.926-2.876c2.006,0,3.852,0.049,5.545,0.135c1.684,0.094,3.307,0.276,4.859,0.55
		c1.551,0.273,3.102,0.641,4.65,1.097c1.555,0.456,3.293,1.05,5.211,1.777c0,2.102-0.277,4.453-0.824,7.053
		c-0.551,2.603-1.42,5.089-2.602,7.462c-2.736-0.911-5.135-1.527-7.189-1.851c-2.055-0.315-4.406-0.478-7.051-0.478
		c-5.662,0-9.928,1.848-12.803,5.547c-2.873,3.697-4.313,8.966-4.313,15.812c0,7.396,1.551,12.783,4.654,16.157
		c3.1,3.384,7.301,5.069,12.596,5.069c1.371,0,2.625-0.022,3.766-0.069c1.143-0.044,2.262-0.16,3.359-0.343
		c1.094-0.182,2.211-0.456,3.35-0.82C454.066,392.724,455.412,392.268,456.967,391.718"/>
</g>
<g>
	<path fill="#B1B042" d="M487.912,378.985c0.363,5.476,2.281,9.446,5.75,11.915c3.469,2.462,8.031,3.691,13.695,3.691
		c3.098,0,6.271-0.293,9.514-0.89c3.238-0.591,6.316-1.434,9.24-2.533c1.008,1.829,1.867,4.02,2.604,6.575
		c0.73,2.556,1.141,5.296,1.232,8.214c-7.121,2.738-15.156,4.108-24.1,4.108c-6.572,0-12.207-0.914-16.912-2.74
		c-4.699-1.821-8.533-4.357-11.5-7.596c-2.965-3.24-5.16-7.095-6.572-11.57c-1.414-4.471-2.121-9.355-2.121-14.653
		c0-5.202,0.729-10.085,2.191-14.651c1.457-4.562,3.629-8.534,6.502-11.91c2.875-3.374,6.436-6.046,10.68-8.012
		c4.246-1.962,9.197-2.942,14.855-2.942c4.932,0,9.316,0.869,13.145,2.602c3.838,1.735,7.1,4.106,9.793,7.117
		c2.689,3.015,4.727,6.601,6.094,10.753c1.367,4.155,2.051,8.604,2.051,13.35c0,1.735-0.064,3.445-0.203,5.134
		c-0.139,1.69-0.297,3.036-0.48,4.039H487.912z M515.709,365.43c-0.188-4.382-1.396-7.918-3.631-10.614
		c-2.236-2.691-5.363-4.039-9.381-4.039c-4.564,0-8.033,1.281-10.404,3.835c-2.371,2.556-3.791,6.163-4.244,10.818H515.709z"/>
</g>
<g>
	<path d="M6.138,430.287l6.716,9.409v-9.409h0.571v10.103h-0.879l-6.559-9.188v9.188H5.416v-10.103H6.138z"/>
	<path d="M21.585,440.389h-0.572v-1.265c-0.109,0.147-0.229,0.288-0.357,0.422c-0.676,0.681-1.496,1.021-2.458,1.021
		c-0.953,0-1.769-0.34-2.447-1.019s-1.018-1.494-1.018-2.447c0-0.962,0.339-1.781,1.018-2.457c0.679-0.677,1.495-1.015,2.447-1.015
		c0.962,0,1.781,0.338,2.458,1.015c0.129,0.133,0.248,0.273,0.357,0.421v-0.879h0.572V440.389z M21.013,437.66v-1.122
		c-0.105-0.557-0.367-1.045-0.786-1.464c-0.562-0.563-1.238-0.844-2.029-0.844c-0.791,0-1.466,0.281-2.026,0.844
		c-0.56,0.562-0.839,1.238-0.839,2.028c0,0.791,0.28,1.465,0.839,2.022s1.235,0.836,2.026,0.836c0.791,0,1.467-0.281,2.029-0.843
		C20.646,438.699,20.908,438.212,21.013,437.66z"/>
	<path d="M23.714,434.187v-2.636h0.564v2.636h1.265v0.572h-1.265v5.63h-0.564v-5.63h-1.265v-0.572H23.714z"/>
	<path d="M27.305,432.159c0.112,0.109,0.168,0.24,0.168,0.393c0,0.162-0.056,0.298-0.168,0.407
		c-0.112,0.109-0.244,0.164-0.396,0.164c-0.157,0-0.292-0.055-0.404-0.164s-0.168-0.245-0.168-0.407
		c0-0.152,0.056-0.283,0.168-0.393c0.112-0.11,0.247-0.165,0.404-0.165C27.061,431.994,27.192,432.048,27.305,432.159z
		 M27.187,434.187v6.202h-0.564v-6.202H27.187z"/>
	<path d="M32.016,433.63c0.962,0,1.78,0.338,2.455,1.015c0.674,0.676,1.011,1.495,1.011,2.457c0,0.953-0.337,1.769-1.011,2.447
		c-0.674,0.679-1.492,1.019-2.455,1.019c-0.953,0-1.768-0.34-2.447-1.019s-1.018-1.494-1.018-2.447c0-0.962,0.339-1.781,1.018-2.457
		C30.248,433.968,31.063,433.63,32.016,433.63z M29.991,435.074c-0.56,0.562-0.839,1.238-0.839,2.028
		c0,0.791,0.28,1.465,0.839,2.022s1.235,0.836,2.025,0.836c0.791,0,1.466-0.278,2.026-0.836c0.56-0.558,0.839-1.231,0.839-2.022
		c0-0.79-0.28-1.467-0.839-2.028c-0.56-0.563-1.235-0.844-2.026-0.844C31.226,434.23,30.55,434.511,29.991,435.074z"/>
	<path d="M37.275,435.574v4.815h-0.571v-6.202h0.571v0.4c0.515-0.515,1.115-0.771,1.801-0.771c0.733,0,1.33,0.229,1.79,0.689
		c0.46,0.46,0.694,1.037,0.704,1.732v4.151h-0.564v-4.094c0-0.529-0.191-0.979-0.572-1.351c-0.381-0.372-0.833-0.558-1.357-0.558
		c-0.52,0-0.97,0.184-1.351,0.551C37.521,435.142,37.37,435.354,37.275,435.574z"/>
	<path d="M49.657,440.389h-0.572v-1.265c-0.109,0.147-0.229,0.288-0.357,0.422c-0.676,0.681-1.496,1.021-2.458,1.021
		c-0.953,0-1.769-0.34-2.447-1.019s-1.018-1.494-1.018-2.447c0-0.962,0.339-1.781,1.018-2.457c0.679-0.677,1.495-1.015,2.447-1.015
		c0.962,0,1.781,0.338,2.458,1.015c0.129,0.133,0.248,0.273,0.357,0.421v-0.879h0.572V440.389z M49.085,437.66v-1.122
		c-0.105-0.557-0.367-1.045-0.786-1.464c-0.562-0.563-1.238-0.844-2.029-0.844c-0.791,0-1.466,0.281-2.026,0.844
		c-0.56,0.562-0.839,1.238-0.839,2.028c0,0.791,0.28,1.465,0.839,2.022s1.235,0.836,2.026,0.836c0.791,0,1.467-0.281,2.029-0.843
		C48.719,438.699,48.98,438.212,49.085,437.66z"/>
	<path d="M51.65,430.287v10.103h-0.571v-10.103H51.65z"/>
	<path d="M62.889,430.287h0.572v7.259c-0.105,0.771-0.426,1.427-0.965,1.965c-0.643,0.644-1.419,0.965-2.329,0.965
		c-0.915,0-1.693-0.321-2.336-0.965c-0.643-0.643-0.964-1.419-0.964-2.329v-6.895h0.571v6.895c0,0.748,0.267,1.389,0.8,1.922
		c0.534,0.533,1.177,0.8,1.929,0.8s1.395-0.267,1.926-0.8c0.531-0.533,0.796-1.174,0.796-1.922V430.287z"/>
	<path d="M65.54,435.574v4.815h-0.571v-6.202h0.571v0.4c0.515-0.515,1.115-0.771,1.801-0.771c0.733,0,1.33,0.229,1.79,0.689
		c0.46,0.46,0.694,1.037,0.704,1.732v4.151H69.27v-4.094c0-0.529-0.191-0.979-0.572-1.351c-0.381-0.372-0.833-0.558-1.357-0.558
		c-0.52,0-0.97,0.184-1.351,0.551C65.786,435.142,65.635,435.354,65.54,435.574z"/>
	<path d="M72.074,432.159c0.112,0.109,0.168,0.24,0.168,0.393c0,0.162-0.056,0.298-0.168,0.407
		c-0.112,0.109-0.244,0.164-0.396,0.164c-0.157,0-0.292-0.055-0.404-0.164s-0.168-0.245-0.168-0.407
		c0-0.152,0.056-0.283,0.168-0.393c0.112-0.11,0.247-0.165,0.404-0.165C71.83,431.994,71.962,432.048,72.074,432.159z
		 M71.956,434.187v6.202h-0.564v-6.202H71.956z"/>
	<path d="M78.623,434.187l-2.772,6.202h-0.3l-2.744-6.202h0.665l2.229,5.166l2.258-5.166H78.623z"/>
	<path d="M79.616,436.781c-0.014,0.101-0.021,0.207-0.021,0.321c0,0.791,0.28,1.465,0.839,2.022c0.56,0.558,1.235,0.836,2.026,0.836
		c0.791,0,1.467-0.281,2.029-0.843c0.095-0.096,0.186-0.195,0.271-0.301l0.607,0.215c-0.071,0.119-0.221,0.29-0.45,0.515
		c-0.676,0.681-1.496,1.021-2.458,1.021c-0.953,0-1.769-0.34-2.447-1.019s-1.018-1.494-1.018-2.447c0-0.962,0.339-1.781,1.018-2.457
		c0.679-0.677,1.495-1.015,2.447-1.015c0.962,0,1.781,0.338,2.458,1.015c0.596,0.6,0.894,1.312,0.894,2.136H79.616z M79.723,436.203
		h5.445c-0.134-0.434-0.36-0.811-0.679-1.129c-0.563-0.563-1.239-0.844-2.029-0.844c-0.791,0-1.467,0.281-2.029,0.844
		C80.097,435.412,79.861,435.788,79.723,436.203z"/>
	<path d="M88.968,434.688c-0.405,0.062-0.803,0.318-1.193,0.771c-0.391,0.452-0.586,0.909-0.586,1.371v3.559h-0.571v-6.202h0.571
		v1.344c0.238-0.624,0.727-1.089,1.465-1.394L88.968,434.688z"/>
	<path d="M91.283,437.06c-0.481-0.263-0.814-0.486-1-0.672c-0.291-0.291-0.436-0.641-0.436-1.051c0-0.409,0.145-0.761,0.436-1.054
		s0.641-0.439,1.05-0.439s0.75,0.136,1.022,0.407c0.262,0.263,0.393,0.563,0.393,0.9v0.028l-0.493,0.2
		c-0.043-0.319-0.143-0.56-0.3-0.722c-0.157-0.162-0.364-0.242-0.622-0.242c-0.252,0-0.469,0.09-0.65,0.271
		c-0.181,0.181-0.271,0.397-0.271,0.649c0,0.253,0.09,0.47,0.271,0.65c0.104,0.109,0.326,0.271,0.665,0.486
		c0.538,0.29,0.921,0.55,1.15,0.778c0.357,0.362,0.536,0.793,0.536,1.293c0,0.515-0.179,0.952-0.536,1.312
		c-0.357,0.359-0.791,0.539-1.301,0.539s-0.943-0.18-1.3-0.539c-0.357-0.359-0.536-0.754-0.536-1.183l0.564-0.143
		c0,0.366,0.125,0.675,0.375,0.925s0.549,0.375,0.896,0.375s0.648-0.125,0.9-0.375s0.379-0.554,0.379-0.911
		c0-0.348-0.126-0.646-0.379-0.893C91.964,437.519,91.693,437.322,91.283,437.06z"/>
	<path d="M95.103,432.159c0.112,0.109,0.168,0.24,0.168,0.393c0,0.162-0.056,0.298-0.168,0.407
		c-0.112,0.109-0.244,0.164-0.396,0.164c-0.157,0-0.292-0.055-0.404-0.164s-0.168-0.245-0.168-0.407
		c0-0.152,0.056-0.283,0.168-0.393c0.112-0.11,0.247-0.165,0.404-0.165C94.858,431.994,94.99,432.048,95.103,432.159z
		 M94.984,434.187v6.202H94.42v-6.202H94.984z"/>
	<path d="M97.328,434.187v-2.636h0.564v2.636h1.265v0.572h-1.265v5.63h-0.564v-5.63h-1.265v-0.572H97.328z"/>
	<path d="M100.851,442.747h-0.636l1.636-3.508l-2.358-5.052h0.636l2.036,4.33l2.043-4.33h0.636L100.851,442.747z"/>
	<path d="M112.561,433.63c0.962,0,1.78,0.338,2.455,1.015c0.674,0.676,1.011,1.495,1.011,2.457c0,0.953-0.337,1.769-1.011,2.447
		c-0.674,0.679-1.492,1.019-2.455,1.019c-0.953,0-1.768-0.34-2.447-1.019s-1.018-1.494-1.018-2.447c0-0.962,0.339-1.781,1.018-2.457
		C110.792,433.968,111.608,433.63,112.561,433.63z M110.535,435.074c-0.56,0.562-0.839,1.238-0.839,2.028
		c0,0.791,0.28,1.465,0.839,2.022s1.235,0.836,2.025,0.836c0.791,0,1.466-0.278,2.026-0.836c0.56-0.558,0.839-1.231,0.839-2.022
		c0-0.79-0.28-1.467-0.839-2.028c-0.56-0.563-1.235-0.844-2.026-0.844C111.77,434.23,111.095,434.511,110.535,435.074z"/>
	<path d="M117.898,434.759v5.63h-0.571v-5.63h-0.629v-0.572h0.629v-1.679c0.028-0.467,0.207-0.869,0.536-1.207
		c0.348-0.319,0.746-0.479,1.193-0.479c0.238,0,0.488,0.046,0.75,0.136l-0.179,0.508c-0.176-0.076-0.348-0.114-0.514-0.114
		c-0.295,0-0.577,0.119-0.843,0.357c-0.233,0.233-0.357,0.514-0.372,0.843v1.636h1.265v0.572H117.898z"/>
	<path d="M123.707,440.389v-10.103h0.571v9.531h3.852v0.571H123.707z"/>
	<path d="M129.055,436.781c-0.014,0.101-0.021,0.207-0.021,0.321c0,0.791,0.28,1.465,0.839,2.022
		c0.56,0.558,1.235,0.836,2.026,0.836c0.791,0,1.467-0.281,2.029-0.843c0.095-0.096,0.186-0.195,0.271-0.301l0.607,0.215
		c-0.071,0.119-0.221,0.29-0.45,0.515c-0.676,0.681-1.496,1.021-2.458,1.021c-0.953,0-1.769-0.34-2.447-1.019
		s-1.018-1.494-1.018-2.447c0-0.962,0.339-1.781,1.018-2.457c0.679-0.677,1.495-1.015,2.447-1.015c0.962,0,1.781,0.338,2.458,1.015
		c0.596,0.6,0.894,1.312,0.894,2.136H129.055z M129.162,436.203h5.445c-0.134-0.434-0.36-0.811-0.679-1.129
		c-0.563-0.563-1.239-0.844-2.029-0.844c-0.791,0-1.467,0.281-2.029,0.844C129.536,435.412,129.3,435.788,129.162,436.203z"/>
	<path d="M137.822,437.06c-0.481-0.263-0.814-0.486-1-0.672c-0.291-0.291-0.436-0.641-0.436-1.051c0-0.409,0.145-0.761,0.436-1.054
		s0.641-0.439,1.05-0.439s0.75,0.136,1.022,0.407c0.262,0.263,0.393,0.563,0.393,0.9v0.028l-0.493,0.2
		c-0.043-0.319-0.143-0.56-0.3-0.722c-0.157-0.162-0.364-0.242-0.622-0.242c-0.252,0-0.469,0.09-0.65,0.271
		c-0.181,0.181-0.271,0.397-0.271,0.649c0,0.253,0.09,0.47,0.271,0.65c0.104,0.109,0.326,0.271,0.665,0.486
		c0.538,0.29,0.921,0.55,1.15,0.778c0.357,0.362,0.536,0.793,0.536,1.293c0,0.515-0.179,0.952-0.536,1.312
		c-0.357,0.359-0.791,0.539-1.301,0.539s-0.943-0.18-1.3-0.539c-0.357-0.359-0.536-0.754-0.536-1.183l0.564-0.143
		c0,0.366,0.125,0.675,0.375,0.925s0.549,0.375,0.896,0.375s0.648-0.125,0.9-0.375s0.379-0.554,0.379-0.911
		c0-0.348-0.126-0.646-0.379-0.893C138.503,437.519,138.232,437.322,137.822,437.06z"/>
	<path d="M144.088,433.63c0.962,0,1.78,0.338,2.455,1.015c0.674,0.676,1.011,1.495,1.011,2.457c0,0.953-0.337,1.769-1.011,2.447
		c-0.674,0.679-1.492,1.019-2.455,1.019c-0.953,0-1.768-0.34-2.447-1.019s-1.018-1.494-1.018-2.447c0-0.962,0.339-1.781,1.018-2.457
		C142.32,433.968,143.135,433.63,144.088,433.63z M142.063,435.074c-0.56,0.562-0.839,1.238-0.839,2.028
		c0,0.791,0.28,1.465,0.839,2.022s1.235,0.836,2.025,0.836c0.791,0,1.466-0.278,2.026-0.836c0.56-0.558,0.839-1.231,0.839-2.022
		c0-0.79-0.28-1.467-0.839-2.028c-0.56-0.563-1.235-0.844-2.026-0.844C143.297,434.23,142.622,434.511,142.063,435.074z"/>
	<path d="M149.561,434.187v-2.636h0.564v2.636h1.265v0.572h-1.265v5.63h-0.564v-5.63h-1.265v-0.572H149.561z"/>
	<path d="M152.29,430.287h0.572v4.223c0.476-0.462,1.053-0.693,1.729-0.693c0.729,0,1.323,0.229,1.783,0.689
		s0.697,1.037,0.711,1.732v4.151h-0.572v-4.094c0-0.529-0.19-0.979-0.571-1.351c-0.381-0.372-0.832-0.558-1.351-0.558
		c-0.524,0-0.974,0.184-1.35,0.551c-0.172,0.166-0.298,0.34-0.379,0.521v4.93h-0.572V430.287z"/>
	<path d="M161.736,433.63c0.962,0,1.78,0.338,2.455,1.015c0.674,0.676,1.011,1.495,1.011,2.457c0,0.953-0.337,1.769-1.011,2.447
		c-0.674,0.679-1.492,1.019-2.455,1.019c-0.953,0-1.768-0.34-2.447-1.019s-1.018-1.494-1.018-2.447c0-0.962,0.339-1.781,1.018-2.457
		C159.968,433.968,160.783,433.63,161.736,433.63z M159.71,435.074c-0.56,0.562-0.839,1.238-0.839,2.028
		c0,0.791,0.28,1.465,0.839,2.022s1.235,0.836,2.025,0.836c0.791,0,1.466-0.278,2.026-0.836c0.56-0.558,0.839-1.231,0.839-2.022
		c0-0.79-0.28-1.467-0.839-2.028c-0.56-0.563-1.235-0.844-2.026-0.844C160.945,434.23,160.27,434.511,159.71,435.074z"/>
	<path d="M170.789,430.287v10.103h-0.572v-10.103H170.789z"/>
	<path d="M172.939,435.574v4.815h-0.571v-6.202h0.571v0.4c0.515-0.515,1.115-0.771,1.801-0.771c0.733,0,1.33,0.229,1.79,0.689
		c0.46,0.46,0.694,1.037,0.704,1.732v4.151h-0.564v-4.094c0-0.529-0.191-0.979-0.572-1.351c-0.381-0.372-0.833-0.558-1.357-0.558
		c-0.52,0-0.97,0.184-1.351,0.551C173.185,435.142,173.034,435.354,172.939,435.574z"/>
	<path d="M179.434,434.187v-2.636h0.564v2.636h1.265v0.572h-1.265v5.63h-0.564v-5.63h-1.265v-0.572H179.434z"/>
	<path d="M182.485,436.781c-0.014,0.101-0.021,0.207-0.021,0.321c0,0.791,0.28,1.465,0.839,2.022
		c0.56,0.558,1.235,0.836,2.026,0.836c0.791,0,1.467-0.281,2.029-0.843c0.095-0.096,0.186-0.195,0.271-0.301l0.607,0.215
		c-0.071,0.119-0.221,0.29-0.45,0.515c-0.676,0.681-1.496,1.021-2.458,1.021c-0.953,0-1.769-0.34-2.447-1.019
		s-1.018-1.494-1.018-2.447c0-0.962,0.339-1.781,1.018-2.457c0.679-0.677,1.495-1.015,2.447-1.015c0.962,0,1.781,0.338,2.458,1.015
		c0.596,0.6,0.894,1.312,0.894,2.136H182.485z M182.592,436.203h5.445c-0.134-0.434-0.36-0.811-0.679-1.129
		c-0.563-0.563-1.239-0.844-2.029-0.844c-0.791,0-1.467,0.281-2.029,0.844C182.966,435.412,182.73,435.788,182.592,436.203z"/>
	<path d="M191.837,434.688c-0.405,0.062-0.803,0.318-1.193,0.771c-0.391,0.452-0.586,0.909-0.586,1.371v3.559h-0.571v-6.202h0.571
		v1.344c0.238-0.624,0.727-1.089,1.465-1.394L191.837,434.688z"/>
	<path d="M193.116,435.574v4.815h-0.571v-6.202h0.571v0.4c0.515-0.515,1.115-0.771,1.801-0.771c0.733,0,1.33,0.229,1.79,0.689
		c0.46,0.46,0.694,1.037,0.704,1.732v4.151h-0.564v-4.094c0-0.529-0.191-0.979-0.572-1.351c-0.381-0.372-0.833-0.558-1.357-0.558
		c-0.52,0-0.97,0.184-1.351,0.551C193.362,435.142,193.211,435.354,193.116,435.574z"/>
	<path d="M205.499,440.389h-0.572v-1.265c-0.109,0.147-0.229,0.288-0.357,0.422c-0.676,0.681-1.496,1.021-2.458,1.021
		c-0.953,0-1.769-0.34-2.447-1.019s-1.018-1.494-1.018-2.447c0-0.962,0.339-1.781,1.018-2.457c0.679-0.677,1.495-1.015,2.447-1.015
		c0.962,0,1.781,0.338,2.458,1.015c0.129,0.133,0.248,0.273,0.357,0.421v-0.879h0.572V440.389z M204.927,437.66v-1.122
		c-0.105-0.557-0.367-1.045-0.786-1.464c-0.562-0.563-1.238-0.844-2.029-0.844c-0.791,0-1.466,0.281-2.026,0.844
		c-0.56,0.562-0.839,1.238-0.839,2.028c0,0.791,0.28,1.465,0.839,2.022s1.235,0.836,2.026,0.836c0.791,0,1.467-0.281,2.029-0.843
		C204.56,438.699,204.822,438.212,204.927,437.66z"/>
	<path d="M207.627,434.187v-2.636h0.564v2.636h1.265v0.572h-1.265v5.63h-0.564v-5.63h-1.265v-0.572H207.627z"/>
	<path d="M211.218,432.159c0.112,0.109,0.168,0.24,0.168,0.393c0,0.162-0.056,0.298-0.168,0.407
		c-0.112,0.109-0.244,0.164-0.396,0.164c-0.157,0-0.292-0.055-0.404-0.164s-0.168-0.245-0.168-0.407
		c0-0.152,0.056-0.283,0.168-0.393c0.112-0.11,0.247-0.165,0.404-0.165C210.974,431.994,211.106,432.048,211.218,432.159z
		 M211.1,434.187v6.202h-0.564v-6.202H211.1z"/>
	<path d="M215.93,433.63c0.962,0,1.78,0.338,2.455,1.015c0.674,0.676,1.011,1.495,1.011,2.457c0,0.953-0.337,1.769-1.011,2.447
		c-0.674,0.679-1.492,1.019-2.455,1.019c-0.953,0-1.768-0.34-2.447-1.019s-1.018-1.494-1.018-2.447c0-0.962,0.339-1.781,1.018-2.457
		C214.162,433.968,214.977,433.63,215.93,433.63z M213.904,435.074c-0.56,0.562-0.839,1.238-0.839,2.028
		c0,0.791,0.28,1.465,0.839,2.022s1.235,0.836,2.025,0.836c0.791,0,1.466-0.278,2.026-0.836c0.56-0.558,0.839-1.231,0.839-2.022
		c0-0.79-0.28-1.467-0.839-2.028c-0.56-0.563-1.235-0.844-2.026-0.844C215.139,434.23,214.464,434.511,213.904,435.074z"/>
	<path d="M221.188,435.574v4.815h-0.571v-6.202h0.571v0.4c0.515-0.515,1.115-0.771,1.801-0.771c0.733,0,1.33,0.229,1.79,0.689
		c0.46,0.46,0.694,1.037,0.704,1.732v4.151h-0.564v-4.094c0-0.529-0.191-0.979-0.572-1.351c-0.381-0.372-0.833-0.558-1.357-0.558
		c-0.52,0-0.97,0.184-1.351,0.551C221.434,435.142,221.284,435.354,221.188,435.574z"/>
	<path d="M233.571,440.389h-0.572v-1.265c-0.109,0.147-0.229,0.288-0.357,0.422c-0.676,0.681-1.496,1.021-2.458,1.021
		c-0.953,0-1.769-0.34-2.447-1.019s-1.018-1.494-1.018-2.447c0-0.962,0.339-1.781,1.018-2.457c0.679-0.677,1.495-1.015,2.447-1.015
		c0.962,0,1.781,0.338,2.458,1.015c0.129,0.133,0.248,0.273,0.357,0.421v-0.879h0.572V440.389z M232.999,437.66v-1.122
		c-0.105-0.557-0.367-1.045-0.786-1.464c-0.562-0.563-1.238-0.844-2.029-0.844c-0.791,0-1.466,0.281-2.026,0.844
		c-0.56,0.562-0.839,1.238-0.839,2.028c0,0.791,0.28,1.465,0.839,2.022s1.235,0.836,2.026,0.836c0.791,0,1.467-0.281,2.029-0.843
		C232.632,438.699,232.894,438.212,232.999,437.66z"/>
	<path d="M235.564,430.287v10.103h-0.571v-10.103H235.564z"/>
	<path d="M243.516,434.794c-0.719-0.238-1.287-0.565-1.704-0.982c-0.417-0.416-0.625-0.923-0.625-1.518
		c0-0.581,0.208-1.082,0.625-1.501c0.417-0.419,0.923-0.629,1.519-0.629c0.586,0,1.091,0.21,1.515,0.629
		c0.229,0.224,0.388,0.474,0.479,0.75l-0.514,0.2c-0.076-0.204-0.2-0.393-0.372-0.564c-0.305-0.305-0.674-0.457-1.107-0.457
		c-0.434,0-0.804,0.152-1.111,0.457c-0.307,0.305-0.46,0.677-0.46,1.115c0,0.433,0.152,0.805,0.457,1.114
		c0.286,0.281,0.681,0.538,1.186,0.771c0.81,0.262,1.491,0.669,2.043,1.222c0.581,0.581,0.872,1.284,0.872,2.107
		c0,0.829-0.292,1.537-0.875,2.122c-0.583,0.586-1.288,0.879-2.111,0.879c-0.829,0-1.534-0.295-2.115-0.886
		c-0.471-0.467-0.752-1.01-0.843-1.629l0.536-0.193c0.057,0.548,0.291,1.024,0.7,1.43c0.477,0.477,1.05,0.714,1.722,0.714
		c0.671,0,1.246-0.237,1.722-0.714c0.477-0.477,0.715-1.051,0.715-1.723c0-0.666-0.238-1.238-0.715-1.714
		C244.633,435.375,244.121,435.042,243.516,434.794z"/>
	<path d="M252.777,438.896l0.6,0.222c-0.109,0.147-0.233,0.29-0.371,0.429c-0.677,0.681-1.496,1.021-2.458,1.021
		c-0.953,0-1.769-0.34-2.447-1.019s-1.018-1.496-1.018-2.454c0-0.957,0.339-1.774,1.018-2.45c0.679-0.677,1.495-1.015,2.447-1.015
		c0.962,0,1.781,0.338,2.458,1.015c0.138,0.138,0.262,0.28,0.371,0.429l-0.6,0.221c-0.063-0.076-0.129-0.152-0.2-0.229
		c-0.563-0.557-1.239-0.836-2.029-0.836c-0.786,0-1.459,0.28-2.019,0.84s-0.839,1.235-0.839,2.025c0,0.791,0.28,1.466,0.839,2.025
		c0.56,0.561,1.232,0.84,2.019,0.84c0.791,0,1.467-0.281,2.029-0.843C252.648,439.046,252.714,438.972,252.777,438.896z"/>
	<path d="M255.28,432.159c0.112,0.109,0.168,0.24,0.168,0.393c0,0.162-0.056,0.298-0.168,0.407
		c-0.111,0.109-0.244,0.164-0.396,0.164c-0.157,0-0.292-0.055-0.403-0.164c-0.112-0.109-0.168-0.245-0.168-0.407
		c0-0.152,0.056-0.283,0.168-0.393c0.111-0.11,0.246-0.165,0.403-0.165C255.036,431.994,255.168,432.048,255.28,432.159z
		 M255.163,434.187v6.202h-0.564v-6.202H255.163z"/>
	<path d="M257.006,436.781c-0.015,0.101-0.021,0.207-0.021,0.321c0,0.791,0.28,1.465,0.84,2.022s1.234,0.836,2.025,0.836
		s1.467-0.281,2.029-0.843c0.095-0.096,0.186-0.195,0.271-0.301l0.607,0.215c-0.071,0.119-0.222,0.29-0.45,0.515
		c-0.677,0.681-1.496,1.021-2.458,1.021c-0.953,0-1.769-0.34-2.447-1.019s-1.019-1.494-1.019-2.447c0-0.962,0.34-1.781,1.019-2.457
		c0.679-0.677,1.494-1.015,2.447-1.015c0.962,0,1.781,0.338,2.458,1.015c0.595,0.6,0.893,1.312,0.893,2.136H257.006z
		 M257.114,436.203h5.444c-0.134-0.434-0.36-0.811-0.679-1.129c-0.563-0.563-1.238-0.844-2.029-0.844s-1.467,0.281-2.029,0.844
		C257.488,435.412,257.251,435.788,257.114,436.203z"/>
	<path d="M264.737,435.574v4.815h-0.572v-6.202h0.572v0.4c0.514-0.515,1.114-0.771,1.8-0.771c0.733,0,1.33,0.229,1.79,0.689
		s0.694,1.037,0.704,1.732v4.151h-0.564v-4.094c0-0.529-0.19-0.979-0.572-1.351c-0.381-0.372-0.833-0.558-1.357-0.558
		c-0.519,0-0.969,0.184-1.35,0.551C264.982,435.142,264.832,435.354,264.737,435.574z"/>
	<path d="M275.804,438.896l0.6,0.222c-0.109,0.147-0.233,0.29-0.371,0.429c-0.677,0.681-1.496,1.021-2.458,1.021
		c-0.953,0-1.769-0.34-2.447-1.019s-1.019-1.496-1.019-2.454c0-0.957,0.34-1.774,1.019-2.45c0.679-0.677,1.494-1.015,2.447-1.015
		c0.962,0,1.781,0.338,2.458,1.015c0.138,0.138,0.262,0.28,0.371,0.429l-0.6,0.221c-0.063-0.076-0.129-0.152-0.2-0.229
		c-0.563-0.557-1.238-0.836-2.029-0.836c-0.786,0-1.459,0.28-2.019,0.84s-0.84,1.235-0.84,2.025c0,0.791,0.28,1.466,0.84,2.025
		c0.56,0.561,1.232,0.84,2.019,0.84c0.791,0,1.467-0.281,2.029-0.843C275.675,439.046,275.742,438.972,275.804,438.896z"/>
	<path d="M277.769,436.781c-0.015,0.101-0.021,0.207-0.021,0.321c0,0.791,0.28,1.465,0.84,2.022s1.234,0.836,2.025,0.836
		s1.467-0.281,2.029-0.843c0.095-0.096,0.186-0.195,0.271-0.301l0.607,0.215c-0.071,0.119-0.222,0.29-0.45,0.515
		c-0.677,0.681-1.496,1.021-2.458,1.021c-0.953,0-1.769-0.34-2.447-1.019s-1.019-1.494-1.019-2.447c0-0.962,0.34-1.781,1.019-2.457
		c0.679-0.677,1.494-1.015,2.447-1.015c0.962,0,1.781,0.338,2.458,1.015c0.595,0.6,0.893,1.312,0.893,2.136H277.769z
		 M277.876,436.203h5.444c-0.134-0.434-0.36-0.811-0.679-1.129c-0.563-0.563-1.238-0.844-2.029-0.844s-1.467,0.281-2.029,0.844
		C278.25,435.412,278.014,435.788,277.876,436.203z"/>
	<path d="M293.673,438.303c-0.053-0.024-0.104-0.051-0.157-0.079c-0.2-0.114-0.453-0.328-0.758-0.643
		c-0.2-0.187-0.343-0.303-0.429-0.351c-0.09-0.048-0.183-0.071-0.278-0.071c-0.053,0-0.104,0.005-0.157,0.015
		c-0.152,0.043-0.267,0.131-0.343,0.264c-0.053,0.096-0.079,0.188-0.079,0.279c0,0.052,0.008,0.104,0.021,0.157
		c0.043,0.152,0.127,0.262,0.25,0.328c0.081,0.043,0.19,0.064,0.329,0.064c0.076,0,0.162-0.007,0.257-0.021l-0.057,0.521
		c-0.105,0.028-0.21,0.043-0.314,0.043c-0.167,0-0.331-0.043-0.493-0.129c-0.252-0.143-0.419-0.361-0.5-0.657
		c-0.028-0.104-0.043-0.207-0.043-0.307c0-0.187,0.05-0.367,0.15-0.543c0.157-0.267,0.383-0.44,0.679-0.521
		c0.104-0.029,0.207-0.043,0.307-0.043c0.187,0,0.364,0.05,0.536,0.149c0.167,0.091,0.386,0.279,0.657,0.564
		c0.243,0.22,0.422,0.362,0.536,0.429c0.129,0.071,0.26,0.107,0.393,0.107c0.076,0,0.152-0.012,0.229-0.036
		c0.22-0.057,0.387-0.186,0.501-0.386c0.071-0.128,0.106-0.259,0.106-0.393c0-0.071-0.012-0.146-0.035-0.222
		c-0.058-0.214-0.184-0.379-0.379-0.493c-0.119-0.066-0.253-0.1-0.4-0.1c-0.104,0-0.217,0.017-0.336,0.05l-0.007-0.564
		c0.119-0.033,0.236-0.05,0.351-0.05c0.224,0,0.442,0.062,0.657,0.186c0.328,0.186,0.543,0.46,0.643,0.821
		c0.033,0.129,0.05,0.253,0.05,0.372c0,0.229-0.06,0.447-0.179,0.657c-0.186,0.329-0.464,0.546-0.836,0.65
		c-0.109,0.028-0.214,0.045-0.313,0.05c-0.139,0.452-0.389,0.86-0.751,1.222c-0.586,0.591-1.291,0.886-2.114,0.886
		c-0.824,0-1.529-0.293-2.115-0.879c-0.586-0.585-0.879-1.293-0.879-2.122c0-0.823,0.288-1.543,0.864-2.157
		c0.396-0.424,0.91-0.743,1.544-0.957c-0.305-0.129-0.616-0.362-0.933-0.7c-0.317-0.339-0.476-0.806-0.476-1.4
		c0-0.581,0.209-1.082,0.626-1.501c0.416-0.419,0.92-0.629,1.511-0.629s1.096,0.21,1.515,0.629c0.233,0.224,0.393,0.474,0.479,0.75
		l-0.507,0.2c-0.076-0.204-0.2-0.393-0.372-0.564c-0.31-0.305-0.681-0.457-1.114-0.457s-0.804,0.152-1.111,0.457
		c-0.307,0.305-0.461,0.677-0.461,1.115c0,0.433,0.149,0.809,0.447,1.125c0.297,0.316,0.572,0.522,0.825,0.618
		c0.252,0.095,0.566,0.146,0.942,0.149v0.536l-0.449,0.007c-0.925,0.177-1.617,0.518-2.08,1.022
		c-0.462,0.505-0.692,1.091-0.692,1.757c0,0.672,0.236,1.246,0.711,1.723c0.474,0.477,1.049,0.714,1.726,0.714
		c0.666,0,1.238-0.237,1.715-0.714C293.356,438.956,293.554,438.646,293.673,438.303z"/>
	<path d="M303.168,430.858v9.531h-0.564v-9.531h-2.557v-0.571h5.68v0.571H303.168z"/>
	<path d="M306.363,436.781c-0.014,0.101-0.021,0.207-0.021,0.321c0,0.791,0.281,1.465,0.84,2.022
		c0.561,0.558,1.234,0.836,2.025,0.836s1.467-0.281,2.029-0.843c0.096-0.096,0.186-0.195,0.271-0.301l0.607,0.215
		c-0.07,0.119-0.221,0.29-0.449,0.515c-0.678,0.681-1.496,1.021-2.459,1.021c-0.953,0-1.768-0.34-2.447-1.019
		c-0.678-0.679-1.018-1.494-1.018-2.447c0-0.962,0.34-1.781,1.018-2.457c0.68-0.677,1.494-1.015,2.447-1.015
		c0.963,0,1.781,0.338,2.459,1.015c0.594,0.6,0.893,1.312,0.893,2.136H306.363z M306.471,436.203h5.445
		c-0.135-0.434-0.361-0.811-0.68-1.129c-0.563-0.563-1.238-0.844-2.029-0.844s-1.467,0.281-2.029,0.844
		C306.846,435.412,306.609,435.788,306.471,436.203z"/>
	<path d="M318.881,438.896l0.6,0.222c-0.109,0.147-0.232,0.29-0.371,0.429c-0.676,0.681-1.496,1.021-2.457,1.021
		c-0.953,0-1.77-0.34-2.447-1.019c-0.68-0.679-1.02-1.496-1.02-2.454c0-0.957,0.34-1.774,1.02-2.45
		c0.678-0.677,1.494-1.015,2.447-1.015c0.961,0,1.781,0.338,2.457,1.015c0.139,0.138,0.262,0.28,0.371,0.429l-0.6,0.221
		c-0.063-0.076-0.129-0.152-0.199-0.229c-0.563-0.557-1.238-0.836-2.029-0.836c-0.787,0-1.459,0.28-2.02,0.84
		c-0.559,0.56-0.84,1.235-0.84,2.025c0,0.791,0.281,1.466,0.84,2.025c0.561,0.561,1.232,0.84,2.02,0.84
		c0.791,0,1.467-0.281,2.029-0.843C318.752,439.046,318.818,438.972,318.881,438.896z"/>
	<path d="M320.525,430.287h0.57v4.223c0.477-0.462,1.053-0.693,1.73-0.693c0.729,0,1.322,0.229,1.781,0.689
		c0.461,0.46,0.697,1.037,0.711,1.732v4.151h-0.57v-4.094c0-0.529-0.191-0.979-0.572-1.351c-0.381-0.372-0.832-0.558-1.35-0.558
		c-0.525,0-0.975,0.184-1.352,0.551c-0.172,0.166-0.297,0.34-0.379,0.521v4.93h-0.57V430.287z"/>
	<path d="M327.27,435.574v4.815h-0.572v-6.202h0.572v0.4c0.514-0.515,1.115-0.771,1.801-0.771c0.732,0,1.33,0.229,1.789,0.689
		c0.461,0.46,0.695,1.037,0.705,1.732v4.151H331v-4.094c0-0.529-0.191-0.979-0.572-1.351c-0.381-0.372-0.834-0.558-1.357-0.558
		c-0.52,0-0.969,0.184-1.35,0.551C327.516,435.142,327.365,435.354,327.27,435.574z"/>
	<path d="M336.25,433.63c0.963,0,1.781,0.338,2.455,1.015c0.674,0.676,1.012,1.495,1.012,2.457c0,0.953-0.338,1.769-1.012,2.447
		s-1.492,1.019-2.455,1.019c-0.951,0-1.768-0.34-2.447-1.019c-0.678-0.679-1.018-1.494-1.018-2.447c0-0.962,0.34-1.781,1.018-2.457
		C334.482,433.968,335.299,433.63,336.25,433.63z M334.225,435.074c-0.559,0.562-0.84,1.238-0.84,2.028
		c0,0.791,0.281,1.465,0.84,2.022c0.561,0.558,1.236,0.836,2.025,0.836c0.791,0,1.467-0.278,2.025-0.836
		c0.561-0.558,0.84-1.231,0.84-2.022c0-0.79-0.279-1.467-0.84-2.028c-0.559-0.563-1.234-0.844-2.025-0.844
		C335.461,434.23,334.785,434.511,334.225,435.074z"/>
	<path d="M341.588,430.287v10.103h-0.572v-10.103H341.588z"/>
	<path d="M346.354,433.63c0.961,0,1.779,0.338,2.453,1.015c0.676,0.676,1.012,1.495,1.012,2.457c0,0.953-0.336,1.769-1.012,2.447
		c-0.674,0.679-1.492,1.019-2.453,1.019c-0.953,0-1.77-0.34-2.447-1.019c-0.68-0.679-1.018-1.494-1.018-2.447
		c0-0.962,0.338-1.781,1.018-2.457C344.584,433.968,345.4,433.63,346.354,433.63z M344.328,435.074
		c-0.561,0.562-0.84,1.238-0.84,2.028c0,0.791,0.279,1.465,0.84,2.022c0.559,0.558,1.234,0.836,2.025,0.836s1.465-0.278,2.025-0.836
		c0.559-0.558,0.84-1.231,0.84-2.022c0-0.79-0.281-1.467-0.84-2.028c-0.561-0.563-1.234-0.844-2.025-0.844
		S344.887,434.511,344.328,435.074z"/>
	<path d="M356.971,439.161c-0.109,0.133-0.223,0.262-0.342,0.386c-0.678,0.681-1.496,1.021-2.459,1.021
		c-0.953,0-1.768-0.34-2.447-1.019c-0.678-0.679-1.018-1.494-1.018-2.447c0-0.962,0.34-1.779,1.018-2.454
		c0.68-0.674,1.494-1.011,2.447-1.011c0.963,0,1.781,0.336,2.459,1.008c0.127,0.133,0.246,0.273,0.357,0.421v-0.879h0.57v4.816
		c0,0.934-0.33,1.729-0.992,2.386c-0.678,0.682-1.494,1.022-2.451,1.022s-1.777-0.341-2.457-1.022
		c-0.139-0.138-0.264-0.281-0.373-0.429l0.602-0.221c0.061,0.075,0.131,0.149,0.207,0.221c0.557,0.563,1.23,0.844,2.021,0.844
		c0.785,0,1.459-0.281,2.021-0.844C356.645,440.451,356.924,439.851,356.971,439.161z M356.979,436.509
		c-0.109-0.543-0.369-1.021-0.779-1.436c-0.563-0.563-1.238-0.844-2.029-0.844s-1.465,0.281-2.025,0.844
		c-0.559,0.562-0.84,1.238-0.84,2.028c0,0.791,0.281,1.467,0.84,2.026c0.561,0.56,1.234,0.839,2.025,0.839s1.467-0.28,2.029-0.843
		c0.404-0.405,0.664-0.879,0.779-1.422V436.509z"/>
	<path d="M359.535,442.747H358.9l1.635-3.508l-2.357-5.052h0.637l2.035,4.33l2.045-4.33h0.635L359.535,442.747z"/>
	<path d="M368.709,430.287v10.103h-0.57v-10.103H368.709z"/>
	<path d="M370.861,435.574v4.815h-0.572v-6.202h0.572v0.4c0.514-0.515,1.113-0.771,1.799-0.771c0.734,0,1.33,0.229,1.791,0.689
		c0.459,0.46,0.693,1.037,0.703,1.732v4.151h-0.564v-4.094c0-0.529-0.189-0.979-0.572-1.351c-0.381-0.372-0.832-0.558-1.357-0.558
		c-0.518,0-0.969,0.184-1.35,0.551C371.105,435.142,370.955,435.354,370.861,435.574z"/>
	<path d="M377.141,435.574v4.815h-0.572v-6.202h0.572v0.4c0.514-0.515,1.115-0.771,1.801-0.771c0.732,0,1.33,0.229,1.789,0.689
		c0.461,0.46,0.695,1.037,0.705,1.732v4.151h-0.564v-4.094c0-0.529-0.191-0.979-0.572-1.351c-0.381-0.372-0.834-0.558-1.357-0.558
		c-0.52,0-0.969,0.184-1.35,0.551C377.387,435.142,377.236,435.354,377.141,435.574z"/>
	<path d="M386.121,433.63c0.963,0,1.781,0.338,2.455,1.015c0.674,0.676,1.012,1.495,1.012,2.457c0,0.953-0.338,1.769-1.012,2.447
		s-1.492,1.019-2.455,1.019c-0.951,0-1.768-0.34-2.447-1.019c-0.678-0.679-1.018-1.494-1.018-2.447c0-0.962,0.34-1.781,1.018-2.457
		C384.354,433.968,385.17,433.63,386.121,433.63z M384.096,435.074c-0.559,0.562-0.84,1.238-0.84,2.028
		c0,0.791,0.281,1.465,0.84,2.022c0.561,0.558,1.236,0.836,2.025,0.836c0.791,0,1.467-0.278,2.025-0.836
		c0.561-0.558,0.84-1.231,0.84-2.022c0-0.79-0.279-1.467-0.84-2.028c-0.559-0.563-1.234-0.844-2.025-0.844
		C385.332,434.23,384.656,434.511,384.096,435.074z"/>
	<path d="M395.918,434.187l-2.771,6.202h-0.301l-2.744-6.202h0.664l2.23,5.166l2.258-5.166H395.918z"/>
	<path d="M403.299,440.389h-0.572v-1.265c-0.109,0.147-0.229,0.288-0.357,0.422c-0.676,0.681-1.496,1.021-2.457,1.021
		c-0.953,0-1.77-0.34-2.447-1.019c-0.68-0.679-1.02-1.494-1.02-2.447c0-0.962,0.34-1.781,1.02-2.457
		c0.678-0.677,1.494-1.015,2.447-1.015c0.961,0,1.781,0.338,2.457,1.015c0.129,0.133,0.248,0.273,0.357,0.421v-0.879h0.572V440.389z
		 M402.727,437.66v-1.122c-0.105-0.557-0.367-1.045-0.785-1.464c-0.563-0.563-1.24-0.844-2.029-0.844
		c-0.791,0-1.467,0.281-2.025,0.844c-0.561,0.562-0.84,1.238-0.84,2.028c0,0.791,0.279,1.465,0.84,2.022
		c0.559,0.558,1.234,0.836,2.025,0.836c0.789,0,1.467-0.281,2.029-0.843C402.359,438.699,402.621,438.212,402.727,437.66z"/>
	<path d="M405.428,434.187v-2.636h0.564v2.636h1.264v0.572h-1.264v5.63h-0.564v-5.63h-1.266v-0.572H405.428z"/>
	<path d="M409.018,432.159c0.111,0.109,0.168,0.24,0.168,0.393c0,0.162-0.057,0.298-0.168,0.407s-0.244,0.164-0.396,0.164
		c-0.158,0-0.293-0.055-0.404-0.164s-0.168-0.245-0.168-0.407c0-0.152,0.057-0.283,0.168-0.393c0.111-0.11,0.246-0.165,0.404-0.165
		C408.773,431.994,408.906,432.048,409.018,432.159z M408.9,434.187v6.202h-0.564v-6.202H408.9z"/>
	<path d="M413.73,433.63c0.961,0,1.779,0.338,2.453,1.015c0.676,0.676,1.012,1.495,1.012,2.457c0,0.953-0.336,1.769-1.012,2.447
		c-0.674,0.679-1.492,1.019-2.453,1.019c-0.953,0-1.77-0.34-2.447-1.019c-0.68-0.679-1.018-1.494-1.018-2.447
		c0-0.962,0.338-1.781,1.018-2.457C411.961,433.968,412.777,433.63,413.73,433.63z M411.705,435.074
		c-0.561,0.562-0.84,1.238-0.84,2.028c0,0.791,0.279,1.465,0.84,2.022c0.559,0.558,1.234,0.836,2.025,0.836s1.465-0.278,2.025-0.836
		c0.559-0.558,0.84-1.231,0.84-2.022c0-0.79-0.281-1.467-0.84-2.028c-0.561-0.563-1.234-0.844-2.025-0.844
		S412.264,434.511,411.705,435.074z"/>
	<path d="M418.988,435.574v4.815h-0.572v-6.202h0.572v0.4c0.514-0.515,1.115-0.771,1.801-0.771c0.732,0,1.33,0.229,1.789,0.689
		c0.461,0.46,0.695,1.037,0.705,1.732v4.151h-0.564v-4.094c0-0.529-0.191-0.979-0.572-1.351c-0.381-0.372-0.834-0.558-1.357-0.558
		c-0.52,0-0.969,0.184-1.35,0.551C419.234,435.142,419.084,435.354,418.988,435.574z"/>
	<path d="M436.365,438.782l0.436,0.386c-0.986,0.896-2.146,1.343-3.48,1.343c-1.434,0-2.654-0.503-3.66-1.511
		c-1.008-1.008-1.512-2.228-1.512-3.662c0-1.424,0.504-2.642,1.512-3.654c1.006-1.012,2.227-1.519,3.66-1.519
		c1.334,0,2.494,0.45,3.48,1.351l-0.436,0.386c-0.867-0.767-1.881-1.15-3.045-1.15c-1.266,0-2.348,0.448-3.246,1.344
		s-1.348,1.977-1.348,3.243c0,1.272,0.449,2.355,1.348,3.251s1.98,1.344,3.246,1.344
		C434.484,439.932,435.498,439.548,436.365,438.782z"/>
	<path d="M441.223,433.63c0.963,0,1.781,0.338,2.455,1.015c0.674,0.676,1.012,1.495,1.012,2.457c0,0.953-0.338,1.769-1.012,2.447
		s-1.492,1.019-2.455,1.019c-0.951,0-1.768-0.34-2.447-1.019c-0.678-0.679-1.018-1.494-1.018-2.447c0-0.962,0.34-1.781,1.018-2.457
		C439.455,433.968,440.271,433.63,441.223,433.63z M439.197,435.074c-0.559,0.562-0.84,1.238-0.84,2.028
		c0,0.791,0.281,1.465,0.84,2.022c0.561,0.558,1.236,0.836,2.025,0.836c0.791,0,1.467-0.278,2.025-0.836
		c0.561-0.558,0.84-1.231,0.84-2.022c0-0.79-0.279-1.467-0.84-2.028c-0.559-0.563-1.234-0.844-2.025-0.844
		C440.434,434.23,439.758,434.511,439.197,435.074z"/>
	<path d="M446.482,435.574v4.815h-0.572v-6.202h0.572v0.4c0.514-0.515,1.113-0.771,1.799-0.771c0.734,0,1.33,0.229,1.791,0.689
		c0.459,0.46,0.693,1.037,0.703,1.732v4.151h-0.564v-4.094c0-0.529-0.189-0.979-0.572-1.351c-0.381-0.372-0.832-0.558-1.357-0.558
		c-0.518,0-0.969,0.184-1.35,0.551C446.727,435.142,446.576,435.354,446.482,435.574z"/>
	<path d="M452.842,434.759v5.63h-0.572v-5.63h-0.629v-0.572h0.629v-1.679c0.029-0.467,0.207-0.869,0.537-1.207
		c0.348-0.319,0.744-0.479,1.191-0.479c0.238,0,0.488,0.046,0.752,0.136l-0.18,0.508c-0.176-0.076-0.348-0.114-0.514-0.114
		c-0.297,0-0.576,0.119-0.844,0.357c-0.232,0.233-0.357,0.514-0.371,0.843v1.636h1.264v0.572H452.842z"/>
	<path d="M455.213,436.781c-0.014,0.101-0.021,0.207-0.021,0.321c0,0.791,0.281,1.465,0.84,2.022
		c0.561,0.558,1.234,0.836,2.025,0.836s1.467-0.281,2.029-0.843c0.096-0.096,0.186-0.195,0.271-0.301l0.607,0.215
		c-0.07,0.119-0.221,0.29-0.449,0.515c-0.678,0.681-1.496,1.021-2.459,1.021c-0.953,0-1.768-0.34-2.447-1.019
		c-0.678-0.679-1.018-1.494-1.018-2.447c0-0.962,0.34-1.781,1.018-2.457c0.68-0.677,1.494-1.015,2.447-1.015
		c0.963,0,1.781,0.338,2.459,1.015c0.594,0.6,0.893,1.312,0.893,2.136H455.213z M455.32,436.203h5.445
		c-0.135-0.434-0.361-0.811-0.68-1.129c-0.563-0.563-1.238-0.844-2.029-0.844s-1.467,0.281-2.029,0.844
		C455.695,435.412,455.459,435.788,455.32,436.203z"/>
	<path d="M464.564,434.688c-0.404,0.062-0.801,0.318-1.191,0.771c-0.391,0.452-0.586,0.909-0.586,1.371v3.559h-0.572v-6.202h0.572
		v1.344c0.238-0.624,0.725-1.089,1.465-1.394L464.564,434.688z"/>
	<path d="M465.559,436.781c-0.014,0.101-0.021,0.207-0.021,0.321c0,0.791,0.281,1.465,0.84,2.022
		c0.561,0.558,1.234,0.836,2.025,0.836s1.467-0.281,2.029-0.843c0.096-0.096,0.186-0.195,0.271-0.301l0.607,0.215
		c-0.07,0.119-0.221,0.29-0.449,0.515c-0.678,0.681-1.496,1.021-2.459,1.021c-0.953,0-1.768-0.34-2.447-1.019
		c-0.678-0.679-1.018-1.494-1.018-2.447c0-0.962,0.34-1.781,1.018-2.457c0.68-0.677,1.494-1.015,2.447-1.015
		c0.963,0,1.781,0.338,2.459,1.015c0.594,0.6,0.893,1.312,0.893,2.136H465.559z M465.666,436.203h5.445
		c-0.135-0.434-0.361-0.811-0.68-1.129c-0.563-0.563-1.238-0.844-2.029-0.844s-1.467,0.281-2.029,0.844
		C466.041,435.412,465.805,435.788,465.666,436.203z"/>
	<path d="M473.289,435.574v4.815h-0.572v-6.202h0.572v0.4c0.514-0.515,1.115-0.771,1.801-0.771c0.732,0,1.33,0.229,1.789,0.689
		c0.461,0.46,0.695,1.037,0.705,1.732v4.151h-0.564v-4.094c0-0.529-0.191-0.979-0.572-1.351c-0.381-0.372-0.834-0.558-1.357-0.558
		c-0.52,0-0.969,0.184-1.35,0.551C473.535,435.142,473.385,435.354,473.289,435.574z"/>
	<path d="M484.357,438.896l0.6,0.222c-0.109,0.147-0.232,0.29-0.371,0.429c-0.676,0.681-1.496,1.021-2.457,1.021
		c-0.953,0-1.77-0.34-2.447-1.019c-0.68-0.679-1.02-1.496-1.02-2.454c0-0.957,0.34-1.774,1.02-2.45
		c0.678-0.677,1.494-1.015,2.447-1.015c0.961,0,1.781,0.338,2.457,1.015c0.139,0.138,0.262,0.28,0.371,0.429l-0.6,0.221
		c-0.063-0.076-0.129-0.152-0.199-0.229c-0.563-0.557-1.238-0.836-2.029-0.836c-0.787,0-1.459,0.28-2.02,0.84
		c-0.559,0.56-0.84,1.235-0.84,2.025c0,0.791,0.281,1.466,0.84,2.025c0.561,0.561,1.232,0.84,2.02,0.84
		c0.791,0,1.467-0.281,2.029-0.843C484.229,439.046,484.295,438.972,484.357,438.896z"/>
	<path d="M486.322,436.781c-0.016,0.101-0.021,0.207-0.021,0.321c0,0.791,0.279,1.465,0.84,2.022
		c0.559,0.558,1.234,0.836,2.025,0.836s1.467-0.281,2.029-0.843c0.094-0.096,0.186-0.195,0.271-0.301l0.607,0.215
		c-0.072,0.119-0.223,0.29-0.451,0.515c-0.676,0.681-1.496,1.021-2.457,1.021c-0.953,0-1.77-0.34-2.447-1.019
		c-0.68-0.679-1.02-1.494-1.02-2.447c0-0.962,0.34-1.781,1.02-2.457c0.678-0.677,1.494-1.015,2.447-1.015
		c0.961,0,1.781,0.338,2.457,1.015c0.596,0.6,0.893,1.312,0.893,2.136H486.322z M486.43,436.203h5.443
		c-0.133-0.434-0.359-0.811-0.678-1.129c-0.563-0.563-1.238-0.844-2.029-0.844s-1.467,0.281-2.029,0.844
		C486.803,435.412,486.566,435.788,486.43,436.203z"/>
	<path d="M502.227,438.303c-0.053-0.024-0.104-0.051-0.156-0.079c-0.201-0.114-0.453-0.328-0.758-0.643
		c-0.201-0.187-0.344-0.303-0.43-0.351c-0.09-0.048-0.182-0.071-0.277-0.071c-0.053,0-0.105,0.005-0.158,0.015
		c-0.152,0.043-0.266,0.131-0.342,0.264c-0.053,0.096-0.08,0.188-0.08,0.279c0,0.052,0.008,0.104,0.021,0.157
		c0.043,0.152,0.127,0.262,0.25,0.328c0.082,0.043,0.191,0.064,0.33,0.064c0.076,0,0.162-0.007,0.256-0.021l-0.057,0.521
		c-0.105,0.028-0.209,0.043-0.314,0.043c-0.166,0-0.33-0.043-0.492-0.129c-0.252-0.143-0.42-0.361-0.5-0.657
		c-0.029-0.104-0.043-0.207-0.043-0.307c0-0.187,0.049-0.367,0.15-0.543c0.156-0.267,0.383-0.44,0.678-0.521
		c0.105-0.029,0.207-0.043,0.307-0.043c0.188,0,0.365,0.05,0.537,0.149c0.166,0.091,0.385,0.279,0.656,0.564
		c0.244,0.22,0.422,0.362,0.537,0.429c0.129,0.071,0.26,0.107,0.393,0.107c0.076,0,0.152-0.012,0.229-0.036
		c0.219-0.057,0.387-0.186,0.5-0.386c0.072-0.128,0.107-0.259,0.107-0.393c0-0.071-0.012-0.146-0.035-0.222
		c-0.059-0.214-0.184-0.379-0.379-0.493c-0.119-0.066-0.254-0.1-0.4-0.1c-0.105,0-0.217,0.017-0.336,0.05l-0.008-0.564
		c0.119-0.033,0.236-0.05,0.352-0.05c0.223,0,0.441,0.062,0.656,0.186c0.328,0.186,0.543,0.46,0.643,0.821
		c0.033,0.129,0.051,0.253,0.051,0.372c0,0.229-0.061,0.447-0.18,0.657c-0.186,0.329-0.463,0.546-0.836,0.65
		c-0.109,0.028-0.213,0.045-0.313,0.05c-0.139,0.452-0.389,0.86-0.752,1.222c-0.586,0.591-1.291,0.886-2.113,0.886
		c-0.824,0-1.529-0.293-2.115-0.879c-0.586-0.585-0.879-1.293-0.879-2.122c0-0.823,0.287-1.543,0.863-2.157
		c0.396-0.424,0.91-0.743,1.545-0.957c-0.305-0.129-0.617-0.362-0.934-0.7c-0.316-0.339-0.475-0.806-0.475-1.4
		c0-0.581,0.209-1.082,0.625-1.501s0.92-0.629,1.512-0.629c0.59,0,1.096,0.21,1.514,0.629c0.234,0.224,0.393,0.474,0.479,0.75
		l-0.506,0.2c-0.076-0.204-0.201-0.393-0.373-0.564c-0.309-0.305-0.68-0.457-1.113-0.457s-0.805,0.152-1.111,0.457
		s-0.461,0.677-0.461,1.115c0,0.433,0.148,0.809,0.447,1.125c0.297,0.316,0.572,0.522,0.824,0.618
		c0.252,0.095,0.566,0.146,0.943,0.149v0.536l-0.449,0.007c-0.926,0.177-1.617,0.518-2.08,1.022s-0.693,1.091-0.693,1.757
		c0,0.672,0.236,1.246,0.711,1.723s1.049,0.714,1.727,0.714c0.666,0,1.238-0.237,1.715-0.714
		C501.91,438.956,502.107,438.646,502.227,438.303z"/>
	<path d="M514.223,430.287v0.571h-4.48v4.194h4.48v0.571h-4.48v4.194h4.48v0.571h-5.053v-10.103H514.223z"/>
	<path d="M517.059,437.11l-1.822-2.923h0.666l1.486,2.394l1.486-2.394h0.664l-1.822,2.923l2.035,3.279h-0.656l-1.707-2.743
		l-1.709,2.743h-0.656L517.059,437.11z"/>
	<path d="M520.41,434.187h0.57v0.872c0.105-0.143,0.225-0.281,0.357-0.414c0.678-0.672,1.494-1.008,2.451-1.008
		s1.775,0.337,2.451,1.011c0.676,0.675,1.014,1.492,1.014,2.454c0,0.953-0.338,1.769-1.014,2.447s-1.494,1.019-2.451,1.019
		s-1.773-0.341-2.451-1.021c-0.133-0.134-0.252-0.271-0.357-0.415v3.623h-0.57V434.187z M520.98,436.509v1.187
		c0.105,0.543,0.365,1.02,0.779,1.429c0.563,0.563,1.238,0.843,2.029,0.843s1.467-0.279,2.025-0.839
		c0.561-0.56,0.84-1.235,0.84-2.026c0-0.79-0.279-1.467-0.84-2.028c-0.559-0.563-1.234-0.844-2.025-0.844s-1.467,0.281-2.029,0.844
		C521.346,435.488,521.086,435.966,520.98,436.509z"/>
	<path d="M531.664,433.63c0.961,0,1.779,0.338,2.453,1.015c0.676,0.676,1.012,1.495,1.012,2.457c0,0.953-0.336,1.769-1.012,2.447
		c-0.674,0.679-1.492,1.019-2.453,1.019c-0.953,0-1.77-0.34-2.447-1.019c-0.68-0.679-1.018-1.494-1.018-2.447
		c0-0.962,0.338-1.781,1.018-2.457C529.895,433.968,530.711,433.63,531.664,433.63z M529.639,435.074
		c-0.561,0.562-0.84,1.238-0.84,2.028c0,0.791,0.279,1.465,0.84,2.022c0.559,0.558,1.234,0.836,2.025,0.836s1.465-0.278,2.025-0.836
		c0.559-0.558,0.84-1.231,0.84-2.022c0-0.79-0.281-1.467-0.84-2.028c-0.561-0.563-1.234-0.844-2.025-0.844
		S530.197,434.511,529.639,435.074z"/>
</g>
<g id="shell" >
	<path fill-rule="evenodd" clip-rule="evenodd" fill="#00A7E2" d="M248.6,247.423c0,8.589-0.089,17.183,0.058,25.765
		c0.044,2.479-0.54,3.296-3.147,3.181c-22.849-1.007-44.074-7.334-63.692-19.064c-7.852-4.695-15.088-10.218-21.954-16.26
		c-1.583-1.396-1.809-2.213-0.223-3.781c12.674-12.527,25.293-25.11,37.861-37.741c1.418-1.426,2.269-1.268,3.697-0.053
		c12.716,10.81,27.387,17.056,44.058,18.333c2.733,0.208,3.488,1.106,3.422,3.857C248.469,230.245,248.6,238.835,248.6,247.423"/>
	<path fill-rule="evenodd" clip-rule="evenodd" fill="#0074B8" d="M144.841,137.143c-8.695,0-17.397-0.103-26.091,0.068
		c-2.493,0.047-3.032-0.699-2.93-3.055c1.13-25.834,9.063-49.372,23.652-70.685c3.641-5.318,7.66-10.338,11.953-15.154
		c1.227-1.378,1.939-1.428,3.252-0.105c12.634,12.724,25.298,25.42,38.054,38.021c1.737,1.717,0.867,2.675-0.238,3.979
		c-9.587,11.33-15.475,24.34-17.672,39.022c-0.049,0.319-0.133,0.631-0.174,0.95c-0.293,2.226,0.188,5.225-1.07,6.476
		c-1.463,1.454-4.49,0.446-6.833,0.462C159.445,137.179,152.141,137.143,144.841,137.143"/>
	<path fill-rule="evenodd" clip-rule="evenodd" fill="#005EA7" d="M248.6,33.74c0,8.8-0.039,17.599,0.032,26.397
		c0.019,1.875-0.199,2.767-2.502,2.925c-16.89,1.149-31.814,7.315-44.699,18.268c-1.774,1.508-2.638,1.504-4.294-0.176
		c-12.282-12.451-24.641-24.826-37.099-37.099c-1.942-1.911-1.579-2.836,0.209-4.472c20.304-18.583,44.441-29.059,71.276-33.845
		c4.645-0.83,9.313-1.373,14.06-1.38c2.337-0.004,3.128,0.492,3.082,2.989C248.499,16.143,248.6,24.943,248.6,33.74"/>
	<path fill-rule="evenodd" clip-rule="evenodd" fill="#2C4076" d="M311.143,90.737c-2.063-1.914-1.619-3.318,0.365-5.267
		c12.393-12.175,24.652-24.487,36.877-36.83c1.514-1.533,2.342-1.833,3.945-0.035c21.641,24.327,33.439,52.698,35.424,85.202
		c0.164,2.633-0.336,3.431-3.127,3.409c-17.047-0.138-34.102-0.147-51.152,0.002c-3.078,0.026-4.887-0.394-4.414-3.962
		c0.092-0.688-0.287-1.434-0.449-2.156c-0.432-0.299-0.52-0.642-0.133-1.044c0.047-1.174,0.148-2.357-0.541-3.414
		c-1.131-0.9-1.078-2.289-1.363-3.495c-2.508-10.659-6.924-20.407-13.678-29.068C312.123,93.081,311.199,92.129,311.143,90.737"/>
	<path fill-rule="evenodd" clip-rule="evenodd" fill="#0B163E" d="M255.311,247.197c-0.003-8.797,0.075-17.594-0.051-26.384
		c-0.035-2.256,0.725-2.875,2.886-3.046c16.384-1.31,30.886-7.325,43.446-17.906c1.82-1.534,2.877-1.805,4.721,0.065
		c12.35,12.525,24.797,24.952,37.307,37.32c1.609,1.591,1.645,2.373-0.076,3.898c-21.99,19.561-47.426,31.384-76.775,34.604
		c-2.992,0.33-5.979,0.448-8.97,0.626c-1.965,0.118-2.561-0.448-2.534-2.472C255.375,265,255.311,256.099,255.311,247.197"/>
	<path fill-rule="evenodd" clip-rule="evenodd" fill="#101B44" d="M387.711,147.698c-1.912,29.827-11.992,56.251-30.84,79.25
		c-1.629,1.987-3.393,3.865-5.021,5.854c-0.992,1.215-1.762,1.157-2.854,0.063c-12.939-12.996-25.896-25.979-38.914-38.898
		c-1.623-1.607-0.039-2.257,0.641-3.052c7.656-9.039,13.063-19.237,16.063-30.715c1.189-4.565,2.057-9.188,2.314-13.894
		c0.096-1.621,0.52-2.182,2.207-2.175c18.129,0.055,36.256,0.081,54.379-0.006C389.234,144.105,387.18,146.58,387.711,147.698"/>
	<path fill-rule="evenodd" clip-rule="evenodd" fill="#0098D5" d="M145.134,144.187c8.802,0,17.604,0.058,26.405-0.044
		c1.931-0.023,2.62,0.559,2.769,2.478c1.293,16.905,7.597,31.755,18.63,44.592c1.225,1.429,0.933,2.259-0.271,3.457
		c-12.635,12.563-25.239,25.157-37.795,37.799c-1.367,1.373-2.142,1.524-3.543-0.021c-18.459-20.318-29.843-44.021-34.13-71.123
		c-0.754-4.761-1.245-9.555-1.375-14.396c-0.063-2.34,0.726-2.821,2.907-2.794C127.529,144.257,136.332,144.187,145.134,144.187"/>
	<path fill-rule="evenodd" clip-rule="evenodd" fill="#263E94" d="M305.904,81.63c-0.982,0.471-1.758,2.104-3.104,0.559
		c-0.748-0.006-1.146-0.424-1.314-1.12c-12.38-10.793-26.926-16.452-43.144-17.934c-2.459-0.226-2.946-0.975-2.935-3.253
		c0.091-17.496,0.121-34.994-0.024-52.49c-0.022-2.776,0.97-3.095,3.304-2.947c28.965,1.847,54.983,11.418,77.76,29.521
		c2.432,1.933,4.729,4.043,7.178,5.955c1.652,1.286,1.682,2.169,0.115,3.705c-8.508,8.345-16.891,16.813-25.309,25.243
		c-0.375,0.374-0.68,0.812-1.02,1.221c-0.129,1.103-0.754,1.722-1.852,1.877c-1.289,0.897-2.385,1.991-3.281,3.285
		c-0.15,1.095-0.775,1.72-1.867,1.87c-1.295,0.897-2.389,1.991-3.289,3.285C307.027,81.125,306.611,81.523,305.904,81.63"/>

</g>
<g id="atom">
	<path fill-rule="evenodd" clip-rule="evenodd" fill="#005527" d="M326.631,142.502c-1.275,6.602-5.887,10.538-11.182,13.886
		c-6.627,4.197-13.93,6.806-21.634,8.88c0.251,1.173,1.336,2.139,1.034,3.445c-1.049,0.802-2.144,1.538-3.351,2.09
		c-0.315-0.099-0.668-0.276-0.726-0.569c-0.454-2.416-1.765-3.475-4.259-2.865c-0.402,0.099-0.828-0.151-1.194-0.397
		c-0.699-3.049,2.521-2.809,3.634-4.343c1.293-0.602,2.52-1.347,3.858-1.86c5.852-2.022,11.819-3.734,17.34-6.639
		c2.666-1.406,5.121-3.104,7.4-5.042c3.346-2.842,5.152-6.456,5.025-10.933c0.961-1.173,2.078-1.849,3.627-1.114
		c0.451,0.322,0.461,0.783,0.398,1.265C327.043,139.701,326.984,141.1,326.631,142.502"/>
	<path fill-rule="evenodd" clip-rule="evenodd" fill="#005325" d="M255.035,193.236c-3.892-2.89-3.899-2.898-7.653,0.325
		c-5.204,4.472-10.372,9.082-16.823,11.651c-5.9,2.348-12.002,4.114-18.026,0.099c-0.682-2.26,1.041-2.458,2.481-2.897
		c6.997,1.933,13.008-0.732,18.754-4.208c5.418-3.277,10.098-7.519,14.659-11.885c1.379-0.768,2.679-1.695,4.17-2.229
		c1.067-0.385,2.211-0.895,3.199,0.226c-0.785,2.029-0.676,3.799,1.305,5.169c0.505,0.35,0.778,0.997,0.703,1.692
		C257.104,192.164,256.225,192.912,255.035,193.236"/>
	<path fill-rule="evenodd" clip-rule="evenodd" fill="#54A142" d="M176.285,137.116c0.752-3.642,3.04-6.315,5.697-8.666
		c6.124-5.416,13.492-8.525,21.127-11.085c5.05-1.692,5.066-1.644,4.341-6.646c0.674-1.354,1.699-1.966,3.224-1.537
		c0.983,0.589,1.287,1.607,1.487,2.612c0.327,1.616,1.689,1.943,2.872,2.526c1.047,1.585-0.311,2.085-1.286,2.583
		c-1.542,0.789-2.79,1.869-3.843,3.216c-6.593,1.813-12.972,4.132-18.97,7.481c-3.886,2.17-6.841,5.382-9.998,8.384
		C179.375,136.303,178.027,137.537,176.285,137.116"/>
	<path fill-rule="evenodd" clip-rule="evenodd" fill="#70BE45" d="M205.54,96.553c-0.4-4.885,0.18-9.659,1.952-14.219
		c2.608-6.711,8.217-9.996,15.322-8.875c5.246,0.829,10.096,2.771,14.273,6.17c0.461,1.552-0.301,2.623-1.399,3.562
		c-2.854-0.324-4.916-2.42-7.503-3.377c-2.11-0.779-4.182-1.575-6.447-1.711c-5.558-0.334-8.791,1.938-10.485,7.278
		c-0.939,2.972-0.879,6.097-1.509,9.116C208.636,95.783,207.646,97.313,205.54,96.553"/>
	<path fill-rule="evenodd" clip-rule="evenodd" fill="#004017" d="M296.895,189.336c-0.172,3.496-1.18,6.848-2.131,10.151
		c-1.38,4.789-7.253,8.573-12.54,8.308c-3.665-0.184-7.291-0.818-10.514-2.801c-0.293-1.943,1.225-2.445,2.497-3.142
		c2.13,0.183,4.154,0.916,6.319,1.032c5.479,0.294,7.74-1.02,10.138-6.007c0.944-1.962,1.127-4.14,2.004-6.105
		c0.178-0.267,0.409-0.476,0.679-0.644C294.5,189.744,295.542,188.837,296.895,189.336"/>
	<path fill-rule="evenodd" clip-rule="evenodd" fill="#59A643" d="M253.093,89.461c6.063-6.107,12.791-11.276,20.881-14.444
		c3.918-1.536,7.927-2.478,12.118-1.064c-2.095,1.19-4.661,1.546-6.273,3.579c-6.199,2.256-11.918,5.438-17.409,9.064
		c-1.884,0.056-3.399,0.996-4.953,1.938C256.149,89.327,254.815,90.442,253.093,89.461"/>
	<path fill-rule="evenodd" clip-rule="evenodd" fill="#1E783A" d="M207.915,165.044c-3.89-1.211-7.841-2.241-11.491-4.118
		c-0.752-2.234,1.032-2.5,2.393-3.096c2.705-0.275,4.899,1.361,7.361,2.025c1.933,0.522,2.924,0.042,3.742-1.8
		c1.109-2.49,1.314-5.484,3.787-7.271c1.1-0.355,2.191-0.856,3.359-0.243c0.453,4.489-2.074,8.133-3.438,12.106
		C211.844,163.726,209.676,163.9,207.915,165.044"/>
	<path fill-rule="evenodd" clip-rule="evenodd" fill="#097037" d="M207.915,165.044c1.108-2.349,3.088-2.549,5.311-2.154
		c3.828-1.132,7.372,0.167,10.938,1.271c0.602,1.601,0.024,2.941-0.935,4.199c-2.595,0.413-5.07-0.429-7.559-0.876
		c-2.341-0.423-3.318,0.415-3.765,2.61c-0.33,1.627-0.314,3.449-1.754,4.689c-1.082,0.539-2.153,1.205-3.384,0.374
		C206.682,171.732,208.435,168.516,207.915,165.044"/>
	<path fill-rule="evenodd" clip-rule="evenodd" fill="#55A242" d="M253.093,89.461c2.149-0.275,3.838-1.505,5.617-2.609
		c0.984-0.61,2.063-1.499,3.416-0.766c-2.154,3.106-5.153,5.444-7.572,8.311c-2.811,0.831-5.136,2.922-8.169,3.183
		c-0.597-0.313-0.734-0.921-0.341-1.315c1.596-1.614,0.894-3.281,0.263-4.974c0.497-1.781,1.826-1.986,3.371-1.777
		C250.845,91.523,251.963,90.24,253.093,89.461"/>
	<path fill-rule="evenodd" clip-rule="evenodd" fill="#036230" d="M326.205,137.041c-1.281,0.113-2.322,0.809-3.408,1.396
		c-1.963-2.963-4.9-5.214-6.313-8.588c0.346-1.329,0.654-2.697,2.525-2.446c1.002,0.076,1.006,1.699,2.227,1.44
		C322.924,131.555,325.838,133.527,326.205,137.041"/>
	<path fill-rule="evenodd" clip-rule="evenodd" fill="#006934" d="M206.766,175.157c1.075-0.216,2.149-0.431,3.224-0.646
		c1.569,3.56-0.071,7.075-0.141,10.612c-1.037,1.588-2.343,2.489-4.308,1.628C205.21,182.809,205.715,178.953,206.766,175.157"/>
	<path fill-rule="evenodd" clip-rule="evenodd" fill="#00471E" d="M296.895,189.336c-1.066,0.426-2.129,0.853-3.193,1.281
		c-1.327-1.581-0.784-3.481-0.882-5.265c-0.087-1.602,0.116-3.223-0.357-4.795c-0.179-0.957-0.195-1.898,0.305-2.785
		c1.037-0.949,2.162-1.486,3.553-0.711l-0.009-0.026c0.619,1.021-0.027,2.229,0.486,3.265
		C297.174,183.309,297.273,186.318,296.895,189.336"/>
	<path fill-rule="evenodd" clip-rule="evenodd" fill="#00451C" d="M274.362,202.217c-0.773,1.032-2.142,1.495-2.654,2.777
		c-3.25-1.316-6.256-3.051-8.949-5.305c-0.725-2.26,1.059-2.425,2.438-2.925c3.053,0.953,5.707,2.712,8.489,4.206
		C274.162,201.223,274.565,201.572,274.362,202.217"/>
	<path fill-rule="evenodd" clip-rule="evenodd" fill="#006230" d="M205.542,186.75c1.217-0.429,2.438-0.858,3.658-1.287
		c1.767,3.173,0.899,6.822,1.842,10.141c-0.595,1.808-2.643,1.174-3.709,2.194C205.7,194.283,205.215,190.583,205.542,186.75"/>
	<path fill-rule="evenodd" clip-rule="evenodd" fill="#2D813D" d="M199.108,158.355c-1.104,0.635-2.625,0.845-2.684,2.571
		c-3.24-1.006-6.232-2.521-9.043-4.405c-0.661-2.157,0.748-2.68,2.384-3.037c2.563,0.785,4.945,2.021,7.446,2.977
		C198.081,156.793,199.082,157.12,199.108,158.355"/>
	<path fill-rule="evenodd" clip-rule="evenodd" fill="#004E22" d="M265.161,197.07c-0.768,0.901-2.299,1.104-2.401,2.618
		c-2.693-2.013-5.423-3.979-7.725-6.454c0.584-1.196,1.484-1.962,2.85-2.101C260.489,191.612,264.369,194.775,265.161,197.07"/>
	<path fill-rule="evenodd" clip-rule="evenodd" fill="#2F833D" d="M296.274,106.861c-0.192,0.258-0.391,0.515-0.585,0.773
		c-1.195-0.649-2.863,1.016-3.828-0.789c-0.386-2.401,0.425-4.694,0.597-7.048c0.672-2.192,1.326-4.412,4.449-3.241
		C297.391,100.033,296.271,103.413,296.274,106.861"/>
	<path fill-rule="evenodd" clip-rule="evenodd" fill="#005A2B" d="M207.333,197.798c0.464-1.81,1.514-2.283,3.162-1.381
		c1.976,1.833,3.677,3.868,4.678,6.414c-1.077,0.619-2.548,0.815-2.64,2.479C209.708,203.562,208.095,200.975,207.333,197.798"/>
	<path fill-rule="evenodd" clip-rule="evenodd" fill="#62AD45" d="M210.565,109.444c-1.039,0.424-2.078,0.85-3.116,1.275
		c-0.815-2.924-1.463-5.875-1.408-8.936c0.477-2.084,1.892-1.943,3.451-1.445C210.961,103.241,211.833,106.216,210.565,109.444"/>
	<path fill-rule="evenodd" clip-rule="evenodd" fill="#39893F" d="M189.785,153.903c-1.215,0.492-2.111,1.28-2.404,2.618
		c-2.594-1.667-5.085-3.458-7.057-5.869c-0.129-1.831,1.235-2.05,2.531-2.348C185.761,149.428,188.5,150.765,189.785,153.903"/>
	<path fill-rule="evenodd" clip-rule="evenodd" fill="#005125" d="M296.32,177.061c-1.106,0.229-2.214,0.456-3.32,0.683
		c-2-2.075-2.297-4.453-1.245-7.067c0.145-2.049,1.629-1.995,3.095-1.963C295.62,171.446,296.327,174.191,296.32,177.061"/>
	<path fill-rule="evenodd" clip-rule="evenodd" fill="#398B3E" d="M296.906,96.558c-2.038,0.151-3.256,1.237-3.701,3.22
		c-0.495-0.296-0.856-0.797-0.778-1.306c0.457-3.072-0.195-6.147,0.099-9.213c0.635-1.207,1.643-2.035,2.986-1.762
		c1.278,0.259,0.93,1.689,1.292,2.601C297.088,92.248,297.188,94.4,296.906,96.558"/>
	<path fill-rule="evenodd" clip-rule="evenodd" fill="#459341" d="M183.127,148.644c-1.028,0.541-2.257,0.797-2.804,2.01
		c-1.72-1.864-3.435-3.726-3.904-6.356c-0.627-1.27-0.23-2.233,0.897-2.965c1.092-0.717,1.981-0.489,2.676,0.598
		C180.682,144.331,183.203,145.883,183.127,148.644"/>
	<path fill-rule="evenodd" clip-rule="evenodd" fill="#55A143" d="M279.527,77.172c1.343-2.796,3.801-3.324,6.566-3.218
		c1.519,0.015,2.748,0.687,3.836,1.689c0.628,1.94-0.487,2.733-2.103,3.2C285.122,77.995,282.086,78.76,279.527,77.172"/>
	<path fill-rule="evenodd" clip-rule="evenodd" fill="#5EA944" d="M249.678,89.515c-0.974,0.758-2.645,0.471-3.074,2.048
		c-2.622-0.737-4.652-2.159-5.604-4.835c0.01-1.344,0.693-2.213,1.916-2.696C244.991,86.078,247.891,87.11,249.678,89.515"/>
	<path fill-rule="evenodd" clip-rule="evenodd" fill="#69B446" d="M242.917,84.031c-0.34,1.062-1.498,1.725-1.445,2.977
		c-2.709-0.303-4.576-1.764-5.749-4.178c0.456-1.066,0.907-2.135,1.363-3.2C239.219,80.848,241.15,82.33,242.917,84.031"/>
	<path fill-rule="evenodd" clip-rule="evenodd" fill="#4D9942" d="M287.908,78.41c0.89-0.762,2.103-1.29,2.021-2.766
		c2.406,1.698,4.291,3.785,5.028,6.735c-1.095,0.431-2.165,0.938-3.374,0.967C289.712,82.182,288.655,80.411,287.908,78.41"/>
	<path fill-rule="evenodd" clip-rule="evenodd" fill="#459241" d="M291.479,83.121c1.133-0.374,2.014-1.932,3.479-0.742
		c1.182,2.436,1.857,4.998,1.849,7.718c-0.591-2.222-1.925-2.324-3.661-1.268C291.347,87.29,290.993,85.328,291.479,83.121"/>
	<path fill-rule="evenodd" clip-rule="evenodd" fill="#4F9A42" d="M179.532,142.301c-2.644-1.844-2.711,0.334-3.112,1.995
		c-1.102-2.373-1.039-4.769-0.136-7.181c1.216-0.884,2.462-1.652,4.071-1.135C180.662,138.162,181.125,140.367,179.532,142.301"/>
	<path fill-rule="evenodd" clip-rule="evenodd" fill="#6BB745" d="M209.233,100.421c-1.121,0.323-2.343,0.401-3.192,1.363
		c-0.717-1.692-0.601-3.461-0.502-5.23c1.22-0.643,2.439-1.287,3.66-1.933C210.697,96.546,210.666,98.479,209.233,100.421"/>
	<path fill-rule="evenodd" clip-rule="evenodd" fill="#FFFFFF" d="M310.412,77.122"/>
	<path fill-rule="evenodd" clip-rule="evenodd" fill="#FFFFFF" d="M312.279,75.253"/>
	<path fill-rule="evenodd" clip-rule="evenodd" fill="#FFFFFF" d="M310.412,77.122"/>
	<path fill-rule="evenodd" clip-rule="evenodd" fill="#FFFFFF" d="M301.486,81.069"/>
	<path fill-rule="evenodd" clip-rule="evenodd" fill="#FFFFFF" d="M301.486,81.069c0.439,0.373,0.877,0.746,1.314,1.12"/>
	<path fill-rule="evenodd" clip-rule="evenodd" fill="#0F5F2F" d="M326.631,142.502c-0.008-1.401-0.021-2.799-0.027-4.197
		C327.383,139.698,327.318,141.099,326.631,142.502"/>
	<path fill-rule="evenodd" clip-rule="evenodd" fill="#005125" d="M296.797,180.299c-0.887-0.98-0.446-2.158-0.486-3.264
		C296.945,178.052,296.906,179.17,296.797,180.299"/>
	<path fill-rule="evenodd" clip-rule="evenodd" fill="#227A3B" d="M292.398,107.508c1.098,0.057,2.301-2.678,3.291,0.126
		c-0.495,2.745-0.99,5.486-1.484,8.23c-2.069,0.44-3.817,1.6-5.65,2.574c-3.279,0.164-6.447-0.293-9.483-1.577
		c-0.837-1.925,0.782-2.742,1.74-3.857c1.718-0.798,3.375-0.02,5.038,0.251c3.597,0.588,3.74,0.527,4.799-2.86
		C290.993,109.293,291.074,108.019,292.398,107.508"/>
	<path fill-rule="evenodd" clip-rule="evenodd" fill="#0D6F37" d="M300.15,117.812c3.902,0.936,7.604,2.367,11.02,4.488
		c-1.051,0.987-1.994,2.095-3.152,2.978c-4.074-0.884-7.713-2.953-11.634-4.248c-0.619-0.203-1.04-0.726-1.059-1.456
		C296.241,117.082,298.1,117.186,300.15,117.812"/>
	<path fill-rule="evenodd" clip-rule="evenodd" fill="#056833" d="M308.49,124.99c-0.783-2.566,1.459-2.124,2.68-2.69
		c2.57,1.766,5.834,2.467,7.84,5.102c-1.301,0.451-1.598,1.691-2.145,2.731C313.672,129.072,310.623,127.779,308.49,124.99"/>
	<path fill-rule="evenodd" clip-rule="evenodd" fill="#1C763A" d="M300.15,117.812c-1.869-0.022-3.633,0.183-4.59,2.133
		c-1.506,0.164-2.598,1.008-3.504,2.155c-1.28,0.48-2.568,1.009-3.843-0.024c-0.427-1.493-0.053-2.814,0.864-4.018
		c1.162-2.008,2.713-3.11,5.127-2.195C296.109,116.752,298.402,116.446,300.15,117.812"/>
	<path fill-rule="evenodd" clip-rule="evenodd" fill="#00592A" d="M285.327,166.782c-3.22,1.213-6.667,1.51-10,1.753
		c-4.946,0.362-9.091,1.481-11.401,6.338c-0.306,0.638-0.98,1.104-1.484,1.648c-1.358,1.014-2.718,2.037-4.587,1.505
		c-1.183-1.021-0.423-1.965,0.254-2.729c1.684-1.904,3.032-4.105,5.02-5.741c3.146-1.658,6.438-3.013,9.565-4.719
		c5.211-1.111,10.424-2.209,15.77-2.452c0.346,0.113,0.619,0.325,0.816,0.632C288.535,164.875,285.8,164.644,285.327,166.782"/>
	<path fill-rule="evenodd" clip-rule="evenodd" fill="#00592A" d="M288.62,151.286c2.475,3.005,2.764,6.983,4.568,10.289
		c-1.473,0.029-2.366,1.615-3.909,1.443l-0.088-0.108c-1.665-2.983-2.807-6.156-3.493-9.499
		C286.26,152.136,286.914,150.981,288.62,151.286"/>
	<path fill-rule="evenodd" clip-rule="evenodd" fill="#005829" d="M248.424,186.813c-1.933-2.312-4.256-4.313-5.669-7.044
		c-0.198-1.691,0.915-1.87,2.169-1.886c1.882,0.828,3.474,2.083,4.73,3.683c1.215,1.55,2.187,1.271,3.342-0.031
		c1.303-1.465,2.055-3.582,4.392-3.893c1.684-0.374,3.37-0.748,5.053-1.121c-2.099,2.855-4.108,5.786-6.774,8.175
		c-1.579-1.036-2.825,0.1-4.059,0.74C250.569,185.972,249.631,186.688,248.424,186.813"/>
	<path fill-rule="evenodd" clip-rule="evenodd" fill="#4D9A41" d="M211.269,123.608c-0.787-1.161-1.186-2.456-1.333-3.838
		c0.217-1.471,1.174-2.19,2.39-2.977c0.951-0.617,2.675-0.515,2.776-2.232c4.872-1.464,9.988-1.479,14.933-2.515
		c1.449-0.304,2.923-0.485,4.385-0.723c-0.578,2.586-3.337,3.115-4.688,4.978c-4.355,0.88-8.745,1.612-13.15,2.18
		c-2.104,0.271-2.819,1.056-2.325,3.05C213.89,123.13,212.978,123.943,211.269,123.608"/>
	<path fill-rule="evenodd" clip-rule="evenodd" fill="#005125" d="M293.176,190.622c-0.006-3.436-0.006-6.872-0.01-10.309
		c1.225,3.38,0.25,6.875,0.535,10.304C293.527,190.619,293.351,190.624,293.176,190.622"/>
	<path fill-rule="evenodd" clip-rule="evenodd" fill="#2A803C" d="M221.377,147.518c-0.825-0.457-0.732-1.737-1.942-2.069
		c-0.778,1.74-1.564,3.49-2.348,5.239c-1.194,0.061-2.272,0.878-3.527,0.538c1.374-3.404,2.748-6.811,4.124-10.217
		c1.354-1.321,2.935-1.78,4.774-1.246c0.632,2.135,2.309,3.958,1.9,6.404C223.561,147.045,222.778,147.964,221.377,147.518"/>
	<path fill-rule="evenodd" clip-rule="evenodd" fill="#036B35" d="M224.158,164.761c2.276,0.419,4.551,0.867,7.06,0.643
		c-0.382-1.736-2.036-2.654-1.991-4.315c-0.155-1.747,0.789-2.384,2.379-2.363c2.576,2.112,3.963,5.33,6.754,7.244
		c-0.088,2.523-2.359,2.834-3.924,3.862c-3.655-0.634-7.316-1.27-10.972-1.904C222.655,166.644,223.856,165.801,224.158,164.761"/>
	<path fill-rule="evenodd" clip-rule="evenodd" fill="#4F9D42" d="M254.233,94.004c1.321,1.716,2.64,3.431,3.963,5.145
		c-0.871,0.929-2.038,1.244-3.212,1.54c-0.217-0.007-0.419-0.069-0.62-0.133c-1.338-0.421-1.575-2.765-3.173-2.269
		c-1.494,0.464-2.384,2.065-3.493,3.211c-2.344,2.424-3.824,5.679-7.005,7.311c-1.518-0.063-2.807,1.652-4.449,0.588
		c2.868-4.379,6.175-8.412,9.789-12.195C248.965,96.645,251.113,94.074,254.233,94.004"/>
	<path fill-rule="evenodd" clip-rule="evenodd" fill="#2C823C" d="M278.898,116.402c-2.499-0.366-5-0.731-7.777-1.137
		c0.698,1.44,1.282,2.647,1.866,3.854c-0.854,0.896-1.72,1.773-2.975,2.105c-0.311-0.098-0.665-0.206-0.823-0.462
		c-1.864-3.055-4.407-5.255-7.858-6.343c1.576-2.511,3.621-3.996,6.757-3.112c3.104,0.448,6.211,0.872,9.31,1.349
		c1.147,0.175,2.279,0.469,3.419,0.71C280.838,114.795,279.428,115.32,278.898,116.402"/>
	<path fill-rule="evenodd" clip-rule="evenodd" fill="#086F37" d="M283.932,133.887c1.467-3.875,2.936-7.75,4.402-11.627
		c1.144-0.193,2.283-0.386,3.429-0.581c-1.635,3.816-2.315,7.996-4.444,11.623C286.247,133.819,285.313,135.139,283.932,133.887"/>
	<path fill-rule="evenodd" clip-rule="evenodd" fill="#046632" d="M288.62,151.286c-0.85,0.656-1.698,1.313-2.547,1.967
		c-2.02-1.502-1.863-4.175-3.301-6.116c-2.308,2.279-2.535,6.069-5.62,7.736c-1.216,0.002-2.493,0.656-3.62-0.326
		c0.243-4.123,2.735-7.104,5.124-10.145c2.36-0.188,3.868-3.067,6.599-2.104C286.176,145.371,288.398,147.952,288.62,151.286"/>
	<path fill-rule="evenodd" clip-rule="evenodd" fill="#026A34" d="M285.254,142.298c-2.395,0.195-3.79,2.89-6.392,2.572
		c-0.563-2.513,0.91-4.953,0.254-7.47c0.577-1.266,1.289-2.353,2.935-2.183c0.701,0.378,0.898,0.239,1.881-1.33
		c1.132-0.194,2.257-0.39,3.387-0.584C286.223,136.206,285.045,139.094,285.254,142.298"/>
	<path fill-rule="evenodd" clip-rule="evenodd" fill="#005E2D" d="M277.022,154.706c-1.729,3.118-3.455,6.237-5.186,9.353
		c-0.43,0.767-0.974,1.557,0.593,1.556c-2.77,2.072-6.015,3.166-9.161,4.462c-3.597-0.06-7.19-0.122-10.785-0.182
		c-0.01-1.986,1.446-2.808,2.886-3.646c1.119-0.35,2.279-0.308,3.43-0.332c1.254,0.002,2.521,0.109,3.747-0.288
		c2.403-0.234,4.031-1.52,5.258-3.568c1.139-1.899,2.262-3.811,3.467-5.668c0.563-0.861,0.96-1.941,2.272-1.924
		C274.666,155.069,275.954,153.272,277.022,154.706"/>
	<path fill-rule="evenodd" clip-rule="evenodd" fill="#006330" d="M255.047,166.812c-0.854,1.028-1.71,2.054-2.564,3.081h-12.986
		c1.459,2.218,2.697,4.101,3.939,5.984c0.193,1.502-0.102,2.624-1.968,2.516c-2.342-2.854-4.688-5.707-7.032-8.562
		c0.58-1.956,2.96-1.98,3.861-3.594c0.222-0.227,0.395-0.579,0.726-0.602C244.417,165.292,249.795,165.201,255.047,166.812"/>
	<path fill-rule="evenodd" clip-rule="evenodd" fill="#07602F" d="M241.468,178.393c1.177-0.431,1.407-1.605,1.969-2.516
		c1.055,0.516,1.763,1.299,1.936,2.502c-1.164-0.081-2.145,0.173-2.619,1.39C242.326,179.312,241.897,178.852,241.468,178.393"/>
	<path fill-rule="evenodd" clip-rule="evenodd" fill="#459440" d="M236.244,109.396c1.674-0.109,2.956-1.837,4.82-1.18
		c0.617,1.683,2.043,1.599,3.441,1.596c6.06-0.01,12.115,0.029,18.166-0.047c2.245,1.866,0.247,2.144-1.001,2.321
		c-2.614,0.371-5.269,0.11-7.903,0.16c-1.056,0.021-2.112-0.036-3.148,0.237c-1.097,0.287-0.802,1.023-0.58,1.75
		c-0.656,1.292-1.907,1.156-3.033,1.226c-1.472,0.088-2.964,0.159-4.423,0.006c-3.323-0.351-5.974,0.812-8.14,3.264
		c-2.094,0.374-3.399,2.594-5.708,2.481c-1.235-2.167,1.291-3.513,1.188-5.435c0.4-2.594,3.287-2.677,4.499-4.454
		C235.026,110.681,235.637,110.038,236.244,109.396"/>
	<path fill-rule="evenodd" clip-rule="evenodd" fill="#34873E" d="M222.09,139.722c-1.471,0.427-2.936,0.857-4.406,1.287
		c-0.687-2.056-1.375-4.109-2.063-6.163c-0.152-1.74,0.927-2.277,2.385-2.445c1.302,1.281,2.334,1.482,3.211-0.522
		c0.499-1.142,1.261-2.216,2.32-2.992c1.447-0.381,3.074-2.73,4.217,0.366C226.396,133.025,225.346,136.971,222.09,139.722"/>
	<path fill-rule="evenodd" clip-rule="evenodd" fill="#418F40" d="M218.153,132.638c-0.934,0.635-2.169,0.92-2.532,2.208
		c-1.355-2.543-2.497-5.168-3.176-7.979c0.906-1.626,2.099-2.058,3.682-0.894C217.26,128.053,218.94,129.974,218.153,132.638"/>
	<path fill-rule="evenodd" clip-rule="evenodd" fill="#4D9942" d="M215.661,126.195c-1.293-0.831-2.164,0.348-3.216,0.672
		c-0.725-0.966-1.023-2.088-1.175-3.259c0.952-0.557,2.152-0.804,2.578-2.033C215.743,122.608,216.448,124.11,215.661,126.195"/>
	<path fill-rule="evenodd" clip-rule="evenodd" fill="#3D8C3F" d="M250.108,114.061c-0.734-0.08-1.468-0.163-2.365-0.262
		c0.677-1.833,1.9-2.459,3.662-2.433c3.305,0.044,6.61,0.056,9.916-0.031c0.663-0.018,2.3,0.715,1.634-1.251
		c-1.915-0.582-3.203-1.658-3.065-3.868c0.657-0.981,1.266-2.076,2.753-1.28c1.814,2.124,3.632,4.25,5.445,6.373
		c-2.654,0.125-4.612,1.687-6.595,3.194C257.634,116.034,253.814,116.476,250.108,114.061"/>
	<path fill-rule="evenodd" clip-rule="evenodd" fill="#479441" d="M262.642,104.936c-1.161-0.017-1.728,1.146-2.753,1.394
		c-2.73-1.029-4.131-3.165-4.864-5.854c0.799-1.061,1.909-1.377,3.171-1.327C259.813,100.973,261.462,102.774,262.642,104.936"/>
	<path fill-rule="evenodd" clip-rule="evenodd" fill="#147239" d="M231.771,159.053c-1.314,0.094-1.999,0.977-2.545,2.035
		c-1.761-2.437-3.351-4.971-4.493-7.765c-0.112-1.788,0.823-2.434,2.49-2.285C229.121,153.491,231.821,155.492,231.771,159.053"/>
	<path fill-rule="evenodd" clip-rule="evenodd" fill="#247A3C" d="M227.211,151.326c-1.278,0.109-1.944,0.974-2.479,1.998
		c-1.411-1.767-2.486-3.726-3.355-5.805c0.998-0.354,1.629-1.474,2.85-1.358C226.226,147.301,227.711,148.738,227.211,151.326"/>
	<path fill-rule="evenodd" clip-rule="evenodd" fill="#086F37" d="M279.349,137.211c-1.506-2.764-3.327-5.364-4.366-8.369
		c-0.022-1.717,0.605-2.633,2.479-1.999c1.411,2.855,3.745,5.207,4.59,8.372C281.151,135.88,280.251,136.545,279.349,137.211"/>
	<path fill-rule="evenodd" clip-rule="evenodd" fill="#237A3B" d="M277.461,126.844c-1.279,0.104-1.939,0.977-2.479,1.999
		c-1.738-2.419-3.285-4.952-4.553-7.65c0.316-1.348,1.35-1.814,2.558-2.073C274.477,121.695,275.969,124.268,277.461,126.844"/>
	<path fill-rule="evenodd" clip-rule="evenodd" fill="#006330" d="M258.606,166.696c1.304-0.926,2.761-0.375,4.156-0.44
		C261.462,167.228,259.999,166.634,258.606,166.696"/>
	<path fill-rule="evenodd" clip-rule="evenodd" fill="#419040" d="M233.858,118.484c-2.179,3.572-4.355,7.142-6.536,10.711
		c-1.374-2.196-2.449,0.685-3.721,0.221c1.644-2.8,3.29-5.603,4.933-8.402C230.564,120.706,231.501,118.101,233.858,118.484"/>
</g>
<path id="nucleus" fill-rule="evenodd" clip-rule="evenodd" fill="#6B7F56" d="M251.155,125.496
	c8.192-0.901,15.361,7.123,14.979,14.814c-0.431,8.707-6.303,14.885-15.068,14.876c-8.512-0.008-14.701-6.239-14.711-14.815
	C236.34,131.407,242.219,125.501,251.155,125.496"/>
<g>
	<path d="M4.636,418.036c0,0,8.306-0.086,22.845-0.241c14.537-0.113,35.306-0.273,60.227-0.466
		c24.921-0.111,53.997-0.244,85.147-0.385c31.152-0.052,64.382-0.11,97.611-0.167c33.229,0.057,66.456,0.113,97.61,0.167
		c31.15,0.138,60.227,0.271,85.146,0.385c24.924,0.189,45.691,0.353,60.227,0.463c14.539,0.158,22.846,0.244,22.846,0.244
		s-8.307,0.089-22.846,0.246c-14.535,0.111-35.303,0.271-60.227,0.464c-24.92,0.113-53.996,0.244-85.146,0.385
		c-31.154,0.054-64.381,0.11-97.61,0.167c-33.229-0.059-66.458-0.115-97.611-0.167c-31.151-0.144-60.226-0.274-85.147-0.385
		c-24.921-0.192-45.69-0.353-60.227-0.466C12.942,418.125,4.636,418.036,4.636,418.036"/>
</g>
<g>
	<g>
		<path fill="#55A242" d="M580.369,412.983l2.711,0.01c5.566,0.019,9.949,3.989,11.691,9.05c1.482-5.27,6.035-8.331,10.576-8.315
			l2.564,0.008c8.863,0.03,13.307,7.518,13.281,15.282c-0.027,7.912-4.008,15.225-12.725,15.195c0,0-1.686,0.068-3.223-0.011
			c-4.322-0.015-8.928-3.18-10.447-8.606c-1.41,5.051-5.818,9.138-11.68,9.118l-2.563-0.009c-8.572-0.028-13.531-6.785-13.5-15.942
			C567.088,419.532,572.092,412.956,580.369,412.983z M580.938,440.091l2.125,0.007c6.959,0.023,9.836-5.975,9.854-11.176
			c0.018-5.494-3.039-11.292-9.779-11.314l-2.49-0.009c-6.008-0.02-9.979,5.168-10,11.248
			C570.625,435.294,574.271,440.069,580.938,440.091z M605.92,439.809l2.637,0.009c6.227,0.021,9.031-5.611,9.049-11.032
			c0.018-5.128-3.262-10.56-9.268-10.58l-2.418-0.008c-6.666-0.022-9.545,6.121-9.561,10.883
			C596.342,434.135,599.912,439.789,605.92,439.809z"/>
	</g>
	<g>
		<path fill="#55A242" d="M571.627,376.324l-0.045,13.187l44.688,0.15l-2.23-12.169l3.152-0.355l3.318,14.956l-0.006,2.052
			l-48.936-0.165l-0.043,12.307l-3.443-0.012l0.102-29.962L571.627,376.324z"/>
	</g>
	<g>
		<path fill="#55A242" d="M582.172,334.822l24.395,0.082c9.742,0.032,14.918,7.962,14.887,16.973
			c-0.031,9.304-5.258,16.61-15,16.578l-24.322-0.082c-9.596-0.032-14.844-7.814-14.814-16.678
			C567.348,342.464,572.355,334.789,582.172,334.822z M582.514,363.758l24.102,0.081c5.934,0.021,11.15-4.356,11.176-12.048
			c0.025-7.619-5.16-12.252-11.387-12.273l-24.029-0.081c-6.227-0.021-11.295,4.504-11.322,12.27
			C571.027,359.398,575.92,363.736,582.514,363.758z"/>
	</g>
	<g>
		<path fill="#55A242" d="M571.381,297.422l15.412,13.824c6.426,5.663,12.566,9.859,21.357,9.889
			c5.568,0.019,9.754-3.264,9.777-10.297c0.021-5.86-3.115-10.193-8.609-10.212l-1.906-0.006l0.016-4.249l1.904,0.006
			c8.131,0.028,12.359,6.269,12.33,14.986c-0.033,9.744-5.764,14.486-13.602,14.46c-10.256-0.034-17.709-5.848-26.107-13.421
			l-9.641-8.971h-0.072l-0.08,23.589l-3.809-0.013l0.1-29.597L571.381,297.422z"/>
	</g>
</g>
<g>
	<rect x="554.25" y="297.87" width="1" height="148.767"/>
</g>
<g>
	<path fill="#EF392C" d="M163.411,307.853c3.286-0.55,6.525-0.823,9.721-0.823c3.103,0,6.298,0.273,9.585,0.823v71.885
		c0,2.831,0.156,5.113,0.481,6.849c0.317,1.732,0.821,3.08,1.504,4.036c0.685,0.959,1.574,1.624,2.668,1.989
		c1.097,0.362,2.464,0.544,4.11,0.544c0.729,0,1.525-0.044,2.397-0.135c0.863-0.092,1.707-0.229,2.532-0.409
		c1,3.743,1.505,7.391,1.505,10.951v1.984c0,0.594-0.092,1.254-0.275,1.986c-1.46,0.456-3.215,0.771-5.271,0.959
		c-2.054,0.18-3.949,0.275-5.68,0.275c-7.033,0-12.667-1.941-16.911-5.82c-4.246-3.882-6.367-10.2-6.367-18.967V307.853z"/>
</g>
</svg>
