<svg width="195" height="29" viewBox="0 0 195 29" fill="none" xmlns="http://www.w3.org/2000/svg">
<rect width="195" height="29" rx="14.5" fill="url(#paint0_linear)"/>
<path d="M63.1885 17.6943C62.8512 18.1774 62.3796 18.5397 61.7734 18.7812C61.1719 19.0182 60.4701 19.1367 59.668 19.1367C58.8568 19.1367 58.1367 18.9476 57.5078 18.5693C56.8789 18.1865 56.3913 17.6442 56.0449 16.9424C55.7031 16.2406 55.5277 15.4271 55.5186 14.502V13.6338C55.5186 12.1344 55.8672 10.9723 56.5645 10.1475C57.2663 9.32259 58.2507 8.91016 59.5176 8.91016C60.5566 8.91016 61.3929 9.17676 62.0264 9.70996C62.6598 10.2386 63.0472 10.9906 63.1885 11.9658H61.876C61.6299 10.6488 60.846 9.99023 59.5244 9.99023C58.6449 9.99023 57.9772 10.3001 57.5215 10.9199C57.0703 11.5352 56.8424 12.4284 56.8379 13.5996V14.4131C56.8379 15.5296 57.0931 16.4183 57.6035 17.0791C58.1139 17.7354 58.8044 18.0635 59.6748 18.0635C60.167 18.0635 60.5977 18.0088 60.9668 17.8994C61.3359 17.79 61.6413 17.6055 61.8828 17.3457V15.1104H59.5791V14.0439H63.1885V17.6943ZM71.0088 14.3994H66.6953V17.9268H71.7061V19H65.3828V9.04688H71.6377V10.127H66.6953V13.3262H71.0088V14.3994ZM80.3535 10.127H77.1543V19H75.8486V10.127H72.6562V9.04688H80.3535V10.127ZM91.6328 10.127H88.4336V19H87.1279V10.127H83.9355V9.04688H91.6328V10.127ZM94.5176 19H93.2051V9.04688H94.5176V19ZM104.245 15.8418C104.122 16.8945 103.732 17.708 103.076 18.2822C102.424 18.8519 101.556 19.1367 100.472 19.1367C99.2959 19.1367 98.3525 18.7152 97.6416 17.8721C96.9352 17.029 96.582 15.901 96.582 14.4883V13.5312C96.582 12.6061 96.7461 11.7926 97.0742 11.0908C97.4069 10.389 97.8763 9.85124 98.4824 9.47754C99.0885 9.09928 99.7904 8.91016 100.588 8.91016C101.645 8.91016 102.493 9.20638 103.131 9.79883C103.769 10.3867 104.14 11.2025 104.245 12.2461H102.926C102.812 11.4531 102.563 10.8789 102.181 10.5234C101.802 10.168 101.271 9.99023 100.588 9.99023C99.7493 9.99023 99.0908 10.3001 98.6123 10.9199C98.1383 11.5397 97.9014 12.4215 97.9014 13.5654V14.5293C97.9014 15.6094 98.127 16.4684 98.5781 17.1064C99.0293 17.7445 99.6605 18.0635 100.472 18.0635C101.201 18.0635 101.759 17.8994 102.146 17.5713C102.538 17.2386 102.798 16.6621 102.926 15.8418H104.245ZM108.572 14.3721L107.355 15.6367V19H106.043V9.04688H107.355V13.9688L111.778 9.04688H113.364L109.447 13.4424L113.672 19H112.1L108.572 14.3721ZM120.446 14.3994H116.133V17.9268H121.144V19H114.82V9.04688H121.075V10.127H116.133V13.3262H120.446V14.3994ZM129.791 10.127H126.592V19H125.286V10.127H122.094V9.04688H129.791V10.127ZM134.091 14.5635C132.965 14.2399 132.145 13.8434 131.63 13.374C131.119 12.9001 130.864 12.3167 130.864 11.624C130.864 10.8402 131.176 10.193 131.801 9.68262C132.43 9.16764 133.245 8.91016 134.248 8.91016C134.932 8.91016 135.54 9.04232 136.073 9.30664C136.611 9.57096 137.026 9.93555 137.317 10.4004C137.614 10.8652 137.762 11.3734 137.762 11.9248H136.442C136.442 11.3232 136.251 10.8516 135.868 10.5098C135.485 10.1634 134.945 9.99023 134.248 9.99023C133.601 9.99023 133.095 10.1338 132.73 10.4209C132.37 10.7035 132.19 11.0977 132.19 11.6035C132.19 12.0091 132.361 12.3532 132.703 12.6357C133.049 12.9137 133.635 13.1689 134.46 13.4014C135.289 13.6338 135.937 13.8913 136.401 14.1738C136.871 14.4518 137.217 14.7777 137.44 15.1514C137.668 15.5251 137.782 15.9648 137.782 16.4707C137.782 17.2773 137.468 17.9245 136.839 18.4121C136.21 18.8952 135.369 19.1367 134.316 19.1367C133.633 19.1367 132.995 19.0068 132.402 18.7471C131.81 18.4827 131.352 18.1227 131.028 17.667C130.709 17.2113 130.55 16.694 130.55 16.1152H131.869C131.869 16.7168 132.09 17.193 132.532 17.5439C132.979 17.8903 133.574 18.0635 134.316 18.0635C135.009 18.0635 135.54 17.9222 135.909 17.6396C136.278 17.3571 136.463 16.972 136.463 16.4844C136.463 15.9967 136.292 15.6208 135.95 15.3564C135.608 15.0876 134.989 14.8232 134.091 14.5635Z" fill="white"/>
<defs>
<linearGradient id="paint0_linear" x1="-31.5" y1="14" x2="216.5" y2="14" gradientUnits="userSpaceOnUse">
<stop stop-color="#3A6EA5"/>
<stop offset="1" stop-color="#1B998B"/>
</linearGradient>
</defs>
</svg>
