<svg width="2572" height="400" viewBox="0 0 2572 400" fill="none" xmlns="http://www.w3.org/2000/svg">
<g clip-path="url(#clip0)">
<rect width="2572" height="400" fill="white"/>
<rect x="2594" y="388" width="2618" height="388" transform="rotate(-180 2594 388)" fill="url(#paint0_linear)"/>
<g filter="url(#filter0_d)">
<circle cx="1322" cy="153" r="128" fill="#E2803A" fill-opacity="0.37"/>
</g>
<path d="M2374 402C2182 430 1938.77 42.4634 1818.65 27.2742C1648.35 5.73744 1477.82 142.439 1239.17 214.531C1000.52 286.623 915.59 243.322 728.029 185.74C540.468 128.157 243.22 149.694 30 185.74C-183.22 221.786 -158.003 214.531 -379.625 149.694C-494.069 116.142 -651.43 121.129 -777 133.825V1385H2402L2374 402Z" fill="#D7E1E1"/>
<rect x="2594" y="388" width="2618" height="388" transform="rotate(-180 2594 388)" fill="url(#paint1_linear)"/>
<path d="M2631 350C2463.35 311.905 2293 30.0224 2190 17C2043.96 -1.46467 1834.64 288.192 1630 350C1425.36 411.808 1286.83 66.3686 1126 17C965.166 -32.3687 886 168.66 742 193C559.163 223.904 95.0411 461.588 -95 406C-193.136 377.234 -102.323 -65.8844 -210 -55L-95 1312H2631V350Z" fill="#B1B3AF"/>
<path d="M72.8032 381.456H69.7676V397.199H72.8032V381.456Z" fill="#2A0043"/>
<path d="M74.1331 347.41C72.9336 345.21 69.6373 345.21 68.4377 347.41C62.4967 358.308 50.9422 383.536 71.2846 383.536C91.6286 383.536 80.0741 358.309 74.1331 347.41Z" fill="#2A0043"/>
<path d="M35.9327 383.04H34.2888V391.567H35.9327V383.04Z" fill="#2A0043"/>
<path d="M36.6528 364.598C36.0029 363.406 34.2169 363.406 33.567 364.598C30.3493 370.502 24.0892 384.167 35.1091 384.167C46.1306 384.167 39.8705 370.502 36.6528 364.598Z" fill="#2A0043"/>
<path d="M134.575 390.208H132.932V398.735H134.575V390.208Z" fill="#2A0043"/>
<path d="M135.296 371.765C134.646 370.573 132.86 370.573 132.21 371.765C128.992 377.669 122.732 391.335 133.752 391.335C144.773 391.335 138.513 377.669 135.296 371.765Z" fill="#2A0043"/>
<path d="M120.923 388.745H119.279V397.272H120.923V388.745Z" fill="#2A0043"/>
<path d="M121.643 370.302C120.993 369.11 119.207 369.11 118.557 370.302C115.339 376.207 109.079 389.872 120.099 389.872C131.121 389.872 124.86 376.207 121.643 370.302Z" fill="#2A0043"/>
<path d="M52.6664 381.456H49.6307V397.199H52.6664V381.456Z" fill="#2A0043"/>
<path d="M53.9946 347.41C52.7951 345.21 49.4988 345.21 48.2992 347.41C42.3583 358.308 30.8037 383.536 51.1461 383.536C71.4918 383.536 59.9356 358.309 53.9946 347.41Z" fill="#2A0043"/>
<ellipse cx="23" cy="391.5" rx="10" ry="3.5" fill="#C4C4C4" fill-opacity="0.59"/>
<path d="M22.507 348.573L23.7617 390.921H21.2523L22.507 348.573Z" fill="#2A0043"/>
<path d="M22.1277 373.801L32.6748 364.476L22.8879 374.525L22.1277 373.801Z" fill="#2A0043"/>
<path d="M22.1278 377.284L8.89594 363.958L22.888 376.56L22.1278 377.284Z" fill="#2A0043"/>
<path d="M40.6256 358.481C41.0316 357.259 39.8254 356.11 38.5423 356.497C32.1836 358.413 18.2701 363.615 25.7114 370.704C33.1526 377.792 38.6141 364.538 40.6256 358.481Z" fill="#2A0043"/>
<path d="M5.08005 361.766C4.67407 360.544 5.8803 359.395 7.1634 359.782C13.5221 361.698 27.4356 366.9 19.9943 373.988C12.5531 381.076 7.09157 367.823 5.08005 361.766Z" fill="#2A0043"/>
<path d="M24.3715 345.08C23.5863 343.64 21.4278 343.64 20.6425 345.08C16.7515 352.218 9.18493 368.738 22.507 368.738C35.8308 368.74 28.2626 352.218 24.3715 345.08Z" fill="#2A0043"/>
<path d="M1585.72 376.872H1578.33V417.13H1585.72V376.872Z" fill="#505050"/>
<path d="M1588.96 289.808C1586.04 284.183 1578.01 284.183 1575.09 289.808C1560.62 317.677 1532.47 382.195 1582.03 382.195C1631.58 382.191 1603.43 317.677 1588.96 289.808Z" fill="#505050"/>
<path d="M1747.34 371.626H1736.41V431.155H1747.34V371.626Z" fill="#505050"/>
<path d="M1752.13 242.879C1747.81 234.561 1735.93 234.561 1731.61 242.879C1710.21 284.094 1668.59 379.493 1741.87 379.493C1815.15 379.493 1773.53 284.094 1752.13 242.879Z" fill="#505050"/>
<path d="M1527.52 376.872H1520.13V417.13H1527.52V376.872Z" fill="#505050"/>
<path d="M1530.76 289.808C1527.84 284.183 1519.81 284.183 1516.89 289.808C1502.41 317.677 1474.27 382.195 1523.82 382.195C1573.38 382.191 1545.23 317.677 1530.76 289.808Z" fill="#505050"/>
<path d="M1469 385.59H1464.58V409.65H1469V385.59Z" fill="#505050"/>
<path d="M1470.93 333.554C1469.19 330.192 1464.39 330.192 1462.64 333.554C1454 350.211 1437.17 388.768 1466.79 388.768C1496.4 388.768 1479.58 350.211 1470.93 333.554Z" fill="#505050"/>
<path d="M1683.66 270.92L1688.06 426.686H1679.27L1683.66 270.92Z" fill="#505050"/>
<path d="M1682.33 363.715L1719.29 329.419L1685 366.38L1682.33 363.715Z" fill="#505050"/>
<path d="M1682.33 376.53L1635.98 327.51L1685 373.865L1682.33 376.53Z" fill="#505050"/>
<path d="M1747.14 307.369C1748.57 302.872 1744.34 298.647 1739.85 300.072C1717.57 307.12 1668.82 326.252 1694.89 352.323C1720.96 378.394 1740.1 329.643 1747.14 307.369Z" fill="#505050"/>
<path d="M1622.61 319.452C1621.19 314.955 1625.41 310.73 1629.9 312.155C1652.18 319.204 1700.93 338.336 1674.86 364.407C1648.79 390.477 1629.66 341.726 1622.61 319.452Z" fill="#505050"/>
<path d="M1690.2 258.076C1687.45 252.777 1679.88 252.777 1677.13 258.076C1663.5 284.33 1636.99 345.1 1683.67 345.1C1730.35 345.1 1703.83 284.33 1690.2 258.076Z" fill="#505050"/>
<path d="M1828.24 270.92L1832.63 426.686H1823.84L1828.24 270.92Z" fill="#505050"/>
<path d="M1826.91 363.715L1863.86 329.419L1829.57 366.38L1826.91 363.715Z" fill="#505050"/>
<path d="M1826.9 376.53L1780.55 327.51L1829.57 373.865L1826.9 376.53Z" fill="#505050"/>
<path d="M1891.72 307.369C1893.14 302.872 1888.92 298.647 1884.42 300.072C1862.15 307.12 1813.4 326.252 1839.47 352.323C1865.54 378.394 1884.67 329.643 1891.72 307.369Z" fill="#505050"/>
<path d="M1767.18 319.452C1765.75 314.955 1769.98 310.73 1774.47 312.155C1796.75 319.204 1845.5 338.336 1819.43 364.407C1793.36 390.477 1774.23 341.726 1767.18 319.452Z" fill="#505050"/>
<path d="M1834.77 258.076C1832.02 252.777 1824.45 252.777 1821.7 258.076C1808.07 284.33 1781.56 345.1 1828.24 345.1C1874.92 345.1 1848.4 284.33 1834.77 258.076Z" fill="#505050"/>
<rect x="-130" y="-57" width="2912" height="503" fill="white" fill-opacity="0.65"/>
</g>
<defs>
<filter id="filter0_d" x="1163" y="-18" width="314" height="314" filterUnits="userSpaceOnUse" color-interpolation-filters="sRGB">
<feFlood flood-opacity="0" result="BackgroundImageFix"/>
<feColorMatrix in="SourceAlpha" type="matrix" values="0 0 0 0 0 0 0 0 0 0 0 0 0 0 0 0 0 0 127 0"/>
<feOffset dx="-2" dy="-14"/>
<feGaussianBlur stdDeviation="14.5"/>
<feColorMatrix type="matrix" values="0 0 0 0 0.960784 0 0 0 0 0.647059 0 0 0 0 0.478431 0 0 0 0.94 0"/>
<feBlend mode="normal" in2="BackgroundImageFix" result="effect1_dropShadow"/>
<feBlend mode="normal" in="SourceGraphic" in2="effect1_dropShadow" result="shape"/>
</filter>
<linearGradient id="paint0_linear" x1="3903" y1="326.273" x2="3903.37" y2="769.718" gradientUnits="userSpaceOnUse">
<stop offset="0.0707057" stop-color="#E13F30" stop-opacity="0.92"/>
<stop offset="0.837574" stop-color="#FFC15E" stop-opacity="0.07"/>
</linearGradient>
<linearGradient id="paint1_linear" x1="3903" y1="326.273" x2="3903.37" y2="769.718" gradientUnits="userSpaceOnUse">
<stop offset="0.0707057" stop-color="#E13F30" stop-opacity="0.92"/>
<stop offset="0.837574" stop-color="#FFC15E" stop-opacity="0.07"/>
</linearGradient>
<clipPath id="clip0">
<rect width="2572" height="400" fill="white"/>
</clipPath>
</defs>
</svg>
