<svg width="2572" height="400" viewBox="0 0 2572 400" fill="none" xmlns="http://www.w3.org/2000/svg">
<g clip-path="url(#clip0)">
<rect width="2572" height="400" fill="white"/>
<rect x="2594" y="416" width="2618" height="388" transform="rotate(-180 2594 416)" fill="url(#paint0_linear)"/>
<g filter="url(#filter0_d)">
<circle cx="1179" cy="233" r="128" fill="#E2803A" fill-opacity="0.37"/>
</g>
<path d="M2335 467C2143 495 1899.77 107.463 1779.65 92.2742C1609.35 70.7374 1438.82 207.439 1200.17 279.531C961.515 351.623 876.59 308.322 689.029 250.74C501.468 193.157 204.22 214.694 -9 250.74C-222.22 286.786 -197.003 279.531 -418.625 214.694C-533.069 181.142 -690.43 186.129 -816 198.825V1450H2363L2335 467Z" fill="#D7E1E1"/>
<rect x="2594" y="402" width="2618" height="388" transform="rotate(-180 2594 402)" fill="url(#paint1_linear)"/>
<path d="M2477 434C2309.35 395.905 2139 114.022 2036 101C1889.96 82.5353 1680.64 372.192 1476 434C1271.36 495.808 1132.83 150.369 972 101C811.166 51.6313 732 252.66 588 277C405.163 307.904 -58.9589 545.588 -249 490C-347.136 461.234 -256.323 18.1156 -364 29L-249 1396H2477V434Z" fill="#B1B3AF"/>
<path d="M2571 351.8C2455.83 351.8 2181.42 379.539 2154.92 398.252C2139.13 409.4 2462.54 419.448 2478.12 429.375C2484.15 433.222 2379.31 437.348 2368.07 446.969C2355.52 457.71 2571 467 2571 467V351.8V351.8Z" fill="#3D3D4D"/>
<path d="M2423.02 341.157H2419.53V360.15H2423.02V341.157Z" fill="#3B1154"/>
<path d="M2424.55 300.083C2423.17 297.429 2419.38 297.429 2418 300.083C2411.17 313.231 2397.9 343.669 2421.28 343.669C2444.65 343.667 2431.37 313.231 2424.55 300.083Z" fill="#3B1154"/>
<path d="M2499.27 338.683H2494.11V366.766H2499.27V338.683Z" fill="#3B1154"/>
<path d="M2501.52 277.943C2499.49 274.019 2493.88 274.019 2491.84 277.943C2481.75 297.387 2462.11 342.394 2496.68 342.394C2531.26 342.394 2511.62 297.387 2501.52 277.943Z" fill="#3B1154"/>
<path d="M2395.56 341.157H2392.07V360.15H2395.56V341.157Z" fill="#3B1154"/>
<path d="M2397.09 300.083C2395.71 297.429 2391.92 297.429 2390.54 300.083C2383.72 313.231 2370.44 343.669 2393.82 343.669C2417.2 343.667 2403.92 313.231 2397.09 300.083Z" fill="#3B1154"/>
<path d="M2367.95 345.27H2365.87V356.621H2367.95V345.27Z" fill="#3B1154"/>
<path d="M2368.86 320.721C2368.04 319.135 2365.78 319.135 2364.95 320.721C2360.87 328.58 2352.94 346.77 2366.91 346.77C2380.88 346.77 2372.94 328.58 2368.86 320.721Z" fill="#3B1154"/>
<path d="M2469.23 291.172L2471.3 364.658H2467.15L2469.23 291.172Z" fill="#3B1154"/>
<path d="M2468.6 334.95L2486.03 318.77L2469.85 336.208L2468.6 334.95Z" fill="#3B1154"/>
<path d="M2468.6 340.996L2446.73 317.87L2469.85 339.739L2468.6 340.996Z" fill="#3B1154"/>
<path d="M2499.17 308.368C2499.84 306.246 2497.85 304.253 2495.73 304.925C2485.22 308.251 2462.22 317.276 2474.52 329.576C2486.82 341.876 2495.85 318.876 2499.17 308.368Z" fill="#3B1154"/>
<path d="M2440.42 314.068C2439.75 311.947 2441.74 309.954 2443.86 310.626C2454.37 313.951 2477.37 322.977 2465.07 335.276C2452.77 347.576 2443.74 324.576 2440.42 314.068Z" fill="#3B1154"/>
<path d="M2472.31 285.113C2471.01 282.613 2467.44 282.613 2466.14 285.113C2459.71 297.499 2447.2 326.168 2469.23 326.168C2491.25 326.168 2478.74 297.499 2472.31 285.113Z" fill="#3B1154"/>
<path d="M2537.43 291.172L2539.5 364.658H2535.36L2537.43 291.172Z" fill="#3B1154"/>
<path d="M2536.8 334.95L2554.24 318.77L2538.06 336.208L2536.8 334.95Z" fill="#3B1154"/>
<path d="M2536.8 340.996L2514.93 317.87L2538.06 339.739L2536.8 340.996Z" fill="#3B1154"/>
<path d="M2567.38 308.368C2568.05 306.246 2566.06 304.253 2563.94 304.925C2553.43 308.251 2530.43 317.276 2542.73 329.576C2555.03 341.876 2564.05 318.876 2567.38 308.368Z" fill="#3B1154"/>
<path d="M2508.62 314.068C2507.95 311.947 2509.95 309.954 2512.07 310.626C2522.58 313.951 2545.57 322.977 2533.27 335.276C2520.97 347.576 2511.95 324.576 2508.62 314.068Z" fill="#3B1154"/>
<path d="M2540.51 285.113C2539.22 282.613 2535.65 282.613 2534.35 285.113C2527.92 297.499 2515.41 326.168 2537.43 326.168C2559.45 326.168 2546.94 297.499 2540.51 285.113Z" fill="#3B1154"/>
<path d="M72.8032 381.456H69.7676V397.199H72.8032V381.456Z" fill="#2A0043"/>
<path d="M74.1331 347.41C72.9336 345.21 69.6373 345.21 68.4377 347.41C62.4967 358.308 50.9422 383.536 71.2846 383.536C91.6286 383.536 80.0741 358.309 74.1331 347.41Z" fill="#2A0043"/>
<path d="M35.9327 383.04H34.2888V391.567H35.9327V383.04Z" fill="#2A0043"/>
<path d="M36.6528 364.598C36.0029 363.406 34.2169 363.406 33.567 364.598C30.3493 370.502 24.0892 384.167 35.1091 384.167C46.1306 384.167 39.8705 370.502 36.6528 364.598Z" fill="#2A0043"/>
<path d="M134.575 390.208H132.932V398.735H134.575V390.208Z" fill="#2A0043"/>
<path d="M135.296 371.765C134.646 370.573 132.86 370.573 132.21 371.765C128.992 377.669 122.732 391.335 133.752 391.335C144.773 391.335 138.513 377.669 135.296 371.765Z" fill="#2A0043"/>
<path d="M120.923 388.745H119.279V397.272H120.923V388.745Z" fill="#2A0043"/>
<path d="M121.643 370.302C120.993 369.11 119.207 369.11 118.557 370.302C115.339 376.207 109.079 389.872 120.099 389.872C131.121 389.872 124.86 376.207 121.643 370.302Z" fill="#2A0043"/>
<path d="M52.6664 381.456H49.6307V397.199H52.6664V381.456Z" fill="#2A0043"/>
<path d="M53.9946 347.41C52.7951 345.21 49.4988 345.21 48.2992 347.41C42.3583 358.308 30.8037 383.536 51.1461 383.536C71.4918 383.536 59.9356 358.309 53.9946 347.41Z" fill="#2A0043"/>
<ellipse cx="23" cy="391.5" rx="10" ry="3.5" fill="#C4C4C4" fill-opacity="0.59"/>
<path d="M22.507 348.573L23.7617 390.921H21.2523L22.507 348.573Z" fill="#2A0043"/>
<path d="M22.1277 373.801L32.6748 364.476L22.8879 374.525L22.1277 373.801Z" fill="#2A0043"/>
<path d="M22.1278 377.284L8.89594 363.958L22.888 376.56L22.1278 377.284Z" fill="#2A0043"/>
<path d="M40.6256 358.481C41.0316 357.259 39.8254 356.11 38.5423 356.497C32.1836 358.413 18.2701 363.615 25.7114 370.704C33.1526 377.792 38.6141 364.538 40.6256 358.481Z" fill="#2A0043"/>
<path d="M5.08005 361.766C4.67407 360.544 5.8803 359.395 7.1634 359.782C13.5221 361.698 27.4356 366.9 19.9943 373.988C12.5531 381.076 7.09157 367.823 5.08005 361.766Z" fill="#2A0043"/>
<path d="M24.3715 345.08C23.5863 343.64 21.4278 343.64 20.6425 345.08C16.7515 352.218 9.18493 368.738 22.507 368.738C35.8308 368.74 28.2626 352.218 24.3715 345.08Z" fill="#2A0043"/>
<rect x="-130" y="-57" width="2912" height="503" fill="white" fill-opacity="0.65"/>
</g>
<defs>
<filter id="filter0_d" x="1020" y="62" width="314" height="314" filterUnits="userSpaceOnUse" color-interpolation-filters="sRGB">
<feFlood flood-opacity="0" result="BackgroundImageFix"/>
<feColorMatrix in="SourceAlpha" type="matrix" values="0 0 0 0 0 0 0 0 0 0 0 0 0 0 0 0 0 0 127 0"/>
<feOffset dx="-2" dy="-14"/>
<feGaussianBlur stdDeviation="14.5"/>
<feColorMatrix type="matrix" values="0 0 0 0 0.960784 0 0 0 0 0.647059 0 0 0 0 0.478431 0 0 0 0.94 0"/>
<feBlend mode="normal" in2="BackgroundImageFix" result="effect1_dropShadow"/>
<feBlend mode="normal" in="SourceGraphic" in2="effect1_dropShadow" result="shape"/>
</filter>
<linearGradient id="paint0_linear" x1="3903" y1="354.273" x2="3903.37" y2="797.718" gradientUnits="userSpaceOnUse">
<stop offset="0.0707057" stop-color="#E13F30" stop-opacity="0.92"/>
<stop offset="0.837574" stop-color="#FFC15E" stop-opacity="0.07"/>
</linearGradient>
<linearGradient id="paint1_linear" x1="3903" y1="340.273" x2="3903.37" y2="783.718" gradientUnits="userSpaceOnUse">
<stop offset="0.0707057" stop-color="#E13F30" stop-opacity="0.92"/>
<stop offset="0.837574" stop-color="#FFC15E" stop-opacity="0.07"/>
</linearGradient>
<clipPath id="clip0">
<rect width="2572" height="400" fill="white"/>
</clipPath>
</defs>
</svg>
